<mxfile host="app.diagrams.net" modified="2022-09-27T09:07:47.278Z" agent="5.0 (Macintosh; Intel Mac OS X 10_15_7) AppleWebKit/537.36 (KHTML, like Gecko) Chrome/105.0.0.0 Safari/537.36" etag="EIEAXmiLPWQu-Nf0g6B4" version="20.3.6" type="github" pages="4">
  <diagram id="8JSz99i6mgAUcZoLd_IX" name="一期">
    <mxGraphModel dx="3080" dy="1844" grid="1" gridSize="10" guides="1" tooltips="1" connect="1" arrows="1" fold="1" page="1" pageScale="1" pageWidth="1654" pageHeight="1169" math="0" shadow="0">
      <root>
        <mxCell id="0" />
        <mxCell id="1" parent="0" />
        <mxCell id="gRpkOxRFtusnqfueK_hV-70" value="" style="edgeStyle=orthogonalEdgeStyle;rounded=0;orthogonalLoop=1;jettySize=auto;html=1;strokeWidth=2;" parent="1" source="gRpkOxRFtusnqfueK_hV-1" target="gRpkOxRFtusnqfueK_hV-69" edge="1">
          <mxGeometry relative="1" as="geometry" />
        </mxCell>
        <mxCell id="gRpkOxRFtusnqfueK_hV-1" value="App启动" style="rounded=1;whiteSpace=wrap;html=1;strokeWidth=2;" parent="1" vertex="1">
          <mxGeometry x="-170" y="200" width="120" height="60" as="geometry" />
        </mxCell>
        <mxCell id="gRpkOxRFtusnqfueK_hV-13" value="" style="edgeStyle=orthogonalEdgeStyle;rounded=0;orthogonalLoop=1;jettySize=auto;html=1;strokeWidth=2;" parent="1" source="gRpkOxRFtusnqfueK_hV-2" target="gRpkOxRFtusnqfueK_hV-12" edge="1">
          <mxGeometry relative="1" as="geometry" />
        </mxCell>
        <mxCell id="gRpkOxRFtusnqfueK_hV-2" value="请求新的update接口" style="whiteSpace=wrap;html=1;rounded=1;strokeWidth=2;" parent="1" vertex="1">
          <mxGeometry x="400" y="200" width="120" height="60" as="geometry" />
        </mxCell>
        <mxCell id="gRpkOxRFtusnqfueK_hV-5" style="edgeStyle=orthogonalEdgeStyle;rounded=0;orthogonalLoop=1;jettySize=auto;html=1;exitX=0;exitY=0;exitDx=110;exitDy=90;exitPerimeter=0;strokeWidth=2;shape=arrow;" parent="1" source="gRpkOxRFtusnqfueK_hV-4" target="gRpkOxRFtusnqfueK_hV-2" edge="1">
          <mxGeometry relative="1" as="geometry" />
        </mxCell>
        <mxCell id="gRpkOxRFtusnqfueK_hV-11" value="拉取最新离线配置文件" style="edgeLabel;html=1;align=center;verticalAlign=middle;resizable=0;points=[];" parent="gRpkOxRFtusnqfueK_hV-5" vertex="1" connectable="0">
          <mxGeometry x="-0.1538" relative="1" as="geometry">
            <mxPoint as="offset" />
          </mxGeometry>
        </mxCell>
        <mxCell id="gRpkOxRFtusnqfueK_hV-4" value="Mis后台服务" style="verticalAlign=top;align=left;spacingTop=8;spacingLeft=2;spacingRight=12;shape=cube;size=10;direction=south;fontStyle=4;html=1;strokeWidth=2;fillColor=#d5e8d4;strokeColor=#82b366;" parent="1" vertex="1">
          <mxGeometry x="380" y="-40" width="170" height="110" as="geometry" />
        </mxCell>
        <mxCell id="gRpkOxRFtusnqfueK_hV-10" style="edgeStyle=orthogonalEdgeStyle;rounded=0;orthogonalLoop=1;jettySize=auto;html=1;exitX=1;exitY=0.5;exitDx=0;exitDy=0;strokeWidth=2;" parent="1" source="gRpkOxRFtusnqfueK_hV-6" target="gRpkOxRFtusnqfueK_hV-2" edge="1">
          <mxGeometry relative="1" as="geometry" />
        </mxCell>
        <mxCell id="gRpkOxRFtusnqfueK_hV-6" value="loadDataDb（moduleJson）" style="whiteSpace=wrap;html=1;rounded=1;strokeWidth=2;" parent="1" vertex="1">
          <mxGeometry x="220" y="200" width="120" height="60" as="geometry" />
        </mxCell>
        <mxCell id="gRpkOxRFtusnqfueK_hV-9" value="取出缓存的所有module_code和module_version作为参数上传，Mis后台算出diff" style="edgeStyle=orthogonalEdgeStyle;rounded=0;orthogonalLoop=1;jettySize=auto;html=1;exitX=0.5;exitY=0;exitDx=0;exitDy=0;entryX=0.45;entryY=1.033;entryDx=0;entryDy=0;entryPerimeter=0;strokeWidth=2;" parent="1" source="gRpkOxRFtusnqfueK_hV-8" target="gRpkOxRFtusnqfueK_hV-6" edge="1">
          <mxGeometry relative="1" as="geometry" />
        </mxCell>
        <mxCell id="gRpkOxRFtusnqfueK_hV-8" value="Database&lt;br&gt;Cache" style="shape=datastore;whiteSpace=wrap;html=1;strokeWidth=2;fillColor=#f5f5f5;strokeColor=#666666;fontColor=#333333;" parent="1" vertex="1">
          <mxGeometry x="220" y="410" width="110" height="120" as="geometry" />
        </mxCell>
        <mxCell id="gRpkOxRFtusnqfueK_hV-21" value="" style="edgeStyle=orthogonalEdgeStyle;rounded=0;orthogonalLoop=1;jettySize=auto;html=1;strokeWidth=2;" parent="1" source="gRpkOxRFtusnqfueK_hV-12" target="gRpkOxRFtusnqfueK_hV-20" edge="1">
          <mxGeometry relative="1" as="geometry" />
        </mxCell>
        <mxCell id="gRpkOxRFtusnqfueK_hV-12" value="解析配置" style="whiteSpace=wrap;html=1;rounded=1;strokeWidth=2;" parent="1" vertex="1">
          <mxGeometry x="937.5" y="200" width="120" height="60" as="geometry" />
        </mxCell>
        <mxCell id="gRpkOxRFtusnqfueK_hV-17" style="edgeStyle=orthogonalEdgeStyle;rounded=0;orthogonalLoop=1;jettySize=auto;html=1;exitX=0.5;exitY=1;exitDx=0;exitDy=0;exitPerimeter=0;strokeWidth=2;" parent="1" source="gRpkOxRFtusnqfueK_hV-16" target="gRpkOxRFtusnqfueK_hV-12" edge="1">
          <mxGeometry relative="1" as="geometry" />
        </mxCell>
        <mxCell id="gRpkOxRFtusnqfueK_hV-16" value="&lt;div&gt;{&lt;/div&gt;&lt;div&gt;&amp;nbsp; &amp;nbsp; &quot;errno&quot;: 0,&lt;/div&gt;&lt;div&gt;&amp;nbsp; &amp;nbsp; &quot;errmsg&quot;: &quot;&quot;,&lt;/div&gt;&lt;div&gt;&amp;nbsp; &amp;nbsp; &quot;data&quot;: [{ //H5离线包&lt;/div&gt;&lt;div&gt;&amp;nbsp; &amp;nbsp; &amp;nbsp; &amp;nbsp; &quot;type&quot;: &quot;h5&quot;,&lt;/div&gt;&lt;div&gt;&amp;nbsp; &amp;nbsp; &amp;nbsp; &amp;nbsp; &quot;module_code&quot;: &quot;&quot;,&amp;nbsp; //模块唯一标识&lt;/div&gt;&lt;div&gt;&amp;nbsp; &amp;nbsp; &amp;nbsp; &amp;nbsp; &quot;module_name&quot;: &quot;&quot;,&amp;nbsp; &amp;nbsp;//模块名称&lt;/div&gt;&lt;div&gt;&amp;nbsp; &amp;nbsp; &amp;nbsp; &amp;nbsp; &quot;module_version&quot;: &quot;&quot;,&amp;nbsp; //模块版本号&lt;/div&gt;&lt;div&gt;&amp;nbsp; &amp;nbsp; &amp;nbsp; &amp;nbsp; &quot;bundles&quot;: [&amp;nbsp; &amp;nbsp; &amp;nbsp; &amp;nbsp; &amp;nbsp; &amp;nbsp;//离线包列表&lt;/div&gt;&lt;div&gt;&amp;nbsp; &amp;nbsp; &amp;nbsp; &amp;nbsp; &amp;nbsp; &amp;nbsp;{&lt;/div&gt;&lt;div&gt;&amp;nbsp; &amp;nbsp; &amp;nbsp; &amp;nbsp; &amp;nbsp; &amp;nbsp; &amp;nbsp;&quot;bundle_name&quot;: &quot;&quot;,&amp;nbsp; &amp;nbsp;//离线包名&lt;/div&gt;&lt;div&gt;&amp;nbsp; &amp;nbsp; &amp;nbsp; &amp;nbsp; &amp;nbsp; &amp;nbsp; &amp;nbsp;&quot;bundle_version&quot;: &quot;&quot;,&amp;nbsp; //离线包版本&lt;/div&gt;&lt;div&gt;&amp;nbsp; &amp;nbsp; &amp;nbsp; &amp;nbsp; &amp;nbsp; &amp;nbsp; &amp;nbsp;&quot;download_url&quot;: &quot;&quot;,&amp;nbsp; &amp;nbsp;//离线包下载地址&lt;/div&gt;&lt;div&gt;&amp;nbsp; &amp;nbsp; &amp;nbsp; &amp;nbsp; &amp;nbsp; &amp;nbsp; &amp;nbsp;&quot;md5&quot;: &quot;&quot;,&amp;nbsp; &amp;nbsp; &amp;nbsp; &amp;nbsp; &amp;nbsp; &amp;nbsp; //下载md5，用于校验（防止重复下载）&lt;/div&gt;&lt;div&gt;&amp;nbsp; &amp;nbsp; &amp;nbsp; &amp;nbsp; &amp;nbsp; &amp;nbsp; &amp;nbsp;&quot;down_mode&quot;: &quot;&quot;,&amp;nbsp; &amp;nbsp; &amp;nbsp; //下载模式（事件触发、wifi触发、预下载）&lt;/div&gt;&lt;div&gt;&lt;span&gt;   &lt;/span&gt; &quot;origin_url&quot;:&quot;&quot; //静态资源（css/js/资源等）匹配路径&amp;nbsp;&lt;/div&gt;&lt;div&gt;&amp;nbsp; &amp;nbsp; &amp;nbsp; &amp;nbsp; &amp;nbsp; &amp;nbsp; &amp;nbsp;“html_str”： “” //html匹配路径&lt;/div&gt;&lt;div&gt;&amp;nbsp; &amp;nbsp; &amp;nbsp; &amp;nbsp; &amp;nbsp; &amp;nbsp;}&lt;/div&gt;&lt;div&gt;&amp;nbsp; &amp;nbsp; &amp;nbsp; &amp;nbsp; ],&lt;/div&gt;&lt;div&gt;&amp;nbsp; &amp;nbsp; &amp;nbsp; &amp;nbsp; &quot;extra&quot;: {&lt;/div&gt;&lt;div&gt;&amp;nbsp; &amp;nbsp; &amp;nbsp; &amp;nbsp; &amp;nbsp; &quot;cacheType&quot;: 2, //page缓存:1，module缓存:2&lt;/div&gt;&lt;div&gt;&amp;nbsp; &amp;nbsp; &amp;nbsp; &amp;nbsp; &amp;nbsp; &quot;moduleZipPath&quot;: &quot;https://img-ys011.didistatic.com/static/xjcfthanos/do1_Xtw6UVPbxVDsEwPvph2F&quot; //整个module的离线包下载地址&lt;/div&gt;&lt;div&gt;&amp;nbsp; &amp;nbsp; &amp;nbsp; &amp;nbsp; }&lt;/div&gt;&lt;div&gt;&amp;nbsp; &amp;nbsp; &amp;nbsp; }, { //thanos离线包&lt;/div&gt;&lt;div&gt;&amp;nbsp; &amp;nbsp; &amp;nbsp; &amp;nbsp; &quot;type&quot;: &quot;thanos&quot;,&lt;/div&gt;&lt;div&gt;&amp;nbsp; &amp;nbsp; &amp;nbsp; &amp;nbsp; &quot;module_code&quot;: &quot;&quot;,&lt;/div&gt;&lt;div&gt;&amp;nbsp; &amp;nbsp; &amp;nbsp; &amp;nbsp; &quot;module_name&quot;: &quot;&quot;,&lt;/div&gt;&lt;div&gt;&amp;nbsp; &amp;nbsp; &amp;nbsp; &amp;nbsp; &quot;module_version&quot;: &quot;&quot;,&lt;/div&gt;&lt;div&gt;&amp;nbsp; &amp;nbsp; &amp;nbsp; &amp;nbsp; &quot;bundles&quot;: [&lt;/div&gt;&lt;div&gt;&amp;nbsp; &amp;nbsp; &amp;nbsp; &amp;nbsp; &amp;nbsp; {&lt;/div&gt;&lt;div&gt;&amp;nbsp; &amp;nbsp; &amp;nbsp; &amp;nbsp; &amp;nbsp; &amp;nbsp; &quot;bundle_name&quot;: &quot;&quot;,&lt;/div&gt;&lt;div&gt;&amp;nbsp; &amp;nbsp; &amp;nbsp; &amp;nbsp; &amp;nbsp; &amp;nbsp; &quot;bundle_version&quot;: &quot;&quot;,&lt;/div&gt;&lt;div&gt;&amp;nbsp; &amp;nbsp; &amp;nbsp; &amp;nbsp; &amp;nbsp; &amp;nbsp; &quot;download_url&quot;: &quot;&quot;, //相当于thanos之前的updatePath，单个page的离线包下载地址&lt;/div&gt;&lt;div&gt;&amp;nbsp; &amp;nbsp; &amp;nbsp; &amp;nbsp; &amp;nbsp; &amp;nbsp; &quot;md5&quot;: &quot;&quot;,&lt;/div&gt;&lt;div&gt;&amp;nbsp; &amp;nbsp; &amp;nbsp; &amp;nbsp; &amp;nbsp; &amp;nbsp; &quot;down_mode&quot;: &quot;&quot;,&lt;/div&gt;&lt;div&gt;&amp;nbsp; &amp;nbsp; &amp;nbsp; &amp;nbsp; &amp;nbsp; &amp;nbsp; &quot;remotePath&quot;: &quot;https://static.am.xiaojukeji.com/cf-terminal/carlife/thanos-noah/pages/bill-list/index.html&quot;, //用来找到相对应的bundle离线包模块&lt;/div&gt;&lt;div&gt;&amp;nbsp; &amp;nbsp; &amp;nbsp; &amp;nbsp; &amp;nbsp; &amp;nbsp; &quot;localPath&quot;: &quot;/pages/bill-list/index.js&quot;, //本地离线包加载的路径&lt;/div&gt;&lt;div&gt;&amp;nbsp; &amp;nbsp; &amp;nbsp; &amp;nbsp; &amp;nbsp; &amp;nbsp; //&quot;updatePath&quot;: &quot;https://am.didistatic.com/static/am/cf-terminal/carlife/thanos-noah/0.5.22/pages/bill-list/index.js&quot;,&lt;/div&gt;&lt;div&gt;&amp;nbsp; &amp;nbsp; &amp;nbsp; &amp;nbsp; &amp;nbsp; }&lt;/div&gt;&lt;div&gt;&amp;nbsp; &amp;nbsp; &amp;nbsp; &amp;nbsp; ],&lt;/div&gt;&lt;div&gt;&amp;nbsp; &amp;nbsp; &amp;nbsp; &amp;nbsp; &quot;extra&quot;: {&lt;/div&gt;&lt;div&gt;&amp;nbsp; &amp;nbsp; &amp;nbsp; &amp;nbsp; &amp;nbsp; &quot;cacheType&quot;: 2, //page缓存:1，module缓存:2&lt;/div&gt;&lt;div&gt;&amp;nbsp; &amp;nbsp; &amp;nbsp; &amp;nbsp; &amp;nbsp; &quot;moduleZipPath&quot;: &quot;https://img-ys011.didistatic.com/static/xjcfthanos/do1_Xtw6UVPbxVDsEwPvph2F&quot; //整个module的离线包下载地址&lt;/div&gt;&lt;div&gt;&amp;nbsp; &amp;nbsp; &amp;nbsp; &amp;nbsp; }&lt;/div&gt;&lt;div&gt;&amp;nbsp; &amp;nbsp; &amp;nbsp; }, { //小游戏离线包&lt;/div&gt;&lt;div&gt;&amp;nbsp; &amp;nbsp; &amp;nbsp; &amp;nbsp; &quot;type&quot;: &quot;game&quot;,&lt;/div&gt;&lt;div&gt;&amp;nbsp; &amp;nbsp; &amp;nbsp; &amp;nbsp; &quot;module_code&quot;: &quot;&quot;,&lt;/div&gt;&lt;div&gt;&amp;nbsp; &amp;nbsp; &amp;nbsp; &amp;nbsp; &quot;module_name&quot;: &quot;&quot;,&lt;/div&gt;&lt;div&gt;&amp;nbsp; &amp;nbsp; &amp;nbsp; &amp;nbsp; &quot;module_version&quot;: &quot;&quot;,&lt;/div&gt;&lt;div&gt;&amp;nbsp; &amp;nbsp; &amp;nbsp; &amp;nbsp; &quot;bundles&quot;: [&lt;/div&gt;&lt;div&gt;&amp;nbsp; &amp;nbsp; &amp;nbsp; &amp;nbsp; &amp;nbsp; {&lt;/div&gt;&lt;div&gt;&amp;nbsp; &amp;nbsp; &amp;nbsp; &amp;nbsp; &amp;nbsp; &amp;nbsp; &quot;bundle_name&quot;: &quot;&quot;,&lt;/div&gt;&lt;div&gt;&amp;nbsp; &amp;nbsp; &amp;nbsp; &amp;nbsp; &amp;nbsp; &amp;nbsp; &quot;bundle_version&quot;: &quot;&quot;,&lt;/div&gt;&lt;div&gt;&amp;nbsp; &amp;nbsp; &amp;nbsp; &amp;nbsp; &amp;nbsp; &amp;nbsp; &quot;download_url&quot;: &quot;&quot;,&lt;/div&gt;&lt;div&gt;&amp;nbsp; &amp;nbsp; &amp;nbsp; &amp;nbsp; &amp;nbsp; &amp;nbsp; &quot;md5&quot;: &quot;&quot;,&lt;/div&gt;&lt;div&gt;&amp;nbsp; &amp;nbsp; &amp;nbsp; &amp;nbsp; &amp;nbsp; &amp;nbsp; &quot;down_mode&quot;: &quot;&quot;&lt;/div&gt;&lt;div&gt;&amp;nbsp; &amp;nbsp; &amp;nbsp; &amp;nbsp; &amp;nbsp; }&lt;/div&gt;&lt;div&gt;&amp;nbsp; &amp;nbsp; &amp;nbsp; &amp;nbsp; ],&lt;/div&gt;&lt;div&gt;&amp;nbsp; &amp;nbsp; &amp;nbsp; &amp;nbsp; &quot;extra&quot;: { //小游戏前期需要加载&lt;/div&gt;&lt;div&gt;&amp;nbsp; &amp;nbsp; &amp;nbsp; &amp;nbsp; &amp;nbsp; &quot;cacheType&quot;: 2, //page缓存:1，module缓存:2&lt;/div&gt;&lt;div&gt;&amp;nbsp; &amp;nbsp; &amp;nbsp; &amp;nbsp; &amp;nbsp; &quot;moduleZipPath&quot;: &quot;https://img-ys011.didistatic.com/static/xjcfthanos/do1_Xtw6UVPbxVDsEwPvph2F&quot;, //整个module的离线包下载地址&lt;/div&gt;&lt;div&gt;&lt;span&gt;  &lt;/span&gt;&amp;nbsp; &amp;nbsp; &amp;nbsp; &quot;gameId&quot;:&quot;&quot;,&amp;nbsp; //游戏Id，用来找到相对应的bundle离线包模块&lt;/div&gt;&lt;div&gt;&amp;nbsp; &amp;nbsp; &amp;nbsp; &amp;nbsp; &amp;nbsp; &quot;loadingText&quot;: &quot;加载中。。&quot;,&amp;nbsp; //加载文案&lt;/div&gt;&lt;div&gt;&amp;nbsp; &amp;nbsp; &amp;nbsp; &amp;nbsp; &amp;nbsp; &quot;loadingIcon&quot;: &quot;&quot;,&amp;nbsp; &amp;nbsp; &amp;nbsp; &amp;nbsp; &amp;nbsp; //加载图片url&lt;/div&gt;&lt;div&gt;&amp;nbsp; &amp;nbsp; &amp;nbsp; &amp;nbsp; &amp;nbsp; &quot;bgColor&quot;: &quot;&quot;,&amp;nbsp; &amp;nbsp; &amp;nbsp; &amp;nbsp; &amp;nbsp; &amp;nbsp; &amp;nbsp; //加载背景颜色&lt;/div&gt;&lt;div&gt;&amp;nbsp; &amp;nbsp; &amp;nbsp; &amp;nbsp; &amp;nbsp; &quot;textColor&quot;: &quot;&quot;&amp;nbsp; &amp;nbsp; &amp;nbsp; &amp;nbsp; &amp;nbsp; &amp;nbsp; //文案颜色&lt;/div&gt;&lt;div&gt;&amp;nbsp; &amp;nbsp; &amp;nbsp; &amp;nbsp; }&lt;/div&gt;&lt;div&gt;&amp;nbsp; &amp;nbsp; &amp;nbsp; }&lt;/div&gt;&lt;div&gt;&amp;nbsp; &amp;nbsp; ]&lt;/div&gt;&lt;div&gt;}&lt;/div&gt;" style="shape=note;whiteSpace=wrap;html=1;backgroundOutline=1;darkOpacity=0.05;strokeWidth=2;fillColor=#fff2cc;strokeColor=#d6b656;align=left;" parent="1" vertex="1">
          <mxGeometry x="600" y="-940" width="795" height="1060" as="geometry" />
        </mxCell>
        <mxCell id="gRpkOxRFtusnqfueK_hV-23" value="" style="edgeStyle=orthogonalEdgeStyle;rounded=0;orthogonalLoop=1;jettySize=auto;html=1;strokeWidth=2;" parent="1" source="gRpkOxRFtusnqfueK_hV-20" target="gRpkOxRFtusnqfueK_hV-22" edge="1">
          <mxGeometry relative="1" as="geometry" />
        </mxCell>
        <mxCell id="gRpkOxRFtusnqfueK_hV-28" value="no" style="edgeLabel;html=1;align=center;verticalAlign=middle;resizable=0;points=[];" parent="gRpkOxRFtusnqfueK_hV-23" vertex="1" connectable="0">
          <mxGeometry x="-0.1556" y="-1" relative="1" as="geometry">
            <mxPoint as="offset" />
          </mxGeometry>
        </mxCell>
        <mxCell id="gRpkOxRFtusnqfueK_hV-25" value="" style="edgeStyle=orthogonalEdgeStyle;rounded=0;orthogonalLoop=1;jettySize=auto;html=1;strokeWidth=2;" parent="1" source="gRpkOxRFtusnqfueK_hV-20" target="gRpkOxRFtusnqfueK_hV-26" edge="1">
          <mxGeometry relative="1" as="geometry">
            <mxPoint x="1097.5" y="370" as="targetPoint" />
          </mxGeometry>
        </mxCell>
        <mxCell id="gRpkOxRFtusnqfueK_hV-27" value="yes" style="edgeLabel;html=1;align=center;verticalAlign=middle;resizable=0;points=[];" parent="gRpkOxRFtusnqfueK_hV-25" vertex="1" connectable="0">
          <mxGeometry x="-0.0927" y="2" relative="1" as="geometry">
            <mxPoint x="1" as="offset" />
          </mxGeometry>
        </mxCell>
        <mxCell id="gRpkOxRFtusnqfueK_hV-20" value="data:[]" style="rhombus;whiteSpace=wrap;html=1;rounded=1;strokeWidth=2;" parent="1" vertex="1">
          <mxGeometry x="938.75" y="330" width="117.5" height="80" as="geometry" />
        </mxCell>
        <mxCell id="gRpkOxRFtusnqfueK_hV-30" value="" style="edgeStyle=orthogonalEdgeStyle;rounded=0;orthogonalLoop=1;jettySize=auto;html=1;strokeWidth=2;" parent="1" source="gRpkOxRFtusnqfueK_hV-22" target="gRpkOxRFtusnqfueK_hV-31" edge="1">
          <mxGeometry relative="1" as="geometry">
            <mxPoint x="998.75" y="585" as="targetPoint" />
          </mxGeometry>
        </mxCell>
        <mxCell id="gRpkOxRFtusnqfueK_hV-22" value="遍历modules" style="whiteSpace=wrap;html=1;rounded=1;strokeWidth=2;" parent="1" vertex="1">
          <mxGeometry x="707" y="340" width="120" height="60" as="geometry" />
        </mxCell>
        <mxCell id="gRpkOxRFtusnqfueK_hV-26" value="&lt;span&gt;结束&lt;/span&gt;" style="strokeWidth=2;html=1;shape=mxgraph.flowchart.terminator;whiteSpace=wrap;" parent="1" vertex="1">
          <mxGeometry x="1140" y="340" width="100" height="60" as="geometry" />
        </mxCell>
        <mxCell id="gRpkOxRFtusnqfueK_hV-33" value="" style="edgeStyle=orthogonalEdgeStyle;rounded=0;orthogonalLoop=1;jettySize=auto;html=1;strokeWidth=2;" parent="1" source="gRpkOxRFtusnqfueK_hV-31" target="gRpkOxRFtusnqfueK_hV-32" edge="1">
          <mxGeometry relative="1" as="geometry" />
        </mxCell>
        <mxCell id="gRpkOxRFtusnqfueK_hV-34" value="no" style="edgeLabel;html=1;align=center;verticalAlign=middle;resizable=0;points=[];" parent="gRpkOxRFtusnqfueK_hV-33" vertex="1" connectable="0">
          <mxGeometry x="-0.0218" y="1" relative="1" as="geometry">
            <mxPoint as="offset" />
          </mxGeometry>
        </mxCell>
        <mxCell id="gRpkOxRFtusnqfueK_hV-36" value="yes" style="edgeStyle=orthogonalEdgeStyle;rounded=0;orthogonalLoop=1;jettySize=auto;html=1;strokeWidth=2;" parent="1" source="gRpkOxRFtusnqfueK_hV-31" target="gRpkOxRFtusnqfueK_hV-43" edge="1">
          <mxGeometry relative="1" as="geometry">
            <mxPoint x="680" y="500" as="targetPoint" />
          </mxGeometry>
        </mxCell>
        <mxCell id="gRpkOxRFtusnqfueK_hV-31" value="判断本地是否存在module" style="rhombus;whiteSpace=wrap;html=1;rounded=1;strokeWidth=2;" parent="1" vertex="1">
          <mxGeometry x="510" y="460" width="117.5" height="80" as="geometry" />
        </mxCell>
        <mxCell id="gRpkOxRFtusnqfueK_hV-40" value="" style="edgeStyle=orthogonalEdgeStyle;rounded=0;orthogonalLoop=1;jettySize=auto;html=1;strokeWidth=2;" parent="1" source="gRpkOxRFtusnqfueK_hV-32" target="gRpkOxRFtusnqfueK_hV-46" edge="1">
          <mxGeometry relative="1" as="geometry">
            <mxPoint x="570" y="700" as="targetPoint" />
          </mxGeometry>
        </mxCell>
        <mxCell id="gRpkOxRFtusnqfueK_hV-32" value="新增module" style="whiteSpace=wrap;html=1;rounded=1;strokeWidth=2;" parent="1" vertex="1">
          <mxGeometry x="510" y="590" width="120" height="60" as="geometry" />
        </mxCell>
        <mxCell id="gRpkOxRFtusnqfueK_hV-41" style="edgeStyle=orthogonalEdgeStyle;rounded=0;orthogonalLoop=1;jettySize=auto;html=1;exitX=0;exitY=0.5;exitDx=0;exitDy=0;entryX=0.5;entryY=1;entryDx=0;entryDy=0;strokeWidth=2;" parent="1" source="gRpkOxRFtusnqfueK_hV-46" target="gRpkOxRFtusnqfueK_hV-8" edge="1">
          <mxGeometry relative="1" as="geometry" />
        </mxCell>
        <mxCell id="gRpkOxRFtusnqfueK_hV-49" style="edgeStyle=orthogonalEdgeStyle;rounded=0;orthogonalLoop=1;jettySize=auto;html=1;exitX=0.5;exitY=1;exitDx=0;exitDy=0;entryX=1;entryY=0.5;entryDx=0;entryDy=0;strokeWidth=2;" parent="1" source="gRpkOxRFtusnqfueK_hV-43" target="gRpkOxRFtusnqfueK_hV-46" edge="1">
          <mxGeometry relative="1" as="geometry" />
        </mxCell>
        <mxCell id="gRpkOxRFtusnqfueK_hV-50" value="no" style="edgeLabel;html=1;align=center;verticalAlign=middle;resizable=0;points=[];" parent="gRpkOxRFtusnqfueK_hV-49" vertex="1" connectable="0">
          <mxGeometry x="-0.7453" y="1" relative="1" as="geometry">
            <mxPoint as="offset" />
          </mxGeometry>
        </mxCell>
        <mxCell id="gRpkOxRFtusnqfueK_hV-52" value="" style="edgeStyle=orthogonalEdgeStyle;rounded=0;orthogonalLoop=1;jettySize=auto;html=1;strokeWidth=2;entryX=0.085;entryY=0.5;entryDx=0;entryDy=0;entryPerimeter=0;" parent="1" source="gRpkOxRFtusnqfueK_hV-43" target="gRpkOxRFtusnqfueK_hV-56" edge="1">
          <mxGeometry relative="1" as="geometry">
            <mxPoint x="896" y="500" as="targetPoint" />
          </mxGeometry>
        </mxCell>
        <mxCell id="gRpkOxRFtusnqfueK_hV-53" value="yes" style="edgeLabel;html=1;align=center;verticalAlign=middle;resizable=0;points=[];" parent="gRpkOxRFtusnqfueK_hV-52" vertex="1" connectable="0">
          <mxGeometry x="-0.4211" y="-1" relative="1" as="geometry">
            <mxPoint as="offset" />
          </mxGeometry>
        </mxCell>
        <mxCell id="gRpkOxRFtusnqfueK_hV-43" value="判断本地是否存在bundle" style="rhombus;whiteSpace=wrap;html=1;rounded=1;strokeWidth=2;" parent="1" vertex="1">
          <mxGeometry x="708" y="460" width="112" height="80" as="geometry" />
        </mxCell>
        <mxCell id="gRpkOxRFtusnqfueK_hV-46" value="bundles下载bundle离线包" style="whiteSpace=wrap;html=1;rounded=1;strokeWidth=2;" parent="1" vertex="1">
          <mxGeometry x="510" y="750" width="120" height="60" as="geometry" />
        </mxCell>
        <mxCell id="gRpkOxRFtusnqfueK_hV-64" style="edgeStyle=orthogonalEdgeStyle;rounded=0;orthogonalLoop=1;jettySize=auto;html=1;exitX=0;exitY=0.5;exitDx=0;exitDy=0;entryX=0.5;entryY=1;entryDx=0;entryDy=0;strokeWidth=2;" parent="1" source="gRpkOxRFtusnqfueK_hV-54" target="gRpkOxRFtusnqfueK_hV-8" edge="1">
          <mxGeometry relative="1" as="geometry" />
        </mxCell>
        <mxCell id="gRpkOxRFtusnqfueK_hV-65" value="更新数据库和内存信息" style="edgeLabel;html=1;align=center;verticalAlign=middle;resizable=0;points=[];" parent="gRpkOxRFtusnqfueK_hV-64" vertex="1" connectable="0">
          <mxGeometry x="0.7376" y="3" relative="1" as="geometry">
            <mxPoint as="offset" />
          </mxGeometry>
        </mxCell>
        <mxCell id="gRpkOxRFtusnqfueK_hV-54" value="查找本地并删除" style="whiteSpace=wrap;html=1;rounded=1;strokeWidth=2;" parent="1" vertex="1">
          <mxGeometry x="1020" y="870" width="120" height="60" as="geometry" />
        </mxCell>
        <mxCell id="gRpkOxRFtusnqfueK_hV-60" value="" style="edgeStyle=orthogonalEdgeStyle;rounded=0;orthogonalLoop=1;jettySize=auto;html=1;strokeWidth=2;entryX=1;entryY=0.5;entryDx=0;entryDy=0;" parent="1" source="gRpkOxRFtusnqfueK_hV-56" target="gRpkOxRFtusnqfueK_hV-46" edge="1">
          <mxGeometry relative="1" as="geometry">
            <mxPoint x="970" y="770" as="targetPoint" />
            <Array as="points">
              <mxPoint x="956" y="780" />
            </Array>
          </mxGeometry>
        </mxCell>
        <mxCell id="gRpkOxRFtusnqfueK_hV-61" value="no" style="edgeLabel;html=1;align=center;verticalAlign=middle;resizable=0;points=[];" parent="gRpkOxRFtusnqfueK_hV-60" vertex="1" connectable="0">
          <mxGeometry x="-0.2" relative="1" as="geometry">
            <mxPoint as="offset" />
          </mxGeometry>
        </mxCell>
        <mxCell id="gRpkOxRFtusnqfueK_hV-66" style="edgeStyle=orthogonalEdgeStyle;rounded=0;orthogonalLoop=1;jettySize=auto;html=1;exitX=1;exitY=0.5;exitDx=0;exitDy=0;entryX=0.5;entryY=0;entryDx=0;entryDy=0;strokeWidth=2;" parent="1" source="gRpkOxRFtusnqfueK_hV-56" target="gRpkOxRFtusnqfueK_hV-54" edge="1">
          <mxGeometry relative="1" as="geometry" />
        </mxCell>
        <mxCell id="gRpkOxRFtusnqfueK_hV-67" value="yes" style="edgeLabel;html=1;align=center;verticalAlign=middle;resizable=0;points=[];" parent="gRpkOxRFtusnqfueK_hV-66" vertex="1" connectable="0">
          <mxGeometry x="0.0261" y="4" relative="1" as="geometry">
            <mxPoint as="offset" />
          </mxGeometry>
        </mxCell>
        <mxCell id="gRpkOxRFtusnqfueK_hV-56" value="bundle离线包是否需要回滚或删除" style="rhombus;whiteSpace=wrap;html=1;rounded=1;strokeWidth=2;" parent="1" vertex="1">
          <mxGeometry x="871" y="465" width="169" height="70" as="geometry" />
        </mxCell>
        <mxCell id="gRpkOxRFtusnqfueK_hV-71" style="edgeStyle=orthogonalEdgeStyle;rounded=0;orthogonalLoop=1;jettySize=auto;html=1;exitX=1;exitY=0.5;exitDx=0;exitDy=0;strokeWidth=2;" parent="1" source="gRpkOxRFtusnqfueK_hV-69" target="gRpkOxRFtusnqfueK_hV-6" edge="1">
          <mxGeometry relative="1" as="geometry" />
        </mxCell>
        <mxCell id="gRpkOxRFtusnqfueK_hV-69" value="SDK init&lt;br&gt;&lt;span style=&quot;background-color: rgb(229 , 255 , 99)&quot;&gt;业务方设置存储路径（非必须，本地默认路径）&lt;/span&gt;" style="whiteSpace=wrap;html=1;rounded=1;strokeWidth=2;" parent="1" vertex="1">
          <mxGeometry x="20" y="200" width="120" height="60" as="geometry" />
        </mxCell>
        <mxCell id="gRpkOxRFtusnqfueK_hV-74" value="" style="edgeStyle=orthogonalEdgeStyle;rounded=0;orthogonalLoop=1;jettySize=auto;html=1;strokeWidth=2;" parent="1" source="gRpkOxRFtusnqfueK_hV-72" target="gRpkOxRFtusnqfueK_hV-75" edge="1">
          <mxGeometry relative="1" as="geometry">
            <mxPoint x="170" y="1190" as="targetPoint" />
          </mxGeometry>
        </mxCell>
        <mxCell id="gRpkOxRFtusnqfueK_hV-72" value="下载bundle离线包" style="whiteSpace=wrap;html=1;rounded=1;strokeWidth=2;" parent="1" vertex="1">
          <mxGeometry x="151.25" y="1040" width="120" height="60" as="geometry" />
        </mxCell>
        <mxCell id="gRpkOxRFtusnqfueK_hV-77" value="" style="edgeStyle=orthogonalEdgeStyle;rounded=0;orthogonalLoop=1;jettySize=auto;html=1;strokeWidth=2;entryX=0;entryY=0.5;entryDx=0;entryDy=0;" parent="1" source="gRpkOxRFtusnqfueK_hV-75" target="gRpkOxRFtusnqfueK_hV-81" edge="1">
          <mxGeometry relative="1" as="geometry">
            <mxPoint x="348.75" y="1190" as="targetPoint" />
          </mxGeometry>
        </mxCell>
        <mxCell id="gRpkOxRFtusnqfueK_hV-95" value="预下载" style="edgeLabel;html=1;align=center;verticalAlign=middle;resizable=0;points=[];" parent="gRpkOxRFtusnqfueK_hV-77" vertex="1" connectable="0">
          <mxGeometry x="-0.0439" y="4" relative="1" as="geometry">
            <mxPoint as="offset" />
          </mxGeometry>
        </mxCell>
        <mxCell id="gRpkOxRFtusnqfueK_hV-98" value="" style="edgeStyle=orthogonalEdgeStyle;rounded=0;orthogonalLoop=1;jettySize=auto;html=1;strokeWidth=2;" parent="1" source="gRpkOxRFtusnqfueK_hV-75" target="gRpkOxRFtusnqfueK_hV-97" edge="1">
          <mxGeometry relative="1" as="geometry" />
        </mxCell>
        <mxCell id="gRpkOxRFtusnqfueK_hV-99" value="wifi" style="edgeLabel;html=1;align=center;verticalAlign=middle;resizable=0;points=[];" parent="gRpkOxRFtusnqfueK_hV-98" vertex="1" connectable="0">
          <mxGeometry x="-0.0037" y="-1" relative="1" as="geometry">
            <mxPoint as="offset" />
          </mxGeometry>
        </mxCell>
        <mxCell id="gRpkOxRFtusnqfueK_hV-75" value="是否预下载/wifi/事件&lt;br&gt;&lt;span style=&quot;background-color: rgb(229 , 255 , 99)&quot;&gt;其中事件下载暴露给业务方&lt;/span&gt;" style="rhombus;whiteSpace=wrap;html=1;rounded=1;strokeWidth=2;" parent="1" vertex="1">
          <mxGeometry x="152.5" y="1150" width="117.5" height="80" as="geometry" />
        </mxCell>
        <mxCell id="gRpkOxRFtusnqfueK_hV-78" value="结束" style="strokeWidth=2;html=1;shape=mxgraph.flowchart.terminator;whiteSpace=wrap;" parent="1" vertex="1">
          <mxGeometry x="396.25" y="1540" width="100" height="60" as="geometry" />
        </mxCell>
        <mxCell id="gRpkOxRFtusnqfueK_hV-83" value="1" style="edgeStyle=orthogonalEdgeStyle;rounded=0;orthogonalLoop=1;jettySize=auto;html=1;strokeWidth=2;" parent="1" source="gRpkOxRFtusnqfueK_hV-81" target="gRpkOxRFtusnqfueK_hV-82" edge="1">
          <mxGeometry relative="1" as="geometry" />
        </mxCell>
        <mxCell id="gRpkOxRFtusnqfueK_hV-86" value="" style="edgeStyle=orthogonalEdgeStyle;rounded=0;orthogonalLoop=1;jettySize=auto;html=1;strokeWidth=2;" parent="1" source="gRpkOxRFtusnqfueK_hV-81" target="gRpkOxRFtusnqfueK_hV-85" edge="1">
          <mxGeometry relative="1" as="geometry" />
        </mxCell>
        <mxCell id="gRpkOxRFtusnqfueK_hV-89" value="2" style="edgeLabel;html=1;align=center;verticalAlign=middle;resizable=0;points=[];" parent="gRpkOxRFtusnqfueK_hV-86" vertex="1" connectable="0">
          <mxGeometry x="0.0965" y="-3" relative="1" as="geometry">
            <mxPoint as="offset" />
          </mxGeometry>
        </mxCell>
        <mxCell id="gRpkOxRFtusnqfueK_hV-88" value="0" style="edgeStyle=orthogonalEdgeStyle;rounded=0;orthogonalLoop=1;jettySize=auto;html=1;exitX=0.5;exitY=1;exitDx=0;exitDy=0;entryX=0.5;entryY=0;entryDx=0;entryDy=0;entryPerimeter=0;strokeWidth=2;" parent="1" source="gRpkOxRFtusnqfueK_hV-81" target="gRpkOxRFtusnqfueK_hV-78" edge="1">
          <mxGeometry relative="1" as="geometry" />
        </mxCell>
        <mxCell id="gRpkOxRFtusnqfueK_hV-81" value="cacheType=0、1、2" style="rhombus;whiteSpace=wrap;html=1;rounded=1;strokeWidth=2;" parent="1" vertex="1">
          <mxGeometry x="372.5" y="1150" width="147.5" height="80" as="geometry" />
        </mxCell>
        <mxCell id="gRpkOxRFtusnqfueK_hV-91" value="" style="edgeStyle=orthogonalEdgeStyle;rounded=0;orthogonalLoop=1;jettySize=auto;html=1;strokeWidth=2;" parent="1" source="gRpkOxRFtusnqfueK_hV-82" target="gRpkOxRFtusnqfueK_hV-90" edge="1">
          <mxGeometry relative="1" as="geometry" />
        </mxCell>
        <mxCell id="gRpkOxRFtusnqfueK_hV-93" value="download_url" style="edgeLabel;html=1;align=center;verticalAlign=middle;resizable=0;points=[];" parent="gRpkOxRFtusnqfueK_hV-91" vertex="1" connectable="0">
          <mxGeometry x="-0.5643" y="5" relative="1" as="geometry">
            <mxPoint as="offset" />
          </mxGeometry>
        </mxCell>
        <mxCell id="gRpkOxRFtusnqfueK_hV-82" value="&lt;span style=&quot;font-size: 11px ; background-color: rgb(255 , 255 , 255)&quot;&gt;单个bundle下载&lt;/span&gt;" style="whiteSpace=wrap;html=1;rounded=1;strokeWidth=2;" parent="1" vertex="1">
          <mxGeometry x="630" y="1110" width="120" height="60" as="geometry" />
        </mxCell>
        <mxCell id="gRpkOxRFtusnqfueK_hV-92" style="edgeStyle=orthogonalEdgeStyle;rounded=0;orthogonalLoop=1;jettySize=auto;html=1;exitX=1;exitY=0.5;exitDx=0;exitDy=0;entryX=0;entryY=0.5;entryDx=0;entryDy=0;strokeWidth=2;" parent="1" source="gRpkOxRFtusnqfueK_hV-85" target="gRpkOxRFtusnqfueK_hV-90" edge="1">
          <mxGeometry relative="1" as="geometry" />
        </mxCell>
        <mxCell id="gRpkOxRFtusnqfueK_hV-94" value="&lt;span style=&quot;font-size: 12px ; text-align: left ; background-color: rgb(248 , 249 , 250)&quot;&gt;moduleZipPath&lt;/span&gt;" style="edgeLabel;html=1;align=center;verticalAlign=middle;resizable=0;points=[];" parent="gRpkOxRFtusnqfueK_hV-92" vertex="1" connectable="0">
          <mxGeometry x="-0.6308" relative="1" as="geometry">
            <mxPoint x="13" as="offset" />
          </mxGeometry>
        </mxCell>
        <mxCell id="gRpkOxRFtusnqfueK_hV-85" value="&lt;span style=&quot;font-size: 11px ; background-color: rgb(255 , 255 , 255)&quot;&gt;按照module下载&lt;/span&gt;" style="whiteSpace=wrap;html=1;rounded=1;strokeWidth=2;" parent="1" vertex="1">
          <mxGeometry x="630" y="1210" width="120" height="60" as="geometry" />
        </mxCell>
        <mxCell id="gRpkOxRFtusnqfueK_hV-103" value="" style="edgeStyle=orthogonalEdgeStyle;rounded=0;orthogonalLoop=1;jettySize=auto;html=1;strokeWidth=2;" parent="1" source="gRpkOxRFtusnqfueK_hV-90" target="gRpkOxRFtusnqfueK_hV-102" edge="1">
          <mxGeometry relative="1" as="geometry" />
        </mxCell>
        <mxCell id="gRpkOxRFtusnqfueK_hV-90" value="downloadBundle" style="whiteSpace=wrap;html=1;rounded=1;strokeWidth=2;" parent="1" vertex="1">
          <mxGeometry x="970" y="1170" width="120" height="60" as="geometry" />
        </mxCell>
        <mxCell id="gRpkOxRFtusnqfueK_hV-100" style="edgeStyle=orthogonalEdgeStyle;rounded=0;orthogonalLoop=1;jettySize=auto;html=1;exitX=0;exitY=0.5;exitDx=0;exitDy=0;entryX=0;entryY=0.5;entryDx=0;entryDy=0;strokeWidth=2;" parent="1" source="gRpkOxRFtusnqfueK_hV-97" target="gRpkOxRFtusnqfueK_hV-75" edge="1">
          <mxGeometry relative="1" as="geometry" />
        </mxCell>
        <mxCell id="gRpkOxRFtusnqfueK_hV-97" value="注册WIFI监听" style="whiteSpace=wrap;html=1;rounded=1;strokeWidth=2;" parent="1" vertex="1">
          <mxGeometry x="60" y="1310" width="120" height="60" as="geometry" />
        </mxCell>
        <mxCell id="gRpkOxRFtusnqfueK_hV-105" value="" style="edgeStyle=orthogonalEdgeStyle;rounded=0;orthogonalLoop=1;jettySize=auto;html=1;strokeWidth=2;" parent="1" source="gRpkOxRFtusnqfueK_hV-102" target="gRpkOxRFtusnqfueK_hV-104" edge="1">
          <mxGeometry relative="1" as="geometry" />
        </mxCell>
        <mxCell id="gRpkOxRFtusnqfueK_hV-106" value="no" style="edgeLabel;html=1;align=center;verticalAlign=middle;resizable=0;points=[];" parent="gRpkOxRFtusnqfueK_hV-105" vertex="1" connectable="0">
          <mxGeometry x="-0.2" y="2" relative="1" as="geometry">
            <mxPoint x="-15" y="2" as="offset" />
          </mxGeometry>
        </mxCell>
        <mxCell id="gRpkOxRFtusnqfueK_hV-112" value="" style="edgeStyle=orthogonalEdgeStyle;rounded=0;orthogonalLoop=1;jettySize=auto;html=1;strokeWidth=2;" parent="1" source="gRpkOxRFtusnqfueK_hV-102" target="gRpkOxRFtusnqfueK_hV-111" edge="1">
          <mxGeometry relative="1" as="geometry" />
        </mxCell>
        <mxCell id="gRpkOxRFtusnqfueK_hV-113" value="yes" style="edgeLabel;html=1;align=center;verticalAlign=middle;resizable=0;points=[];" parent="gRpkOxRFtusnqfueK_hV-112" vertex="1" connectable="0">
          <mxGeometry x="-0.4" y="-1" relative="1" as="geometry">
            <mxPoint as="offset" />
          </mxGeometry>
        </mxCell>
        <mxCell id="gRpkOxRFtusnqfueK_hV-102" value="本地是否存在文件" style="rhombus;whiteSpace=wrap;html=1;rounded=1;strokeWidth=2;" parent="1" vertex="1">
          <mxGeometry x="955" y="1280" width="150" height="70" as="geometry" />
        </mxCell>
        <mxCell id="gRpkOxRFtusnqfueK_hV-110" style="edgeStyle=orthogonalEdgeStyle;rounded=0;orthogonalLoop=1;jettySize=auto;html=1;exitX=0.5;exitY=1;exitDx=0;exitDy=0;entryX=1;entryY=0.5;entryDx=0;entryDy=0;strokeWidth=2;" parent="1" source="gRpkOxRFtusnqfueK_hV-104" target="gRpkOxRFtusnqfueK_hV-107" edge="1">
          <mxGeometry relative="1" as="geometry" />
        </mxCell>
        <mxCell id="gRpkOxRFtusnqfueK_hV-122" value="下载成功" style="edgeLabel;html=1;align=center;verticalAlign=middle;resizable=0;points=[];" parent="gRpkOxRFtusnqfueK_hV-110" vertex="1" connectable="0">
          <mxGeometry x="-0.5121" relative="1" as="geometry">
            <mxPoint as="offset" />
          </mxGeometry>
        </mxCell>
        <mxCell id="gRpkOxRFtusnqfueK_hV-104" value="excuteDownload" style="whiteSpace=wrap;html=1;rounded=1;strokeWidth=2;" parent="1" vertex="1">
          <mxGeometry x="1260" y="1285" width="120" height="60" as="geometry" />
        </mxCell>
        <mxCell id="gRpkOxRFtusnqfueK_hV-127" style="edgeStyle=orthogonalEdgeStyle;rounded=0;orthogonalLoop=1;jettySize=auto;html=1;exitX=0;exitY=0.5;exitDx=0;exitDy=0;entryX=1;entryY=0.5;entryDx=0;entryDy=0;entryPerimeter=0;strokeWidth=2;" parent="1" source="gRpkOxRFtusnqfueK_hV-107" target="gRpkOxRFtusnqfueK_hV-78" edge="1">
          <mxGeometry relative="1" as="geometry" />
        </mxCell>
        <mxCell id="gRpkOxRFtusnqfueK_hV-107" value="解压文件并删除zip" style="whiteSpace=wrap;html=1;rounded=1;strokeWidth=2;" parent="1" vertex="1">
          <mxGeometry x="970" y="1540" width="120" height="60" as="geometry" />
        </mxCell>
        <mxCell id="gRpkOxRFtusnqfueK_hV-114" style="edgeStyle=orthogonalEdgeStyle;rounded=0;orthogonalLoop=1;jettySize=auto;html=1;exitX=0.5;exitY=1;exitDx=0;exitDy=0;strokeWidth=2;" parent="1" source="gRpkOxRFtusnqfueK_hV-111" target="gRpkOxRFtusnqfueK_hV-107" edge="1">
          <mxGeometry relative="1" as="geometry" />
        </mxCell>
        <mxCell id="gRpkOxRFtusnqfueK_hV-117" value="yes" style="edgeLabel;html=1;align=center;verticalAlign=middle;resizable=0;points=[];" parent="gRpkOxRFtusnqfueK_hV-114" vertex="1" connectable="0">
          <mxGeometry x="-0.05" y="2" relative="1" as="geometry">
            <mxPoint as="offset" />
          </mxGeometry>
        </mxCell>
        <mxCell id="gRpkOxRFtusnqfueK_hV-119" value="" style="edgeStyle=orthogonalEdgeStyle;rounded=0;orthogonalLoop=1;jettySize=auto;html=1;strokeWidth=2;" parent="1" source="gRpkOxRFtusnqfueK_hV-111" target="gRpkOxRFtusnqfueK_hV-118" edge="1">
          <mxGeometry relative="1" as="geometry" />
        </mxCell>
        <mxCell id="gRpkOxRFtusnqfueK_hV-121" value="no" style="edgeLabel;html=1;align=center;verticalAlign=middle;resizable=0;points=[];" parent="gRpkOxRFtusnqfueK_hV-119" vertex="1" connectable="0">
          <mxGeometry x="-0.3333" y="-1" relative="1" as="geometry">
            <mxPoint as="offset" />
          </mxGeometry>
        </mxCell>
        <mxCell id="gRpkOxRFtusnqfueK_hV-111" value="检测本地文件MD5是否相同" style="rhombus;whiteSpace=wrap;html=1;rounded=1;strokeWidth=2;" parent="1" vertex="1">
          <mxGeometry x="955" y="1390" width="150" height="70" as="geometry" />
        </mxCell>
        <mxCell id="gRpkOxRFtusnqfueK_hV-120" style="edgeStyle=orthogonalEdgeStyle;rounded=0;orthogonalLoop=1;jettySize=auto;html=1;exitX=0.5;exitY=0;exitDx=0;exitDy=0;entryX=0;entryY=0.5;entryDx=0;entryDy=0;strokeWidth=2;" parent="1" source="gRpkOxRFtusnqfueK_hV-118" target="gRpkOxRFtusnqfueK_hV-104" edge="1">
          <mxGeometry relative="1" as="geometry" />
        </mxCell>
        <mxCell id="gRpkOxRFtusnqfueK_hV-118" value="删除本地文件" style="whiteSpace=wrap;html=1;rounded=1;strokeWidth=2;" parent="1" vertex="1">
          <mxGeometry x="1150" y="1395" width="120" height="60" as="geometry" />
        </mxCell>
        <mxCell id="gRpkOxRFtusnqfueK_hV-123" value="重试机制" style="shape=document;whiteSpace=wrap;html=1;boundedLbl=1;strokeWidth=2;fillColor=#fff2cc;strokeColor=#d6b656;" parent="1" vertex="1">
          <mxGeometry x="1235" y="1040" width="160" height="120" as="geometry" />
        </mxCell>
        <mxCell id="gRpkOxRFtusnqfueK_hV-128" style="edgeStyle=orthogonalEdgeStyle;rounded=0;orthogonalLoop=1;jettySize=auto;html=1;exitX=0;exitY=0;exitDx=110;exitDy=90;exitPerimeter=0;strokeWidth=2;shape=arrow;fillColor=#fff2cc;strokeColor=#d6b656;" parent="1" edge="1">
          <mxGeometry relative="1" as="geometry">
            <mxPoint x="1314.5" y="1150" as="sourcePoint" />
            <mxPoint x="1314.5" y="1280" as="targetPoint" />
          </mxGeometry>
        </mxCell>
      </root>
    </mxGraphModel>
  </diagram>
  <diagram id="4ml1aYxl_b_MYkkNB5UJ" name="二期">
    <mxGraphModel dx="1042" dy="1724" grid="1" gridSize="10" guides="1" tooltips="1" connect="1" arrows="1" fold="1" page="1" pageScale="1" pageWidth="1654" pageHeight="1169" math="0" shadow="0">
      <root>
        <mxCell id="-xqtF7sIuRGaCEHhMnnk-0" />
        <mxCell id="-xqtF7sIuRGaCEHhMnnk-1" parent="-xqtF7sIuRGaCEHhMnnk-0" />
        <mxCell id="vPuBDwLVbH5oFyyP9LaE-1" value="App启动" style="rounded=1;whiteSpace=wrap;html=1;strokeWidth=2;" parent="-xqtF7sIuRGaCEHhMnnk-1" vertex="1">
          <mxGeometry x="20" y="200" width="120" height="60" as="geometry" />
        </mxCell>
        <mxCell id="iVoLokeWMwHunrRpb-uh-5" value="" style="edgeStyle=orthogonalEdgeStyle;rounded=0;orthogonalLoop=1;jettySize=auto;html=1;strokeWidth=2;" parent="-xqtF7sIuRGaCEHhMnnk-1" source="vPuBDwLVbH5oFyyP9LaE-3" target="iVoLokeWMwHunrRpb-uh-4" edge="1">
          <mxGeometry relative="1" as="geometry" />
        </mxCell>
        <mxCell id="vPuBDwLVbH5oFyyP9LaE-3" value="请求update接口" style="whiteSpace=wrap;html=1;rounded=1;strokeWidth=2;" parent="-xqtF7sIuRGaCEHhMnnk-1" vertex="1">
          <mxGeometry x="440" y="200" width="180" height="60" as="geometry" />
        </mxCell>
        <mxCell id="vPuBDwLVbH5oFyyP9LaE-4" style="edgeStyle=orthogonalEdgeStyle;rounded=0;orthogonalLoop=1;jettySize=auto;html=1;exitX=0;exitY=0;exitDx=110;exitDy=90;exitPerimeter=0;strokeWidth=2;shape=arrow;" parent="-xqtF7sIuRGaCEHhMnnk-1" source="vPuBDwLVbH5oFyyP9LaE-6" target="vPuBDwLVbH5oFyyP9LaE-3" edge="1">
          <mxGeometry relative="1" as="geometry" />
        </mxCell>
        <mxCell id="vPuBDwLVbH5oFyyP9LaE-5" value="拉取最新离线配置文件" style="edgeLabel;html=1;align=center;verticalAlign=middle;resizable=0;points=[];" parent="vPuBDwLVbH5oFyyP9LaE-4" vertex="1" connectable="0">
          <mxGeometry x="-0.1538" relative="1" as="geometry">
            <mxPoint x="100" y="60" as="offset" />
          </mxGeometry>
        </mxCell>
        <mxCell id="vPuBDwLVbH5oFyyP9LaE-6" value="Mis后台服务" style="verticalAlign=top;align=left;spacingTop=8;spacingLeft=2;spacingRight=12;shape=cube;size=10;direction=south;fontStyle=4;html=1;strokeWidth=2;fillColor=#d5e8d4;strokeColor=#82b366;" parent="-xqtF7sIuRGaCEHhMnnk-1" vertex="1">
          <mxGeometry x="450" y="360" width="170" height="110" as="geometry" />
        </mxCell>
        <mxCell id="vPuBDwLVbH5oFyyP9LaE-7" style="edgeStyle=orthogonalEdgeStyle;rounded=0;orthogonalLoop=1;jettySize=auto;html=1;exitX=1;exitY=0.5;exitDx=0;exitDy=0;strokeWidth=2;" parent="-xqtF7sIuRGaCEHhMnnk-1" source="vPuBDwLVbH5oFyyP9LaE-8" target="vPuBDwLVbH5oFyyP9LaE-3" edge="1">
          <mxGeometry relative="1" as="geometry" />
        </mxCell>
        <mxCell id="vPuBDwLVbH5oFyyP9LaE-8" value="loadDataDb（moduleJson）" style="whiteSpace=wrap;html=1;rounded=1;strokeWidth=2;" parent="-xqtF7sIuRGaCEHhMnnk-1" vertex="1">
          <mxGeometry x="220" y="200" width="120" height="60" as="geometry" />
        </mxCell>
        <mxCell id="vPuBDwLVbH5oFyyP9LaE-9" value="取出缓存的所有module_code和module_version作为参数上传，Mis后台算出diff" style="edgeStyle=orthogonalEdgeStyle;rounded=0;orthogonalLoop=1;jettySize=auto;html=1;exitX=0.5;exitY=0;exitDx=0;exitDy=0;entryX=0.45;entryY=1.033;entryDx=0;entryDy=0;entryPerimeter=0;strokeWidth=2;" parent="-xqtF7sIuRGaCEHhMnnk-1" source="vPuBDwLVbH5oFyyP9LaE-10" target="vPuBDwLVbH5oFyyP9LaE-8" edge="1">
          <mxGeometry relative="1" as="geometry" />
        </mxCell>
        <mxCell id="vPuBDwLVbH5oFyyP9LaE-10" value="Database&lt;br&gt;Cache" style="shape=datastore;whiteSpace=wrap;html=1;strokeWidth=2;fillColor=#f5f5f5;strokeColor=#666666;fontColor=#333333;" parent="-xqtF7sIuRGaCEHhMnnk-1" vertex="1">
          <mxGeometry x="220" y="410" width="110" height="120" as="geometry" />
        </mxCell>
        <mxCell id="iVoLokeWMwHunrRpb-uh-10" style="edgeStyle=orthogonalEdgeStyle;rounded=0;orthogonalLoop=1;jettySize=auto;html=1;exitX=0.5;exitY=1;exitDx=0;exitDy=0;entryX=0.5;entryY=0;entryDx=0;entryDy=0;strokeWidth=2;" parent="-xqtF7sIuRGaCEHhMnnk-1" source="vPuBDwLVbH5oFyyP9LaE-12" target="vPuBDwLVbH5oFyyP9LaE-26" edge="1">
          <mxGeometry relative="1" as="geometry" />
        </mxCell>
        <mxCell id="vPuBDwLVbH5oFyyP9LaE-12" value="解析配置info.conf" style="whiteSpace=wrap;html=1;rounded=1;strokeWidth=2;" parent="-xqtF7sIuRGaCEHhMnnk-1" vertex="1">
          <mxGeometry x="1168.75" y="200" width="120" height="60" as="geometry" />
        </mxCell>
        <mxCell id="iVoLokeWMwHunrRpb-uh-11" style="rounded=0;orthogonalLoop=1;jettySize=auto;html=1;exitX=0.5;exitY=1;exitDx=0;exitDy=0;exitPerimeter=0;strokeWidth=2;" parent="-xqtF7sIuRGaCEHhMnnk-1" source="vPuBDwLVbH5oFyyP9LaE-14" target="vPuBDwLVbH5oFyyP9LaE-12" edge="1">
          <mxGeometry relative="1" as="geometry" />
        </mxCell>
        <mxCell id="vPuBDwLVbH5oFyyP9LaE-14" value="&lt;div&gt;//H5&lt;/div&gt;&lt;div&gt;&amp;nbsp; &amp;nbsp; {&lt;/div&gt;&lt;div&gt;&amp;nbsp; &amp;nbsp; &amp;nbsp; &quot;type&quot;: &quot;h5&quot;,&lt;/div&gt;&lt;div&gt;&amp;nbsp; &amp;nbsp; &amp;nbsp; &quot;module_code&quot;: &quot;模块唯一标识，mis后台计算diff参数之一&quot;,&lt;/div&gt;&lt;div&gt;&amp;nbsp; &amp;nbsp; &amp;nbsp; &quot;module_name&quot;: &quot;模块名称&quot;,&lt;/div&gt;&lt;div&gt;&amp;nbsp; &amp;nbsp; &amp;nbsp; &quot;moudle_version&quot;: &quot;模块版本号&quot;,&lt;/div&gt;&lt;div&gt;&amp;nbsp; &amp;nbsp; &amp;nbsp; &quot;url_map&quot;: [&lt;/div&gt;&lt;div&gt;&amp;nbsp; &amp;nbsp; &amp;nbsp; &amp;nbsp; {&lt;/div&gt;&lt;div&gt;&amp;nbsp; &amp;nbsp; &amp;nbsp; &amp;nbsp; &amp;nbsp; &amp;nbsp;&quot;remote_absolute_path&quot;: &quot;绝对路径(资源url)&quot;,&lt;/div&gt;&lt;div&gt;&amp;nbsp; &amp;nbsp; &amp;nbsp; &amp;nbsp; &amp;nbsp; &quot;remote_relative_path&quot;: &quot;相对路劲&quot;,&lt;/div&gt;&lt;div&gt;&amp;nbsp; &amp;nbsp; &amp;nbsp; &amp;nbsp; &amp;nbsp; &quot;use_offline&quot;: &quot;是否使用离线包资源 0：不缓存 1：缓存&quot;,&lt;/div&gt;&lt;div&gt;&amp;nbsp; &amp;nbsp; &amp;nbsp; &amp;nbsp; &amp;nbsp; &quot;local_path&quot;: &quot;本地路劲&quot;&lt;/div&gt;&lt;div&gt;&amp;nbsp; &amp;nbsp; &amp;nbsp; &amp;nbsp; }&lt;/div&gt;&lt;div&gt;&amp;nbsp; &amp;nbsp; &amp;nbsp; ],&lt;/div&gt;&lt;div&gt;&amp;nbsp; &amp;nbsp; &amp;nbsp; &quot;is_increment&quot;: &quot;本次是否增量下载&quot;,&lt;/div&gt;&lt;div&gt;&amp;nbsp; &amp;nbsp; &amp;nbsp; &quot;md5&quot;: &quot;下载md5，用于校验（防止重复下载和安全性校验)&quot;,&lt;/div&gt;&lt;div&gt;&amp;nbsp; &amp;nbsp; &amp;nbsp; &quot;down_mode&quot;: &quot;下载模式（事件触发、wifi触发、预下载）&quot;,&lt;/div&gt;&lt;div&gt;&amp;nbsp; &amp;nbsp; &amp;nbsp; &quot;module_zip_path&quot;: &quot;整个module的离线包下载地址/增量下载地址&quot;&lt;/div&gt;&lt;div&gt;&amp;nbsp; &amp;nbsp; }&lt;/div&gt;&lt;div&gt;//Thanos&lt;/div&gt;&lt;div&gt;&amp;nbsp; &amp;nbsp; {&lt;/div&gt;&lt;div&gt;&amp;nbsp; &amp;nbsp; &amp;nbsp; &quot;type&quot;: &quot;thanos&quot;,&lt;/div&gt;&lt;div&gt;&amp;nbsp; &amp;nbsp; &amp;nbsp; &quot;module_code&quot;: &quot;模块唯一标识，mis后台计算diff参数之一&quot;,&lt;/div&gt;&lt;div&gt;&amp;nbsp; &amp;nbsp; &amp;nbsp; &quot;module_name&quot;: &quot;模块名称&quot;,&lt;/div&gt;&lt;div&gt;&amp;nbsp; &amp;nbsp; &amp;nbsp; &quot;moudle_version&quot;: &quot;模块版本号&quot;,&lt;/div&gt;&lt;div&gt;&amp;nbsp; &amp;nbsp; &amp;nbsp; &quot;url_map&quot;: [&lt;/div&gt;&lt;div&gt;&amp;nbsp; &amp;nbsp; &amp;nbsp; &amp;nbsp; {&lt;/div&gt;&lt;div&gt;&amp;nbsp; &amp;nbsp; &amp;nbsp; &amp;nbsp; &amp;nbsp; &amp;nbsp;&quot;remote_absolute_path&quot;: &quot;绝对路径(资源url)&quot;,&lt;/div&gt;&lt;div&gt;&amp;nbsp; &amp;nbsp; &amp;nbsp; &amp;nbsp; &amp;nbsp; &amp;nbsp;&quot;remote_relative_path&quot;: &quot;相对路劲&quot;,&lt;/div&gt;&lt;div&gt;&amp;nbsp; &amp;nbsp; &amp;nbsp; &amp;nbsp; &amp;nbsp; &quot;use_offline&quot;: &quot;是否使用离线包资源 0：不缓存 1：缓存&quot;,&lt;/div&gt;&lt;div&gt;&amp;nbsp; &amp;nbsp; &amp;nbsp; &amp;nbsp; &amp;nbsp; &quot;local_path&quot;: &quot;本地路劲&quot;,&lt;/div&gt;&lt;div&gt;&amp;nbsp; &amp;nbsp; &amp;nbsp; &amp;nbsp; &amp;nbsp; &quot;update_path&quot;: &quot;thanos加载js路径(thanos特有)&quot;&lt;/div&gt;&lt;div&gt;&amp;nbsp; &amp;nbsp; &amp;nbsp; &amp;nbsp; }&lt;/div&gt;&lt;div&gt;&amp;nbsp; &amp;nbsp; &amp;nbsp; ],&lt;/div&gt;&lt;div&gt;&amp;nbsp; &amp;nbsp; &amp;nbsp; &quot;is_increment&quot;: &quot;本次是否增量下载&quot;,&lt;/div&gt;&lt;div&gt;&amp;nbsp; &amp;nbsp; &amp;nbsp; &quot;md5&quot;: &quot;下载md5，用于校验（防止重复下载和安全性校验)&quot;,&lt;/div&gt;&lt;div&gt;&amp;nbsp; &amp;nbsp; &amp;nbsp; &quot;down_mode&quot;: &quot;下载模式（事件触发、wifi触发、预下载）&quot;,&lt;/div&gt;&lt;div&gt;&amp;nbsp; &amp;nbsp; &amp;nbsp; &quot;module_zip_path&quot;: &quot;整个module的离线包下载地址/增量下载地址&quot;&lt;/div&gt;&lt;div&gt;&amp;nbsp; &amp;nbsp; }&lt;/div&gt;&lt;div&gt;//Game&lt;/div&gt;&lt;div&gt;&amp;nbsp; &amp;nbsp; {&lt;/div&gt;&lt;div&gt;&amp;nbsp; &amp;nbsp; &amp;nbsp; &quot;type&quot;: &quot;game&quot;,&lt;/div&gt;&lt;div&gt;&amp;nbsp; &amp;nbsp; &amp;nbsp; &quot;module_code&quot;: &quot;模块唯一标识，mis后台计算diff参数之一（同时替代之前的gameId）&quot;,&lt;/div&gt;&lt;div&gt;&amp;nbsp; &amp;nbsp; &amp;nbsp; &quot;module_name&quot;: &quot;模块名称&quot;,&lt;/div&gt;&lt;div&gt;&amp;nbsp; &amp;nbsp; &amp;nbsp; &quot;moudle_version&quot;: &quot;模块版本号&quot;,&lt;/div&gt;&lt;div&gt;&amp;nbsp; &amp;nbsp; &amp;nbsp; &quot;url_map&quot;: [&lt;/div&gt;&lt;div&gt;&amp;nbsp; &amp;nbsp; &amp;nbsp; &amp;nbsp; {&lt;/div&gt;&lt;div&gt;&amp;nbsp; &amp;nbsp; &amp;nbsp; &amp;nbsp; &amp;nbsp; &amp;nbsp;&quot;remote_absolute_path&quot;: &quot;绝对路径(资源url)&quot;,&lt;/div&gt;&lt;div&gt;&amp;nbsp; &amp;nbsp; &amp;nbsp; &amp;nbsp; &amp;nbsp; &quot;remote_relative_path&quot;: &quot;相对路劲&quot;,&lt;/div&gt;&lt;div&gt;&amp;nbsp; &amp;nbsp; &amp;nbsp; &amp;nbsp; &amp;nbsp; &quot;use_offline&quot;: &quot;是否使用离线包资源 0：不缓存 1：缓存&quot;,&lt;/div&gt;&lt;div&gt;&amp;nbsp; &amp;nbsp; &amp;nbsp; &amp;nbsp; &amp;nbsp; &quot;local_path&quot;: &quot;本地路劲&quot;&lt;/div&gt;&lt;div&gt;&amp;nbsp; &amp;nbsp; &amp;nbsp; &amp;nbsp; }&lt;/div&gt;&lt;div&gt;&amp;nbsp; &amp;nbsp; &amp;nbsp; ],&lt;/div&gt;&lt;div&gt;&amp;nbsp; &amp;nbsp; &amp;nbsp; &quot;is_increment&quot;: &quot;本次是否增量下载&quot;,&lt;/div&gt;&lt;div&gt;&amp;nbsp; &amp;nbsp; &amp;nbsp; &quot;md5&quot;: &quot;下载md5，用于校验（防止重复下载和安全性校验)&quot;,&lt;/div&gt;&lt;div&gt;&amp;nbsp; &amp;nbsp; &amp;nbsp; &quot;down_mode&quot;: &quot;下载模式（事件触发、wifi触发、预下载）&quot;,&lt;/div&gt;&lt;div&gt;&amp;nbsp; &amp;nbsp; &amp;nbsp; &quot;module_zip_path&quot;: &quot;整个module的离线包下载地址/增量下载地址&quot;,&lt;/div&gt;&lt;div&gt;&amp;nbsp; &amp;nbsp; &amp;nbsp; &quot;extra&quot;: {&amp;nbsp; //扩展字段，业务方根据字典key获取值&lt;/div&gt;&lt;div&gt;&amp;nbsp; &amp;nbsp; &amp;nbsp; &amp;nbsp; &quot;loadingText&quot;: &quot;加载中。。(加载文案)&quot;,&lt;/div&gt;&lt;div&gt;&amp;nbsp; &amp;nbsp; &amp;nbsp; &amp;nbsp; &quot;loadingIcon&quot;: &quot;加载图片url&quot;,&lt;/div&gt;&lt;div&gt;&amp;nbsp; &amp;nbsp; &amp;nbsp; &amp;nbsp; &quot;bgColor&quot;: &quot;加载背景颜色&quot;,&lt;/div&gt;&lt;div&gt;&amp;nbsp; &amp;nbsp; &amp;nbsp; &amp;nbsp; &quot;textColor&quot;: &quot;文案颜色&quot;&lt;/div&gt;&lt;div&gt;&amp;nbsp; &amp;nbsp; &amp;nbsp; }&lt;/div&gt;&lt;div&gt;&amp;nbsp; &amp;nbsp; }&lt;/div&gt;" style="shape=note;whiteSpace=wrap;html=1;backgroundOutline=1;darkOpacity=0.05;strokeWidth=2;fillColor=#fff2cc;strokeColor=#d6b656;align=left;" parent="-xqtF7sIuRGaCEHhMnnk-1" vertex="1">
          <mxGeometry x="1015" y="-780" width="435" height="930" as="geometry" />
        </mxCell>
        <mxCell id="vPuBDwLVbH5oFyyP9LaE-23" value="" style="edgeStyle=orthogonalEdgeStyle;rounded=0;orthogonalLoop=1;jettySize=auto;html=1;strokeWidth=2;" parent="-xqtF7sIuRGaCEHhMnnk-1" source="vPuBDwLVbH5oFyyP9LaE-26" target="vPuBDwLVbH5oFyyP9LaE-28" edge="1">
          <mxGeometry relative="1" as="geometry" />
        </mxCell>
        <mxCell id="vPuBDwLVbH5oFyyP9LaE-24" value="no" style="edgeLabel;html=1;align=center;verticalAlign=middle;resizable=0;points=[];" parent="vPuBDwLVbH5oFyyP9LaE-23" vertex="1" connectable="0">
          <mxGeometry x="-0.0218" y="1" relative="1" as="geometry">
            <mxPoint as="offset" />
          </mxGeometry>
        </mxCell>
        <mxCell id="vPuBDwLVbH5oFyyP9LaE-25" value="yes" style="edgeStyle=orthogonalEdgeStyle;rounded=0;orthogonalLoop=1;jettySize=auto;html=1;strokeWidth=2;entryX=0;entryY=0.5;entryDx=0;entryDy=0;" parent="-xqtF7sIuRGaCEHhMnnk-1" source="vPuBDwLVbH5oFyyP9LaE-26" target="vPuBDwLVbH5oFyyP9LaE-43" edge="1">
          <mxGeometry relative="1" as="geometry">
            <mxPoint x="1128" y="450" as="targetPoint" />
          </mxGeometry>
        </mxCell>
        <mxCell id="vPuBDwLVbH5oFyyP9LaE-26" value="判断本地是否存在module离线包" style="rhombus;whiteSpace=wrap;html=1;rounded=1;strokeWidth=2;" parent="-xqtF7sIuRGaCEHhMnnk-1" vertex="1">
          <mxGeometry x="930" y="410" width="117.5" height="80" as="geometry" />
        </mxCell>
        <mxCell id="vPuBDwLVbH5oFyyP9LaE-27" value="" style="edgeStyle=orthogonalEdgeStyle;rounded=0;orthogonalLoop=1;jettySize=auto;html=1;strokeWidth=2;" parent="-xqtF7sIuRGaCEHhMnnk-1" source="vPuBDwLVbH5oFyyP9LaE-28" target="vPuBDwLVbH5oFyyP9LaE-35" edge="1">
          <mxGeometry relative="1" as="geometry">
            <mxPoint x="990" y="650" as="targetPoint" />
          </mxGeometry>
        </mxCell>
        <mxCell id="vPuBDwLVbH5oFyyP9LaE-28" value="新增module" style="whiteSpace=wrap;html=1;rounded=1;strokeWidth=2;" parent="-xqtF7sIuRGaCEHhMnnk-1" vertex="1">
          <mxGeometry x="930" y="565" width="120" height="60" as="geometry" />
        </mxCell>
        <mxCell id="vPuBDwLVbH5oFyyP9LaE-29" style="edgeStyle=orthogonalEdgeStyle;rounded=0;orthogonalLoop=1;jettySize=auto;html=1;exitX=0;exitY=0.5;exitDx=0;exitDy=0;entryX=0.5;entryY=1;entryDx=0;entryDy=0;strokeWidth=2;" parent="-xqtF7sIuRGaCEHhMnnk-1" source="vPuBDwLVbH5oFyyP9LaE-35" target="vPuBDwLVbH5oFyyP9LaE-10" edge="1">
          <mxGeometry relative="1" as="geometry" />
        </mxCell>
        <mxCell id="vPuBDwLVbH5oFyyP9LaE-35" value="下载离线包zip" style="whiteSpace=wrap;html=1;rounded=1;strokeWidth=2;" parent="-xqtF7sIuRGaCEHhMnnk-1" vertex="1">
          <mxGeometry x="930" y="700" width="120" height="60" as="geometry" />
        </mxCell>
        <mxCell id="vPuBDwLVbH5oFyyP9LaE-36" style="edgeStyle=orthogonalEdgeStyle;rounded=0;orthogonalLoop=1;jettySize=auto;html=1;exitX=0;exitY=0.5;exitDx=0;exitDy=0;entryX=0.5;entryY=1;entryDx=0;entryDy=0;strokeWidth=2;" parent="-xqtF7sIuRGaCEHhMnnk-1" source="vPuBDwLVbH5oFyyP9LaE-38" target="vPuBDwLVbH5oFyyP9LaE-10" edge="1">
          <mxGeometry relative="1" as="geometry" />
        </mxCell>
        <mxCell id="vPuBDwLVbH5oFyyP9LaE-37" value="更新数据库和内存信息" style="edgeLabel;html=1;align=center;verticalAlign=middle;resizable=0;points=[];" parent="vPuBDwLVbH5oFyyP9LaE-36" vertex="1" connectable="0">
          <mxGeometry x="0.7376" y="3" relative="1" as="geometry">
            <mxPoint as="offset" />
          </mxGeometry>
        </mxCell>
        <mxCell id="vPuBDwLVbH5oFyyP9LaE-38" value="查找本地并删除" style="whiteSpace=wrap;html=1;rounded=1;strokeWidth=2;" parent="-xqtF7sIuRGaCEHhMnnk-1" vertex="1">
          <mxGeometry x="1660" y="810" width="120" height="60" as="geometry" />
        </mxCell>
        <mxCell id="vPuBDwLVbH5oFyyP9LaE-41" style="edgeStyle=orthogonalEdgeStyle;rounded=0;orthogonalLoop=1;jettySize=auto;html=1;exitX=1;exitY=0.5;exitDx=0;exitDy=0;entryX=0.5;entryY=0;entryDx=0;entryDy=0;strokeWidth=2;" parent="-xqtF7sIuRGaCEHhMnnk-1" source="vPuBDwLVbH5oFyyP9LaE-43" target="vPuBDwLVbH5oFyyP9LaE-38" edge="1">
          <mxGeometry relative="1" as="geometry" />
        </mxCell>
        <mxCell id="vPuBDwLVbH5oFyyP9LaE-42" value="yes" style="edgeLabel;html=1;align=center;verticalAlign=middle;resizable=0;points=[];" parent="vPuBDwLVbH5oFyyP9LaE-41" vertex="1" connectable="0">
          <mxGeometry x="0.0261" y="4" relative="1" as="geometry">
            <mxPoint as="offset" />
          </mxGeometry>
        </mxCell>
        <mxCell id="YcwgNCK_tIEk0k5z12io-1" value="" style="edgeStyle=orthogonalEdgeStyle;rounded=0;orthogonalLoop=1;jettySize=auto;html=1;strokeWidth=2;" parent="-xqtF7sIuRGaCEHhMnnk-1" source="vPuBDwLVbH5oFyyP9LaE-43" target="YcwgNCK_tIEk0k5z12io-0" edge="1">
          <mxGeometry relative="1" as="geometry" />
        </mxCell>
        <mxCell id="YcwgNCK_tIEk0k5z12io-11" value="no" style="edgeLabel;html=1;align=center;verticalAlign=middle;resizable=0;points=[];" parent="YcwgNCK_tIEk0k5z12io-1" vertex="1" connectable="0">
          <mxGeometry x="-0.2727" y="-1" relative="1" as="geometry">
            <mxPoint as="offset" />
          </mxGeometry>
        </mxCell>
        <mxCell id="vPuBDwLVbH5oFyyP9LaE-43" value="module离线包是否需要回滚或删除" style="rhombus;whiteSpace=wrap;html=1;rounded=1;strokeWidth=2;" parent="-xqtF7sIuRGaCEHhMnnk-1" vertex="1">
          <mxGeometry x="1284.5" y="415" width="169" height="70" as="geometry" />
        </mxCell>
        <mxCell id="vPuBDwLVbH5oFyyP9LaE-44" style="edgeStyle=orthogonalEdgeStyle;rounded=0;orthogonalLoop=1;jettySize=auto;html=1;strokeWidth=2;" parent="-xqtF7sIuRGaCEHhMnnk-1" source="vPuBDwLVbH5oFyyP9LaE-1" target="vPuBDwLVbH5oFyyP9LaE-8" edge="1">
          <mxGeometry relative="1" as="geometry">
            <mxPoint x="140" y="230" as="sourcePoint" />
          </mxGeometry>
        </mxCell>
        <mxCell id="vPuBDwLVbH5oFyyP9LaE-46" value="" style="edgeStyle=orthogonalEdgeStyle;rounded=0;orthogonalLoop=1;jettySize=auto;html=1;strokeWidth=2;" parent="-xqtF7sIuRGaCEHhMnnk-1" source="vPuBDwLVbH5oFyyP9LaE-47" target="vPuBDwLVbH5oFyyP9LaE-52" edge="1">
          <mxGeometry relative="1" as="geometry">
            <mxPoint x="170" y="1190" as="targetPoint" />
          </mxGeometry>
        </mxCell>
        <mxCell id="vPuBDwLVbH5oFyyP9LaE-47" value="下载离线包zip" style="whiteSpace=wrap;html=1;rounded=1;strokeWidth=2;" parent="-xqtF7sIuRGaCEHhMnnk-1" vertex="1">
          <mxGeometry x="151.25" y="1040" width="120" height="60" as="geometry" />
        </mxCell>
        <mxCell id="vPuBDwLVbH5oFyyP9LaE-48" value="" style="edgeStyle=orthogonalEdgeStyle;rounded=0;orthogonalLoop=1;jettySize=auto;html=1;strokeWidth=2;entryX=0;entryY=0.5;entryDx=0;entryDy=0;" parent="-xqtF7sIuRGaCEHhMnnk-1" source="vPuBDwLVbH5oFyyP9LaE-52" target="vPuBDwLVbH5oFyyP9LaE-64" edge="1">
          <mxGeometry relative="1" as="geometry">
            <mxPoint x="372.5" y="1190" as="targetPoint" />
          </mxGeometry>
        </mxCell>
        <mxCell id="vPuBDwLVbH5oFyyP9LaE-49" value="预下载" style="edgeLabel;html=1;align=center;verticalAlign=middle;resizable=0;points=[];" parent="vPuBDwLVbH5oFyyP9LaE-48" vertex="1" connectable="0">
          <mxGeometry x="-0.0439" y="4" relative="1" as="geometry">
            <mxPoint as="offset" />
          </mxGeometry>
        </mxCell>
        <mxCell id="vPuBDwLVbH5oFyyP9LaE-50" value="" style="edgeStyle=orthogonalEdgeStyle;rounded=0;orthogonalLoop=1;jettySize=auto;html=1;strokeWidth=2;" parent="-xqtF7sIuRGaCEHhMnnk-1" source="vPuBDwLVbH5oFyyP9LaE-52" target="vPuBDwLVbH5oFyyP9LaE-68" edge="1">
          <mxGeometry relative="1" as="geometry" />
        </mxCell>
        <mxCell id="vPuBDwLVbH5oFyyP9LaE-51" value="wifi" style="edgeLabel;html=1;align=center;verticalAlign=middle;resizable=0;points=[];" parent="vPuBDwLVbH5oFyyP9LaE-50" vertex="1" connectable="0">
          <mxGeometry x="-0.0037" y="-1" relative="1" as="geometry">
            <mxPoint as="offset" />
          </mxGeometry>
        </mxCell>
        <mxCell id="vPuBDwLVbH5oFyyP9LaE-52" value="是否预下载/wifi/事件&lt;br&gt;&lt;span style=&quot;background-color: rgb(229 , 255 , 99)&quot;&gt;其中事件下载暴露给业务方&lt;/span&gt;" style="rhombus;whiteSpace=wrap;html=1;rounded=1;strokeWidth=2;" parent="-xqtF7sIuRGaCEHhMnnk-1" vertex="1">
          <mxGeometry x="152.5" y="1150" width="117.5" height="80" as="geometry" />
        </mxCell>
        <mxCell id="vPuBDwLVbH5oFyyP9LaE-53" value="结束" style="strokeWidth=2;html=1;shape=mxgraph.flowchart.terminator;whiteSpace=wrap;" parent="-xqtF7sIuRGaCEHhMnnk-1" vertex="1">
          <mxGeometry x="350" y="1540" width="100" height="60" as="geometry" />
        </mxCell>
        <mxCell id="vPuBDwLVbH5oFyyP9LaE-62" style="edgeStyle=orthogonalEdgeStyle;rounded=0;orthogonalLoop=1;jettySize=auto;html=1;exitX=1;exitY=0.5;exitDx=0;exitDy=0;entryX=0;entryY=0.5;entryDx=0;entryDy=0;strokeWidth=2;" parent="-xqtF7sIuRGaCEHhMnnk-1" source="vPuBDwLVbH5oFyyP9LaE-64" target="vPuBDwLVbH5oFyyP9LaE-66" edge="1">
          <mxGeometry relative="1" as="geometry" />
        </mxCell>
        <mxCell id="vPuBDwLVbH5oFyyP9LaE-63" value="&lt;span style=&quot;font-size: 12px ; text-align: left ; background-color: rgb(248 , 249 , 250)&quot;&gt;moduleZipPath&lt;/span&gt;" style="edgeLabel;html=1;align=center;verticalAlign=middle;resizable=0;points=[];" parent="vPuBDwLVbH5oFyyP9LaE-62" vertex="1" connectable="0">
          <mxGeometry x="-0.6308" relative="1" as="geometry">
            <mxPoint x="35" as="offset" />
          </mxGeometry>
        </mxCell>
        <mxCell id="vPuBDwLVbH5oFyyP9LaE-64" value="&lt;span style=&quot;font-size: 11px ; background-color: rgb(255 , 255 , 255)&quot;&gt;zip下载&lt;/span&gt;" style="whiteSpace=wrap;html=1;rounded=1;strokeWidth=2;" parent="-xqtF7sIuRGaCEHhMnnk-1" vertex="1">
          <mxGeometry x="360" y="1160" width="120" height="60" as="geometry" />
        </mxCell>
        <mxCell id="vPuBDwLVbH5oFyyP9LaE-65" value="" style="edgeStyle=orthogonalEdgeStyle;rounded=0;orthogonalLoop=1;jettySize=auto;html=1;strokeWidth=2;" parent="-xqtF7sIuRGaCEHhMnnk-1" source="vPuBDwLVbH5oFyyP9LaE-66" target="vPuBDwLVbH5oFyyP9LaE-73" edge="1">
          <mxGeometry relative="1" as="geometry" />
        </mxCell>
        <mxCell id="vPuBDwLVbH5oFyyP9LaE-66" value="downloadZip" style="whiteSpace=wrap;html=1;rounded=1;strokeWidth=2;" parent="-xqtF7sIuRGaCEHhMnnk-1" vertex="1">
          <mxGeometry x="615" y="1160" width="120" height="60" as="geometry" />
        </mxCell>
        <mxCell id="vPuBDwLVbH5oFyyP9LaE-67" style="edgeStyle=orthogonalEdgeStyle;rounded=0;orthogonalLoop=1;jettySize=auto;html=1;exitX=0;exitY=0.5;exitDx=0;exitDy=0;entryX=0;entryY=0.5;entryDx=0;entryDy=0;strokeWidth=2;" parent="-xqtF7sIuRGaCEHhMnnk-1" source="vPuBDwLVbH5oFyyP9LaE-68" target="vPuBDwLVbH5oFyyP9LaE-52" edge="1">
          <mxGeometry relative="1" as="geometry">
            <Array as="points">
              <mxPoint x="110" y="1350" />
              <mxPoint x="110" y="1190" />
            </Array>
          </mxGeometry>
        </mxCell>
        <mxCell id="vPuBDwLVbH5oFyyP9LaE-68" value="注册WIFI监听" style="whiteSpace=wrap;html=1;rounded=1;strokeWidth=2;" parent="-xqtF7sIuRGaCEHhMnnk-1" vertex="1">
          <mxGeometry x="151.25" y="1320" width="120" height="60" as="geometry" />
        </mxCell>
        <mxCell id="vPuBDwLVbH5oFyyP9LaE-69" value="" style="edgeStyle=orthogonalEdgeStyle;rounded=0;orthogonalLoop=1;jettySize=auto;html=1;strokeWidth=2;" parent="-xqtF7sIuRGaCEHhMnnk-1" source="vPuBDwLVbH5oFyyP9LaE-73" target="vPuBDwLVbH5oFyyP9LaE-76" edge="1">
          <mxGeometry relative="1" as="geometry" />
        </mxCell>
        <mxCell id="vPuBDwLVbH5oFyyP9LaE-70" value="no" style="edgeLabel;html=1;align=center;verticalAlign=middle;resizable=0;points=[];" parent="vPuBDwLVbH5oFyyP9LaE-69" vertex="1" connectable="0">
          <mxGeometry x="-0.2" y="2" relative="1" as="geometry">
            <mxPoint x="-15" y="2" as="offset" />
          </mxGeometry>
        </mxCell>
        <mxCell id="vPuBDwLVbH5oFyyP9LaE-71" value="" style="edgeStyle=orthogonalEdgeStyle;rounded=0;orthogonalLoop=1;jettySize=auto;html=1;strokeWidth=2;" parent="-xqtF7sIuRGaCEHhMnnk-1" source="vPuBDwLVbH5oFyyP9LaE-73" target="vPuBDwLVbH5oFyyP9LaE-83" edge="1">
          <mxGeometry relative="1" as="geometry" />
        </mxCell>
        <mxCell id="vPuBDwLVbH5oFyyP9LaE-72" value="yes" style="edgeLabel;html=1;align=center;verticalAlign=middle;resizable=0;points=[];" parent="vPuBDwLVbH5oFyyP9LaE-71" vertex="1" connectable="0">
          <mxGeometry x="-0.4" y="-1" relative="1" as="geometry">
            <mxPoint as="offset" />
          </mxGeometry>
        </mxCell>
        <mxCell id="vPuBDwLVbH5oFyyP9LaE-73" value="本地是否存在文件" style="rhombus;whiteSpace=wrap;html=1;rounded=1;strokeWidth=2;" parent="-xqtF7sIuRGaCEHhMnnk-1" vertex="1">
          <mxGeometry x="600" y="1280" width="150" height="70" as="geometry" />
        </mxCell>
        <mxCell id="vPuBDwLVbH5oFyyP9LaE-74" style="edgeStyle=orthogonalEdgeStyle;rounded=0;orthogonalLoop=1;jettySize=auto;html=1;exitX=0.5;exitY=1;exitDx=0;exitDy=0;entryX=1;entryY=0.5;entryDx=0;entryDy=0;strokeWidth=2;" parent="-xqtF7sIuRGaCEHhMnnk-1" source="vPuBDwLVbH5oFyyP9LaE-76" target="vPuBDwLVbH5oFyyP9LaE-78" edge="1">
          <mxGeometry relative="1" as="geometry" />
        </mxCell>
        <mxCell id="vPuBDwLVbH5oFyyP9LaE-75" value="下载成功" style="edgeLabel;html=1;align=center;verticalAlign=middle;resizable=0;points=[];" parent="vPuBDwLVbH5oFyyP9LaE-74" vertex="1" connectable="0">
          <mxGeometry x="-0.5121" relative="1" as="geometry">
            <mxPoint as="offset" />
          </mxGeometry>
        </mxCell>
        <mxCell id="vPuBDwLVbH5oFyyP9LaE-76" value="excuteDownload" style="whiteSpace=wrap;html=1;rounded=1;strokeWidth=2;" parent="-xqtF7sIuRGaCEHhMnnk-1" vertex="1">
          <mxGeometry x="905" y="1285" width="120" height="60" as="geometry" />
        </mxCell>
        <mxCell id="vPuBDwLVbH5oFyyP9LaE-77" style="edgeStyle=orthogonalEdgeStyle;rounded=0;orthogonalLoop=1;jettySize=auto;html=1;exitX=0;exitY=0.5;exitDx=0;exitDy=0;entryX=1;entryY=0.5;entryDx=0;entryDy=0;entryPerimeter=0;strokeWidth=2;" parent="-xqtF7sIuRGaCEHhMnnk-1" source="vPuBDwLVbH5oFyyP9LaE-78" target="vPuBDwLVbH5oFyyP9LaE-53" edge="1">
          <mxGeometry relative="1" as="geometry" />
        </mxCell>
        <mxCell id="vPuBDwLVbH5oFyyP9LaE-78" value="解压文件并删除zip" style="whiteSpace=wrap;html=1;rounded=1;strokeWidth=2;" parent="-xqtF7sIuRGaCEHhMnnk-1" vertex="1">
          <mxGeometry x="615" y="1540" width="120" height="60" as="geometry" />
        </mxCell>
        <mxCell id="vPuBDwLVbH5oFyyP9LaE-79" style="edgeStyle=orthogonalEdgeStyle;rounded=0;orthogonalLoop=1;jettySize=auto;html=1;exitX=0.5;exitY=1;exitDx=0;exitDy=0;strokeWidth=2;" parent="-xqtF7sIuRGaCEHhMnnk-1" source="vPuBDwLVbH5oFyyP9LaE-83" target="vPuBDwLVbH5oFyyP9LaE-78" edge="1">
          <mxGeometry relative="1" as="geometry" />
        </mxCell>
        <mxCell id="vPuBDwLVbH5oFyyP9LaE-80" value="yes" style="edgeLabel;html=1;align=center;verticalAlign=middle;resizable=0;points=[];" parent="vPuBDwLVbH5oFyyP9LaE-79" vertex="1" connectable="0">
          <mxGeometry x="-0.05" y="2" relative="1" as="geometry">
            <mxPoint as="offset" />
          </mxGeometry>
        </mxCell>
        <mxCell id="vPuBDwLVbH5oFyyP9LaE-81" value="" style="edgeStyle=orthogonalEdgeStyle;rounded=0;orthogonalLoop=1;jettySize=auto;html=1;strokeWidth=2;" parent="-xqtF7sIuRGaCEHhMnnk-1" source="vPuBDwLVbH5oFyyP9LaE-83" target="vPuBDwLVbH5oFyyP9LaE-85" edge="1">
          <mxGeometry relative="1" as="geometry" />
        </mxCell>
        <mxCell id="vPuBDwLVbH5oFyyP9LaE-82" value="no" style="edgeLabel;html=1;align=center;verticalAlign=middle;resizable=0;points=[];" parent="vPuBDwLVbH5oFyyP9LaE-81" vertex="1" connectable="0">
          <mxGeometry x="-0.3333" y="-1" relative="1" as="geometry">
            <mxPoint as="offset" />
          </mxGeometry>
        </mxCell>
        <mxCell id="vPuBDwLVbH5oFyyP9LaE-83" value="检测本地文件MD5是否相同" style="rhombus;whiteSpace=wrap;html=1;rounded=1;strokeWidth=2;" parent="-xqtF7sIuRGaCEHhMnnk-1" vertex="1">
          <mxGeometry x="600" y="1390" width="150" height="70" as="geometry" />
        </mxCell>
        <mxCell id="vPuBDwLVbH5oFyyP9LaE-84" style="edgeStyle=orthogonalEdgeStyle;rounded=0;orthogonalLoop=1;jettySize=auto;html=1;exitX=0.5;exitY=0;exitDx=0;exitDy=0;entryX=0;entryY=0.5;entryDx=0;entryDy=0;strokeWidth=2;" parent="-xqtF7sIuRGaCEHhMnnk-1" source="vPuBDwLVbH5oFyyP9LaE-85" target="vPuBDwLVbH5oFyyP9LaE-76" edge="1">
          <mxGeometry relative="1" as="geometry" />
        </mxCell>
        <mxCell id="vPuBDwLVbH5oFyyP9LaE-85" value="删除本地文件" style="whiteSpace=wrap;html=1;rounded=1;strokeWidth=2;" parent="-xqtF7sIuRGaCEHhMnnk-1" vertex="1">
          <mxGeometry x="795" y="1395" width="120" height="60" as="geometry" />
        </mxCell>
        <mxCell id="YcwgNCK_tIEk0k5z12io-3" value="" style="edgeStyle=orthogonalEdgeStyle;rounded=0;orthogonalLoop=1;jettySize=auto;html=1;strokeWidth=2;" parent="-xqtF7sIuRGaCEHhMnnk-1" source="YcwgNCK_tIEk0k5z12io-0" target="YcwgNCK_tIEk0k5z12io-2" edge="1">
          <mxGeometry relative="1" as="geometry" />
        </mxCell>
        <mxCell id="YcwgNCK_tIEk0k5z12io-4" value="yes" style="edgeLabel;html=1;align=center;verticalAlign=middle;resizable=0;points=[];" parent="YcwgNCK_tIEk0k5z12io-3" vertex="1" connectable="0">
          <mxGeometry x="-0.35" y="1" relative="1" as="geometry">
            <mxPoint as="offset" />
          </mxGeometry>
        </mxCell>
        <mxCell id="YcwgNCK_tIEk0k5z12io-8" value="" style="edgeStyle=orthogonalEdgeStyle;rounded=0;orthogonalLoop=1;jettySize=auto;html=1;strokeWidth=2;" parent="-xqtF7sIuRGaCEHhMnnk-1" source="YcwgNCK_tIEk0k5z12io-0" target="YcwgNCK_tIEk0k5z12io-7" edge="1">
          <mxGeometry relative="1" as="geometry" />
        </mxCell>
        <mxCell id="YcwgNCK_tIEk0k5z12io-9" value="no" style="edgeLabel;html=1;align=center;verticalAlign=middle;resizable=0;points=[];" parent="YcwgNCK_tIEk0k5z12io-8" vertex="1" connectable="0">
          <mxGeometry x="-0.2889" y="1" relative="1" as="geometry">
            <mxPoint as="offset" />
          </mxGeometry>
        </mxCell>
        <mxCell id="YcwgNCK_tIEk0k5z12io-0" value="是否增量更新is_increment" style="rhombus;whiteSpace=wrap;html=1;rounded=1;strokeWidth=2;" parent="-xqtF7sIuRGaCEHhMnnk-1" vertex="1">
          <mxGeometry x="1284.5" y="560" width="169" height="70" as="geometry" />
        </mxCell>
        <mxCell id="YcwgNCK_tIEk0k5z12io-14" style="edgeStyle=orthogonalEdgeStyle;rounded=0;orthogonalLoop=1;jettySize=auto;html=1;exitX=0;exitY=0.5;exitDx=0;exitDy=0;entryX=1;entryY=0.5;entryDx=0;entryDy=0;strokeWidth=2;" parent="-xqtF7sIuRGaCEHhMnnk-1" source="YcwgNCK_tIEk0k5z12io-2" target="vPuBDwLVbH5oFyyP9LaE-35" edge="1">
          <mxGeometry relative="1" as="geometry" />
        </mxCell>
        <mxCell id="YcwgNCK_tIEk0k5z12io-15" value="moduleZipPath增量下载地址" style="edgeLabel;html=1;align=center;verticalAlign=middle;resizable=0;points=[];" parent="YcwgNCK_tIEk0k5z12io-14" vertex="1" connectable="0">
          <mxGeometry x="-0.4243" y="-2" relative="1" as="geometry">
            <mxPoint x="-4" as="offset" />
          </mxGeometry>
        </mxCell>
        <mxCell id="YcwgNCK_tIEk0k5z12io-2" value="merge info.conf配置" style="whiteSpace=wrap;html=1;rounded=1;strokeWidth=2;" parent="-xqtF7sIuRGaCEHhMnnk-1" vertex="1">
          <mxGeometry x="1309" y="700" width="120" height="60" as="geometry" />
        </mxCell>
        <mxCell id="YcwgNCK_tIEk0k5z12io-10" style="edgeStyle=orthogonalEdgeStyle;rounded=0;orthogonalLoop=1;jettySize=auto;html=1;exitX=0.5;exitY=1;exitDx=0;exitDy=0;entryX=1;entryY=0.5;entryDx=0;entryDy=0;strokeWidth=2;" parent="-xqtF7sIuRGaCEHhMnnk-1" source="YcwgNCK_tIEk0k5z12io-7" target="vPuBDwLVbH5oFyyP9LaE-35" edge="1">
          <mxGeometry relative="1" as="geometry" />
        </mxCell>
        <mxCell id="YcwgNCK_tIEk0k5z12io-7" value="删除本地对应module离线包" style="whiteSpace=wrap;html=1;rounded=1;strokeWidth=2;" parent="-xqtF7sIuRGaCEHhMnnk-1" vertex="1">
          <mxGeometry x="1082.5" y="565" width="120" height="60" as="geometry" />
        </mxCell>
        <mxCell id="YcwgNCK_tIEk0k5z12io-12" value="&lt;br&gt;&lt;br&gt;&lt;br&gt;merge规则：&lt;br&gt;&lt;br&gt;1.取出本地保存info.conf配置文件的url_map数组，根据remote_path作为key和远程拉取info.conf比对，相同则使用远程数据覆盖；不同则新老都保存。&lt;br&gt;2.其他数据数据使用远程配置数据保存&lt;br&gt;&lt;br&gt;&lt;br&gt;" style="shape=note;whiteSpace=wrap;html=1;backgroundOutline=1;darkOpacity=0.05;fillColor=#fff2cc;strokeColor=#d6b656;align=left;" parent="-xqtF7sIuRGaCEHhMnnk-1" vertex="1">
          <mxGeometry x="1510" y="610" width="170" height="170" as="geometry" />
        </mxCell>
        <mxCell id="YcwgNCK_tIEk0k5z12io-13" value="" style="shape=singleArrow;direction=west;whiteSpace=wrap;html=1;strokeWidth=2;" parent="-xqtF7sIuRGaCEHhMnnk-1" vertex="1">
          <mxGeometry x="1440" y="720" width="60" height="20" as="geometry" />
        </mxCell>
        <mxCell id="iVoLokeWMwHunrRpb-uh-1" style="edgeStyle=orthogonalEdgeStyle;rounded=0;orthogonalLoop=1;jettySize=auto;html=1;exitX=0.5;exitY=1;exitDx=0;exitDy=0;exitPerimeter=0;entryX=0.5;entryY=0;entryDx=0;entryDy=0;strokeWidth=2;" parent="-xqtF7sIuRGaCEHhMnnk-1" source="iVoLokeWMwHunrRpb-uh-0" target="vPuBDwLVbH5oFyyP9LaE-3" edge="1">
          <mxGeometry relative="1" as="geometry" />
        </mxCell>
        <mxCell id="iVoLokeWMwHunrRpb-uh-0" value="&lt;div&gt;{&lt;/div&gt;&lt;div&gt;&amp;nbsp; &quot;error&quot;: 0,&lt;/div&gt;&lt;div&gt;&amp;nbsp; &quot;errmsg&quot;: &quot;&quot;,&lt;/div&gt;&lt;div&gt;&amp;nbsp; &quot;data&quot;: [&lt;/div&gt;&lt;div&gt;&amp;nbsp; &amp;nbsp; {&lt;/div&gt;&lt;div&gt;&amp;nbsp; &amp;nbsp; &amp;nbsp; &quot;type&quot;: &quot;h5&quot;,&lt;/div&gt;&lt;div&gt;&amp;nbsp; &amp;nbsp; &amp;nbsp; &quot;module_code&quot;: &quot;模块唯一标识，mis后台计算diff参数之一&quot;,&lt;/div&gt;&lt;div&gt;&amp;nbsp; &amp;nbsp; &amp;nbsp; &quot;module_name&quot;: &quot;模块名称&quot;,&lt;/div&gt;&lt;div&gt;&amp;nbsp; &amp;nbsp; &amp;nbsp; &quot;moudle_version&quot;: &quot;模块版本号&quot;,&lt;/div&gt;&lt;div&gt;&amp;nbsp; &amp;nbsp; &amp;nbsp; &quot;module_zip_path&quot;: &quot;配置文件 and 首包资源&quot;&lt;/div&gt;&lt;div&gt;&amp;nbsp; &amp;nbsp; },&lt;/div&gt;&lt;div&gt;&amp;nbsp; &amp;nbsp; {&lt;/div&gt;&lt;div&gt;&amp;nbsp; &amp;nbsp; &amp;nbsp; &quot;type&quot;: &quot;thanos&quot;,&lt;/div&gt;&lt;div&gt;&amp;nbsp; &amp;nbsp; &amp;nbsp; &quot;module_code&quot;: &quot;模块唯一标识，mis后台计算diff参数之一&quot;,&lt;/div&gt;&lt;div&gt;&amp;nbsp; &amp;nbsp; &amp;nbsp; &quot;module_name&quot;: &quot;模块名称&quot;,&lt;/div&gt;&lt;div&gt;&amp;nbsp; &amp;nbsp; &amp;nbsp; &quot;moudle_version&quot;: &quot;模块版本号&quot;,&lt;/div&gt;&lt;div&gt;&amp;nbsp; &amp;nbsp; &amp;nbsp; &quot;module_zip_path&quot;: &quot;配置文件 and 首包资源&quot;&lt;/div&gt;&lt;div&gt;&amp;nbsp; &amp;nbsp; },&lt;/div&gt;&lt;div&gt;&amp;nbsp; &amp;nbsp; {&lt;/div&gt;&lt;div&gt;&amp;nbsp; &amp;nbsp; &amp;nbsp; &quot;type&quot;: &quot;game&quot;,&lt;/div&gt;&lt;div&gt;&amp;nbsp; &amp;nbsp; &amp;nbsp; &quot;module_code&quot;: &quot;模块唯一标识，mis后台计算diff参数之一（同时替代之前的gameId）&quot;,&lt;/div&gt;&lt;div&gt;&amp;nbsp; &amp;nbsp; &amp;nbsp; &quot;module_name&quot;: &quot;模块名称&quot;,&lt;/div&gt;&lt;div&gt;&amp;nbsp; &amp;nbsp; &amp;nbsp; &quot;moudle_version&quot;: &quot;模块版本号&quot;,&lt;/div&gt;&lt;div&gt;&amp;nbsp; &amp;nbsp; &amp;nbsp; &quot;module_zip_path&quot;: &quot;配置文件 and 首包资源&quot;&lt;/div&gt;&lt;div&gt;&amp;nbsp; &amp;nbsp; }&lt;/div&gt;&lt;div&gt;&amp;nbsp; ]&lt;/div&gt;&lt;div&gt;}&lt;/div&gt;" style="shape=note;whiteSpace=wrap;html=1;backgroundOutline=1;darkOpacity=0.05;strokeWidth=2;fillColor=#fff2cc;strokeColor=#d6b656;align=left;" parent="-xqtF7sIuRGaCEHhMnnk-1" vertex="1">
          <mxGeometry x="390" y="-290" width="280" height="440" as="geometry" />
        </mxCell>
        <mxCell id="iVoLokeWMwHunrRpb-uh-7" value="" style="edgeStyle=orthogonalEdgeStyle;rounded=0;orthogonalLoop=1;jettySize=auto;html=1;strokeWidth=2;" parent="-xqtF7sIuRGaCEHhMnnk-1" source="iVoLokeWMwHunrRpb-uh-4" target="iVoLokeWMwHunrRpb-uh-6" edge="1">
          <mxGeometry relative="1" as="geometry" />
        </mxCell>
        <mxCell id="iVoLokeWMwHunrRpb-uh-4" value="解析配置" style="whiteSpace=wrap;html=1;rounded=1;strokeWidth=2;" parent="-xqtF7sIuRGaCEHhMnnk-1" vertex="1">
          <mxGeometry x="730" y="200" width="120" height="60" as="geometry" />
        </mxCell>
        <mxCell id="iVoLokeWMwHunrRpb-uh-9" style="edgeStyle=orthogonalEdgeStyle;rounded=0;orthogonalLoop=1;jettySize=auto;html=1;exitX=1;exitY=0.5;exitDx=0;exitDy=0;entryX=0;entryY=0.5;entryDx=0;entryDy=0;strokeWidth=2;" parent="-xqtF7sIuRGaCEHhMnnk-1" source="iVoLokeWMwHunrRpb-uh-6" target="vPuBDwLVbH5oFyyP9LaE-12" edge="1">
          <mxGeometry relative="1" as="geometry" />
        </mxCell>
        <mxCell id="iVoLokeWMwHunrRpb-uh-6" value="根据&lt;span style=&quot;text-align: left&quot;&gt;module_zip_path&lt;br&gt;下载moudle配置文件&lt;b&gt;info.conf和首包离线包&lt;/b&gt;&lt;br&gt;&lt;/span&gt;" style="whiteSpace=wrap;html=1;rounded=1;strokeWidth=2;" parent="-xqtF7sIuRGaCEHhMnnk-1" vertex="1">
          <mxGeometry x="940" y="200" width="120" height="60" as="geometry" />
        </mxCell>
      </root>
    </mxGraphModel>
  </diagram>
  <diagram id="QK7v3P242GSs1ZlD5zi-" name="三期">
    <mxGraphModel dx="1042" dy="1724" grid="1" gridSize="10" guides="1" tooltips="1" connect="1" arrows="1" fold="1" page="1" pageScale="1" pageWidth="1654" pageHeight="1169" math="0" shadow="0">
      <root>
        <mxCell id="LsmdyYilQ7khlSyOfKwx-0" />
        <mxCell id="LsmdyYilQ7khlSyOfKwx-1" parent="LsmdyYilQ7khlSyOfKwx-0" />
        <mxCell id="s4kFzeR5fK_37KerpDi0-0" value="App启动" style="rounded=1;whiteSpace=wrap;html=1;strokeWidth=2;" parent="LsmdyYilQ7khlSyOfKwx-1" vertex="1">
          <mxGeometry x="20" y="200" width="120" height="60" as="geometry" />
        </mxCell>
        <mxCell id="s4kFzeR5fK_37KerpDi0-1" value="" style="edgeStyle=orthogonalEdgeStyle;rounded=0;orthogonalLoop=1;jettySize=auto;html=1;strokeWidth=2;" parent="LsmdyYilQ7khlSyOfKwx-1" source="s4kFzeR5fK_37KerpDi0-2" target="s4kFzeR5fK_37KerpDi0-78" edge="1">
          <mxGeometry relative="1" as="geometry" />
        </mxCell>
        <mxCell id="s4kFzeR5fK_37KerpDi0-2" value="请求&lt;span style=&quot;color: rgba(0 , 0 , 0 , 0.85) ; font-family: , &amp;#34;blinkmacsystemfont&amp;#34; , &amp;#34;pingfang sc&amp;#34; , &amp;#34;apple color emoji&amp;#34; , &amp;#34;helvetica&amp;#34; , &amp;#34;tahoma&amp;#34; , &amp;#34;arial&amp;#34; , &amp;#34;hiragino sans gb&amp;#34; , &amp;#34;microsoft yahei&amp;#34; , , sans-serif ; font-size: 18.6667px ; background-color: rgb(255 , 255 , 255)&quot;&gt;getUpdates&lt;/span&gt;接口" style="whiteSpace=wrap;html=1;rounded=1;strokeWidth=2;" parent="LsmdyYilQ7khlSyOfKwx-1" vertex="1">
          <mxGeometry x="440" y="200" width="180" height="60" as="geometry" />
        </mxCell>
        <mxCell id="s4kFzeR5fK_37KerpDi0-3" style="edgeStyle=orthogonalEdgeStyle;rounded=0;orthogonalLoop=1;jettySize=auto;html=1;exitX=0;exitY=0;exitDx=110;exitDy=90;exitPerimeter=0;strokeWidth=2;shape=arrow;" parent="LsmdyYilQ7khlSyOfKwx-1" source="s4kFzeR5fK_37KerpDi0-5" target="s4kFzeR5fK_37KerpDi0-2" edge="1">
          <mxGeometry relative="1" as="geometry" />
        </mxCell>
        <mxCell id="s4kFzeR5fK_37KerpDi0-4" value="拉取最新离线配置文件和离线包" style="edgeLabel;html=1;align=center;verticalAlign=middle;resizable=0;points=[];" parent="s4kFzeR5fK_37KerpDi0-3" vertex="1" connectable="0">
          <mxGeometry x="-0.1538" relative="1" as="geometry">
            <mxPoint x="100" y="60" as="offset" />
          </mxGeometry>
        </mxCell>
        <mxCell id="s4kFzeR5fK_37KerpDi0-5" value="server服务" style="verticalAlign=top;align=left;spacingTop=8;spacingLeft=2;spacingRight=12;shape=cube;size=10;direction=south;fontStyle=4;html=1;strokeWidth=2;fillColor=#d5e8d4;strokeColor=#82b366;" parent="LsmdyYilQ7khlSyOfKwx-1" vertex="1">
          <mxGeometry x="450" y="360" width="170" height="110" as="geometry" />
        </mxCell>
        <mxCell id="s4kFzeR5fK_37KerpDi0-6" style="edgeStyle=orthogonalEdgeStyle;rounded=0;orthogonalLoop=1;jettySize=auto;html=1;exitX=1;exitY=0.5;exitDx=0;exitDy=0;strokeWidth=2;" parent="LsmdyYilQ7khlSyOfKwx-1" source="s4kFzeR5fK_37KerpDi0-7" target="s4kFzeR5fK_37KerpDi0-2" edge="1">
          <mxGeometry relative="1" as="geometry" />
        </mxCell>
        <mxCell id="s4kFzeR5fK_37KerpDi0-7" value="load本地加载配置信息" style="whiteSpace=wrap;html=1;rounded=1;strokeWidth=2;" parent="LsmdyYilQ7khlSyOfKwx-1" vertex="1">
          <mxGeometry x="220" y="200" width="120" height="60" as="geometry" />
        </mxCell>
        <mxCell id="s4kFzeR5fK_37KerpDi0-8" value="取出缓存的所有pro_key和version作为参数上传，在线服务算出diff" style="edgeStyle=orthogonalEdgeStyle;rounded=0;orthogonalLoop=1;jettySize=auto;html=1;exitX=0.5;exitY=0;exitDx=0;exitDy=0;entryX=0.45;entryY=1.033;entryDx=0;entryDy=0;entryPerimeter=0;strokeWidth=2;" parent="LsmdyYilQ7khlSyOfKwx-1" source="s4kFzeR5fK_37KerpDi0-9" target="s4kFzeR5fK_37KerpDi0-7" edge="1">
          <mxGeometry relative="1" as="geometry" />
        </mxCell>
        <mxCell id="s4kFzeR5fK_37KerpDi0-9" value="Local&lt;br&gt;Cache" style="shape=datastore;whiteSpace=wrap;html=1;strokeWidth=2;fillColor=#f5f5f5;strokeColor=#666666;fontColor=#333333;" parent="LsmdyYilQ7khlSyOfKwx-1" vertex="1">
          <mxGeometry x="220" y="410" width="110" height="120" as="geometry" />
        </mxCell>
        <mxCell id="s4kFzeR5fK_37KerpDi0-10" style="edgeStyle=orthogonalEdgeStyle;rounded=0;orthogonalLoop=1;jettySize=auto;html=1;exitX=0.5;exitY=1;exitDx=0;exitDy=0;entryX=0.5;entryY=0;entryDx=0;entryDy=0;strokeWidth=2;" parent="LsmdyYilQ7khlSyOfKwx-1" source="s4kFzeR5fK_37KerpDi0-11" target="s4kFzeR5fK_37KerpDi0-17" edge="1">
          <mxGeometry relative="1" as="geometry" />
        </mxCell>
        <mxCell id="s4kFzeR5fK_37KerpDi0-11" value="解析配置info.json" style="whiteSpace=wrap;html=1;rounded=1;strokeWidth=2;" parent="LsmdyYilQ7khlSyOfKwx-1" vertex="1">
          <mxGeometry x="1169.75" y="200" width="120" height="60" as="geometry" />
        </mxCell>
        <mxCell id="s4kFzeR5fK_37KerpDi0-12" style="rounded=0;orthogonalLoop=1;jettySize=auto;html=1;exitX=0.5;exitY=1;exitDx=0;exitDy=0;exitPerimeter=0;strokeWidth=2;" parent="LsmdyYilQ7khlSyOfKwx-1" source="s4kFzeR5fK_37KerpDi0-13" target="s4kFzeR5fK_37KerpDi0-11" edge="1">
          <mxGeometry relative="1" as="geometry" />
        </mxCell>
        <mxCell id="s4kFzeR5fK_37KerpDi0-13" value="&lt;div&gt;{&lt;/div&gt;&lt;div&gt;&amp;nbsp; &quot;errno&quot;: 0,// 整型&lt;/div&gt;&lt;div&gt;&amp;nbsp; &quot;errmsg&quot;: &quot;&quot;,&lt;/div&gt;&lt;div&gt;&amp;nbsp; &quot;data&quot;: {&lt;/div&gt;&lt;div&gt;&amp;nbsp; &amp;nbsp; &quot;pkgs&quot;: [&lt;/div&gt;&lt;div&gt;&amp;nbsp; &amp;nbsp; &amp;nbsp; {&lt;/div&gt;&lt;div&gt;&amp;nbsp; &amp;nbsp; &amp;nbsp; &amp;nbsp; &quot;key&quot;: &quot;产品/模块唯一标识=prod_key&quot;,&lt;/div&gt;&lt;div&gt;&amp;nbsp; &amp;nbsp; &amp;nbsp; &amp;nbsp; &quot;type&quot;:&quot;h5/thanos/game&quot;,&lt;/div&gt;&lt;div&gt;&amp;nbsp; &amp;nbsp; &amp;nbsp; &amp;nbsp; &quot;version&quot;:&quot;模块版本号&quot;,&lt;/div&gt;&lt;div&gt;&amp;nbsp; &amp;nbsp; &amp;nbsp; &amp;nbsp; &quot;hash&quot;:&quot;下载，包的md5，用于校验（防止重复下载和安全性校验)&quot;,&lt;/div&gt;&lt;div&gt;&amp;nbsp; &amp;nbsp; &amp;nbsp; &amp;nbsp; &quot;download_url&quot;: &quot;主包下载地址&quot;,&lt;/div&gt;&lt;div&gt;&amp;nbsp; &amp;nbsp; &amp;nbsp; &amp;nbsp; &quot;sub_pkgs&quot;: {&lt;/div&gt;&lt;div&gt;&amp;nbsp; &amp;nbsp; &amp;nbsp; &amp;nbsp; &amp;nbsp; &amp;nbsp; &quot;a/a&quot;: {&lt;/div&gt;&lt;div&gt;&amp;nbsp; &amp;nbsp; &amp;nbsp; &amp;nbsp; &amp;nbsp; &amp;nbsp; &amp;nbsp; &amp;nbsp; &quot;download_url&quot;: &quot;子包下载地址1&quot;&lt;/div&gt;&lt;div&gt;&amp;nbsp; &amp;nbsp; &amp;nbsp; &amp;nbsp; &amp;nbsp; &amp;nbsp; },&lt;/div&gt;&lt;div&gt;&amp;nbsp; &amp;nbsp; &amp;nbsp; &amp;nbsp; &amp;nbsp; &amp;nbsp; &quot;a&quot;: {&lt;/div&gt;&lt;div&gt;&amp;nbsp; &amp;nbsp; &amp;nbsp; &amp;nbsp; &amp;nbsp; &amp;nbsp; &amp;nbsp; &amp;nbsp; &quot;download_url&quot;: &quot;子包下载地址1，这种情况不允许出现&quot;&lt;/div&gt;&lt;div&gt;&amp;nbsp; &amp;nbsp; &amp;nbsp; &amp;nbsp; &amp;nbsp; &amp;nbsp; },&lt;/div&gt;&lt;div&gt;&amp;nbsp; &amp;nbsp; &amp;nbsp; &amp;nbsp; &amp;nbsp; &amp;nbsp; &quot;c&quot;: {&lt;/div&gt;&lt;div&gt;&amp;nbsp; &amp;nbsp; &amp;nbsp; &amp;nbsp; &amp;nbsp; &amp;nbsp; &amp;nbsp; &amp;nbsp;&quot;download_url&quot;: &quot;子包下载地址2&quot;&lt;/div&gt;&lt;div&gt;&amp;nbsp; &amp;nbsp; &amp;nbsp; &amp;nbsp; &amp;nbsp; &amp;nbsp; }&lt;/div&gt;&lt;div&gt;&amp;nbsp; &amp;nbsp; &amp;nbsp; &amp;nbsp; },&lt;/div&gt;&lt;div&gt;&amp;nbsp; &amp;nbsp; &amp;nbsp; &amp;nbsp; &quot;manifest&quot;: [ // todo, 二期确定，可考虑给url&lt;/div&gt;&lt;div&gt;&amp;nbsp; &amp;nbsp; &amp;nbsp; &amp;nbsp; &amp;nbsp; &amp;nbsp; {&lt;/div&gt;&lt;div&gt;&amp;nbsp; &amp;nbsp; &amp;nbsp; &amp;nbsp; &amp;nbsp; &amp;nbsp; &amp;nbsp; &amp;nbsp; &quot;resource&quot;: &quot;资源路径(资源url)&quot;,&lt;/div&gt;&lt;div&gt;&amp;nbsp; &amp;nbsp; &amp;nbsp; &amp;nbsp; &amp;nbsp; &amp;nbsp; &amp;nbsp; &amp;nbsp; &quot;target&quot;: &quot;a/b/1.js&quot;,&lt;/div&gt;&lt;div&gt;&amp;nbsp; &amp;nbsp; &amp;nbsp; &amp;nbsp; &amp;nbsp; &amp;nbsp; &amp;nbsp; &amp;nbsp; &quot;sub_pkg&quot;: &quot;a/b&quot;,&lt;/div&gt;&lt;div&gt;&amp;nbsp; &amp;nbsp; &amp;nbsp; &amp;nbsp; &amp;nbsp; &amp;nbsp; &amp;nbsp; &amp;nbsp; &quot;config&quot;: {&lt;/div&gt;&lt;div&gt;&amp;nbsp; &amp;nbsp; &amp;nbsp; &amp;nbsp; &amp;nbsp; &amp;nbsp; &amp;nbsp; &amp;nbsp; &amp;nbsp; &quot;xx&quot;: &quot;其他场景额外配置数据&quot;,&lt;/div&gt;&lt;div&gt;&amp;nbsp; &amp;nbsp; &amp;nbsp; &amp;nbsp; &amp;nbsp; &amp;nbsp; &amp;nbsp; &amp;nbsp; &amp;nbsp; &quot;use_offline&quot;:&quot;是否使用离线包资源 0：不缓存 1：缓存&quot;,&lt;/div&gt;&lt;div&gt;&amp;nbsp; &amp;nbsp; &amp;nbsp; &amp;nbsp; &amp;nbsp; &amp;nbsp; &amp;nbsp; &amp;nbsp; &amp;nbsp; &quot;update_path&quot;:&quot;thanos加载js路径(thanos特有)&quot;&lt;/div&gt;&lt;div&gt;&amp;nbsp; &amp;nbsp; &amp;nbsp; &amp;nbsp; &amp;nbsp; &amp;nbsp; &amp;nbsp; &amp;nbsp; }&lt;/div&gt;&lt;div&gt;&amp;nbsp; &amp;nbsp; &amp;nbsp; &amp;nbsp; &amp;nbsp; &amp;nbsp; },&lt;/div&gt;&lt;div&gt;&amp;nbsp; &amp;nbsp; &amp;nbsp; &amp;nbsp; &amp;nbsp; &amp;nbsp; {&lt;/div&gt;&lt;div&gt;&amp;nbsp; &amp;nbsp; &amp;nbsp; &amp;nbsp; &amp;nbsp; &amp;nbsp; &amp;nbsp; &amp;nbsp; &quot;resource&quot;: &quot;资源路径(资源url)&quot;,&lt;/div&gt;&lt;div&gt;&amp;nbsp; &amp;nbsp; &amp;nbsp; &amp;nbsp; &amp;nbsp; &amp;nbsp; &amp;nbsp; &amp;nbsp; &quot;target&quot;: &quot;b/2.js&quot;,&lt;/div&gt;&lt;div&gt;&amp;nbsp; &amp;nbsp; &amp;nbsp; &amp;nbsp; &amp;nbsp; &amp;nbsp; &amp;nbsp; &amp;nbsp; &quot;config&quot;: {&lt;/div&gt;&lt;div&gt;&amp;nbsp; &amp;nbsp; &amp;nbsp; &amp;nbsp; &amp;nbsp; &amp;nbsp; &amp;nbsp; &amp;nbsp; &amp;nbsp; &quot;xx&quot;: &quot;其他场景额外配置数据&quot;,&lt;/div&gt;&lt;div&gt;&amp;nbsp; &amp;nbsp; &amp;nbsp; &amp;nbsp; &amp;nbsp; &amp;nbsp; &amp;nbsp; &amp;nbsp; &amp;nbsp; &quot;use_offline&quot;:&quot;是否使用离线包资源 0：不缓存 1：缓存&quot;,&lt;/div&gt;&lt;div&gt;&amp;nbsp; &amp;nbsp; &amp;nbsp; &amp;nbsp; &amp;nbsp; &amp;nbsp; &amp;nbsp; &amp;nbsp; &amp;nbsp; &quot;update_path&quot;:&quot;thanos加载js路径(thanos特有)&quot;&lt;/div&gt;&lt;div&gt;&amp;nbsp; &amp;nbsp; &amp;nbsp; &amp;nbsp; &amp;nbsp; &amp;nbsp; &amp;nbsp; &amp;nbsp; }&lt;/div&gt;&lt;div&gt;&amp;nbsp; &amp;nbsp; &amp;nbsp; &amp;nbsp; &amp;nbsp; &amp;nbsp; },&lt;/div&gt;&lt;div&gt;&amp;nbsp; &amp;nbsp; &amp;nbsp; &amp;nbsp; &amp;nbsp; &amp;nbsp; {&lt;/div&gt;&lt;div&gt;&amp;nbsp; &amp;nbsp; &amp;nbsp; &amp;nbsp; &amp;nbsp; &amp;nbsp; &amp;nbsp; &amp;nbsp; &quot;resource&quot;: &quot;资源路径(资源url)&quot;,&lt;/div&gt;&lt;div&gt;&amp;nbsp; &amp;nbsp; &amp;nbsp; &amp;nbsp; &amp;nbsp; &amp;nbsp; &amp;nbsp; &amp;nbsp; &quot;target&quot;: &quot;a/3.js&quot;,&lt;/div&gt;&lt;div&gt;&amp;nbsp; &amp;nbsp; &amp;nbsp; &amp;nbsp; &amp;nbsp; &amp;nbsp; &amp;nbsp; &amp;nbsp; &quot;config&quot;: {&lt;/div&gt;&lt;div&gt;&amp;nbsp; &amp;nbsp; &amp;nbsp; &amp;nbsp; &amp;nbsp; &amp;nbsp; &amp;nbsp; &amp;nbsp; &amp;nbsp; &quot;xx&quot;: &quot;其他场景额外配置数据&quot;,&lt;/div&gt;&lt;div&gt;&amp;nbsp; &amp;nbsp; &amp;nbsp; &amp;nbsp; &amp;nbsp; &amp;nbsp; &amp;nbsp; &amp;nbsp; &amp;nbsp; &quot;use_offline&quot;:&quot;是否使用离线包资源 0：不缓存 1：缓存&quot;,&lt;/div&gt;&lt;div&gt;&amp;nbsp; &amp;nbsp; &amp;nbsp; &amp;nbsp; &amp;nbsp; &amp;nbsp; &amp;nbsp; &amp;nbsp; &amp;nbsp; &quot;update_path&quot;:&quot;thanos加载js路径(thanos特有)&quot;&lt;/div&gt;&lt;div&gt;&amp;nbsp; &amp;nbsp; &amp;nbsp; &amp;nbsp; &amp;nbsp; &amp;nbsp; &amp;nbsp; &amp;nbsp; }&lt;/div&gt;&lt;div&gt;&amp;nbsp; &amp;nbsp; &amp;nbsp; &amp;nbsp; &amp;nbsp; &amp;nbsp; },&lt;/div&gt;&lt;div&gt;&amp;nbsp; &amp;nbsp; &amp;nbsp; &amp;nbsp; &amp;nbsp; &amp;nbsp; {&lt;/div&gt;&lt;div&gt;&amp;nbsp; &amp;nbsp; &amp;nbsp; &amp;nbsp; &amp;nbsp; &amp;nbsp; &amp;nbsp; &amp;nbsp; &quot;resource&quot;: &quot;资源路径(资源url)&quot;,&lt;/div&gt;&lt;div&gt;&amp;nbsp; &amp;nbsp; &amp;nbsp; &amp;nbsp; &amp;nbsp; &amp;nbsp; &amp;nbsp; &amp;nbsp; &quot;target&quot;: &quot;c/a/xxx2.js&quot;,&lt;/div&gt;&lt;div&gt;&amp;nbsp; &amp;nbsp; &amp;nbsp; &amp;nbsp; &amp;nbsp; &amp;nbsp; &amp;nbsp; &amp;nbsp; &quot;sub_pkg&quot;: &quot;c&quot;,&lt;/div&gt;&lt;div&gt;&amp;nbsp; &amp;nbsp; &amp;nbsp; &amp;nbsp; &amp;nbsp; &amp;nbsp; &amp;nbsp; &amp;nbsp; &quot;config&quot;: {&lt;/div&gt;&lt;div&gt;&amp;nbsp; &amp;nbsp; &amp;nbsp; &amp;nbsp; &amp;nbsp; &amp;nbsp; &amp;nbsp; &amp;nbsp; &amp;nbsp; &quot;xx&quot;: &quot;其他场景额外配置数据&quot;,&lt;/div&gt;&lt;div&gt;&amp;nbsp; &amp;nbsp; &amp;nbsp; &amp;nbsp; &amp;nbsp; &amp;nbsp; &amp;nbsp; &amp;nbsp; &amp;nbsp; &quot;use_offline&quot;:&quot;是否使用离线包资源 0：不缓存 1：缓存&quot;,&lt;/div&gt;&lt;div&gt;&amp;nbsp; &amp;nbsp; &amp;nbsp; &amp;nbsp; &amp;nbsp; &amp;nbsp; &amp;nbsp; &amp;nbsp; &amp;nbsp; &quot;update_path&quot;:&quot;thanos加载js路径(thanos特有)&quot;&lt;/div&gt;&lt;div&gt;&amp;nbsp; &amp;nbsp; &amp;nbsp; &amp;nbsp; &amp;nbsp; &amp;nbsp; &amp;nbsp; &amp;nbsp; }&lt;/div&gt;&lt;div&gt;&amp;nbsp; &amp;nbsp; &amp;nbsp; &amp;nbsp; &amp;nbsp; &amp;nbsp; }&lt;/div&gt;&lt;div&gt;&amp;nbsp; &amp;nbsp; &amp;nbsp; &amp;nbsp; ],&lt;/div&gt;&lt;div&gt;&amp;nbsp; &amp;nbsp; &amp;nbsp; &amp;nbsp; &quot;extra&quot;:{&lt;/div&gt;&lt;div&gt;&amp;nbsp; &amp;nbsp; &amp;nbsp; &amp;nbsp; &amp;nbsp; &amp;nbsp; &quot;loading_text&quot;:&quot;加载中。。(加载文案)&quot;,&lt;/div&gt;&lt;div&gt;&amp;nbsp; &amp;nbsp; &amp;nbsp; &amp;nbsp; &amp;nbsp; &amp;nbsp; &quot;loading_icon&quot;:&quot;加载图片url&quot;,&lt;/div&gt;&lt;div&gt;&amp;nbsp; &amp;nbsp; &amp;nbsp; &amp;nbsp; &amp;nbsp; &amp;nbsp; &quot;bg_color&quot;:&quot;加载背景颜色&quot;,&lt;/div&gt;&lt;div&gt;&amp;nbsp; &amp;nbsp; &amp;nbsp; &amp;nbsp; &amp;nbsp; &amp;nbsp; &quot;text_color&quot;:&quot;文案颜色&quot;&lt;/div&gt;&lt;div&gt;&amp;nbsp; &amp;nbsp; &amp;nbsp; &amp;nbsp; }&lt;/div&gt;&lt;div&gt;&amp;nbsp; &amp;nbsp; ]&lt;/div&gt;&lt;div&gt;&amp;nbsp; }&lt;/div&gt;&lt;div&gt;}&lt;/div&gt;" style="shape=note;whiteSpace=wrap;html=1;backgroundOutline=1;darkOpacity=0.05;strokeWidth=2;fillColor=#fff2cc;strokeColor=#d6b656;align=left;" parent="LsmdyYilQ7khlSyOfKwx-1" vertex="1">
          <mxGeometry x="1012.25" y="-850" width="435" height="1000" as="geometry" />
        </mxCell>
        <mxCell id="s4kFzeR5fK_37KerpDi0-14" value="" style="edgeStyle=orthogonalEdgeStyle;rounded=0;orthogonalLoop=1;jettySize=auto;html=1;strokeWidth=2;" parent="LsmdyYilQ7khlSyOfKwx-1" source="s4kFzeR5fK_37KerpDi0-17" target="s4kFzeR5fK_37KerpDi0-19" edge="1">
          <mxGeometry relative="1" as="geometry" />
        </mxCell>
        <mxCell id="s4kFzeR5fK_37KerpDi0-15" value="no" style="edgeLabel;html=1;align=center;verticalAlign=middle;resizable=0;points=[];" parent="s4kFzeR5fK_37KerpDi0-14" vertex="1" connectable="0">
          <mxGeometry x="-0.0218" y="1" relative="1" as="geometry">
            <mxPoint as="offset" />
          </mxGeometry>
        </mxCell>
        <mxCell id="s4kFzeR5fK_37KerpDi0-16" value="yes" style="edgeStyle=orthogonalEdgeStyle;rounded=0;orthogonalLoop=1;jettySize=auto;html=1;strokeWidth=2;entryX=0;entryY=0.5;entryDx=0;entryDy=0;" parent="LsmdyYilQ7khlSyOfKwx-1" source="s4kFzeR5fK_37KerpDi0-17" target="s4kFzeR5fK_37KerpDi0-29" edge="1">
          <mxGeometry relative="1" as="geometry">
            <mxPoint x="1128" y="450" as="targetPoint" />
          </mxGeometry>
        </mxCell>
        <mxCell id="s4kFzeR5fK_37KerpDi0-17" value="判断本地是否存在module离线包" style="rhombus;whiteSpace=wrap;html=1;rounded=1;strokeWidth=2;" parent="LsmdyYilQ7khlSyOfKwx-1" vertex="1">
          <mxGeometry x="930" y="410" width="117.5" height="80" as="geometry" />
        </mxCell>
        <mxCell id="s4kFzeR5fK_37KerpDi0-18" value="" style="edgeStyle=orthogonalEdgeStyle;rounded=0;orthogonalLoop=1;jettySize=auto;html=1;strokeWidth=2;" parent="LsmdyYilQ7khlSyOfKwx-1" source="s4kFzeR5fK_37KerpDi0-19" target="s4kFzeR5fK_37KerpDi0-21" edge="1">
          <mxGeometry relative="1" as="geometry">
            <mxPoint x="990" y="650" as="targetPoint" />
          </mxGeometry>
        </mxCell>
        <mxCell id="s4kFzeR5fK_37KerpDi0-19" value="新增module" style="whiteSpace=wrap;html=1;rounded=1;strokeWidth=2;" parent="LsmdyYilQ7khlSyOfKwx-1" vertex="1">
          <mxGeometry x="930" y="565" width="120" height="60" as="geometry" />
        </mxCell>
        <mxCell id="s4kFzeR5fK_37KerpDi0-20" style="edgeStyle=orthogonalEdgeStyle;rounded=0;orthogonalLoop=1;jettySize=auto;html=1;exitX=0;exitY=0.5;exitDx=0;exitDy=0;entryX=0.5;entryY=1;entryDx=0;entryDy=0;strokeWidth=2;" parent="LsmdyYilQ7khlSyOfKwx-1" source="s4kFzeR5fK_37KerpDi0-21" target="s4kFzeR5fK_37KerpDi0-9" edge="1">
          <mxGeometry relative="1" as="geometry" />
        </mxCell>
        <mxCell id="s4kFzeR5fK_37KerpDi0-21" value="下载离线包zip" style="whiteSpace=wrap;html=1;rounded=1;strokeWidth=2;" parent="LsmdyYilQ7khlSyOfKwx-1" vertex="1">
          <mxGeometry x="930" y="700" width="120" height="60" as="geometry" />
        </mxCell>
        <mxCell id="s4kFzeR5fK_37KerpDi0-22" style="edgeStyle=orthogonalEdgeStyle;rounded=0;orthogonalLoop=1;jettySize=auto;html=1;exitX=0;exitY=0.5;exitDx=0;exitDy=0;entryX=0.5;entryY=1;entryDx=0;entryDy=0;strokeWidth=2;" parent="LsmdyYilQ7khlSyOfKwx-1" source="s4kFzeR5fK_37KerpDi0-24" target="s4kFzeR5fK_37KerpDi0-9" edge="1">
          <mxGeometry relative="1" as="geometry" />
        </mxCell>
        <mxCell id="s4kFzeR5fK_37KerpDi0-23" value="更新本地和内存信息" style="edgeLabel;html=1;align=center;verticalAlign=middle;resizable=0;points=[];" parent="s4kFzeR5fK_37KerpDi0-22" vertex="1" connectable="0">
          <mxGeometry x="0.7376" y="3" relative="1" as="geometry">
            <mxPoint as="offset" />
          </mxGeometry>
        </mxCell>
        <mxCell id="s4kFzeR5fK_37KerpDi0-24" value="查找本地并删除" style="whiteSpace=wrap;html=1;rounded=1;strokeWidth=2;" parent="LsmdyYilQ7khlSyOfKwx-1" vertex="1">
          <mxGeometry x="1660" y="810" width="120" height="60" as="geometry" />
        </mxCell>
        <mxCell id="s4kFzeR5fK_37KerpDi0-25" style="edgeStyle=orthogonalEdgeStyle;rounded=0;orthogonalLoop=1;jettySize=auto;html=1;exitX=1;exitY=0.5;exitDx=0;exitDy=0;entryX=0.5;entryY=0;entryDx=0;entryDy=0;strokeWidth=2;" parent="LsmdyYilQ7khlSyOfKwx-1" source="s4kFzeR5fK_37KerpDi0-29" target="s4kFzeR5fK_37KerpDi0-24" edge="1">
          <mxGeometry relative="1" as="geometry" />
        </mxCell>
        <mxCell id="s4kFzeR5fK_37KerpDi0-26" value="yes" style="edgeLabel;html=1;align=center;verticalAlign=middle;resizable=0;points=[];" parent="s4kFzeR5fK_37KerpDi0-25" vertex="1" connectable="0">
          <mxGeometry x="0.0261" y="4" relative="1" as="geometry">
            <mxPoint as="offset" />
          </mxGeometry>
        </mxCell>
        <mxCell id="s4kFzeR5fK_37KerpDi0-27" value="" style="edgeStyle=orthogonalEdgeStyle;rounded=0;orthogonalLoop=1;jettySize=auto;html=1;strokeWidth=2;" parent="LsmdyYilQ7khlSyOfKwx-1" source="s4kFzeR5fK_37KerpDi0-29" target="s4kFzeR5fK_37KerpDi0-67" edge="1">
          <mxGeometry relative="1" as="geometry" />
        </mxCell>
        <mxCell id="s4kFzeR5fK_37KerpDi0-28" value="no" style="edgeLabel;html=1;align=center;verticalAlign=middle;resizable=0;points=[];" parent="s4kFzeR5fK_37KerpDi0-27" vertex="1" connectable="0">
          <mxGeometry x="-0.2727" y="-1" relative="1" as="geometry">
            <mxPoint as="offset" />
          </mxGeometry>
        </mxCell>
        <mxCell id="s4kFzeR5fK_37KerpDi0-29" value="module离线包是否需要回滚或删除" style="rhombus;whiteSpace=wrap;html=1;rounded=1;strokeWidth=2;" parent="LsmdyYilQ7khlSyOfKwx-1" vertex="1">
          <mxGeometry x="1284.5" y="415" width="169" height="70" as="geometry" />
        </mxCell>
        <mxCell id="s4kFzeR5fK_37KerpDi0-30" style="edgeStyle=orthogonalEdgeStyle;rounded=0;orthogonalLoop=1;jettySize=auto;html=1;strokeWidth=2;" parent="LsmdyYilQ7khlSyOfKwx-1" source="s4kFzeR5fK_37KerpDi0-0" target="s4kFzeR5fK_37KerpDi0-7" edge="1">
          <mxGeometry relative="1" as="geometry">
            <mxPoint x="140" y="230" as="sourcePoint" />
          </mxGeometry>
        </mxCell>
        <mxCell id="s4kFzeR5fK_37KerpDi0-31" value="" style="edgeStyle=orthogonalEdgeStyle;rounded=0;orthogonalLoop=1;jettySize=auto;html=1;strokeWidth=2;" parent="LsmdyYilQ7khlSyOfKwx-1" source="s4kFzeR5fK_37KerpDi0-32" target="s4kFzeR5fK_37KerpDi0-37" edge="1">
          <mxGeometry relative="1" as="geometry">
            <mxPoint x="170" y="1190" as="targetPoint" />
          </mxGeometry>
        </mxCell>
        <mxCell id="s4kFzeR5fK_37KerpDi0-32" value="下载离线包zip" style="whiteSpace=wrap;html=1;rounded=1;strokeWidth=2;" parent="LsmdyYilQ7khlSyOfKwx-1" vertex="1">
          <mxGeometry x="151.25" y="1040" width="120" height="60" as="geometry" />
        </mxCell>
        <mxCell id="s4kFzeR5fK_37KerpDi0-33" value="" style="edgeStyle=orthogonalEdgeStyle;rounded=0;orthogonalLoop=1;jettySize=auto;html=1;strokeWidth=2;entryX=0;entryY=0.5;entryDx=0;entryDy=0;" parent="LsmdyYilQ7khlSyOfKwx-1" source="s4kFzeR5fK_37KerpDi0-37" target="s4kFzeR5fK_37KerpDi0-41" edge="1">
          <mxGeometry relative="1" as="geometry">
            <mxPoint x="372.5" y="1190" as="targetPoint" />
          </mxGeometry>
        </mxCell>
        <mxCell id="s4kFzeR5fK_37KerpDi0-34" value="预下载" style="edgeLabel;html=1;align=center;verticalAlign=middle;resizable=0;points=[];" parent="s4kFzeR5fK_37KerpDi0-33" vertex="1" connectable="0">
          <mxGeometry x="-0.0439" y="4" relative="1" as="geometry">
            <mxPoint as="offset" />
          </mxGeometry>
        </mxCell>
        <mxCell id="s4kFzeR5fK_37KerpDi0-35" value="" style="edgeStyle=orthogonalEdgeStyle;rounded=0;orthogonalLoop=1;jettySize=auto;html=1;strokeWidth=2;" parent="LsmdyYilQ7khlSyOfKwx-1" source="s4kFzeR5fK_37KerpDi0-37" target="s4kFzeR5fK_37KerpDi0-45" edge="1">
          <mxGeometry relative="1" as="geometry" />
        </mxCell>
        <mxCell id="s4kFzeR5fK_37KerpDi0-36" value="wifi" style="edgeLabel;html=1;align=center;verticalAlign=middle;resizable=0;points=[];" parent="s4kFzeR5fK_37KerpDi0-35" vertex="1" connectable="0">
          <mxGeometry x="-0.0037" y="-1" relative="1" as="geometry">
            <mxPoint as="offset" />
          </mxGeometry>
        </mxCell>
        <mxCell id="s4kFzeR5fK_37KerpDi0-37" value="是否预下载/wifi/事件&lt;br&gt;&lt;span style=&quot;background-color: rgb(229 , 255 , 99)&quot;&gt;其中事件下载暴露给业务方&lt;/span&gt;" style="rhombus;whiteSpace=wrap;html=1;rounded=1;strokeWidth=2;" parent="LsmdyYilQ7khlSyOfKwx-1" vertex="1">
          <mxGeometry x="152.5" y="1150" width="117.5" height="80" as="geometry" />
        </mxCell>
        <mxCell id="s4kFzeR5fK_37KerpDi0-38" value="结束" style="strokeWidth=2;html=1;shape=mxgraph.flowchart.terminator;whiteSpace=wrap;" parent="LsmdyYilQ7khlSyOfKwx-1" vertex="1">
          <mxGeometry x="350" y="1540" width="100" height="60" as="geometry" />
        </mxCell>
        <mxCell id="s4kFzeR5fK_37KerpDi0-39" style="edgeStyle=orthogonalEdgeStyle;rounded=0;orthogonalLoop=1;jettySize=auto;html=1;exitX=1;exitY=0.5;exitDx=0;exitDy=0;entryX=0;entryY=0.5;entryDx=0;entryDy=0;strokeWidth=2;" parent="LsmdyYilQ7khlSyOfKwx-1" source="s4kFzeR5fK_37KerpDi0-41" target="s4kFzeR5fK_37KerpDi0-43" edge="1">
          <mxGeometry relative="1" as="geometry" />
        </mxCell>
        <mxCell id="s4kFzeR5fK_37KerpDi0-81" value="download_url&lt;br&gt;" style="edgeLabel;html=1;align=center;verticalAlign=middle;resizable=0;points=[];" parent="s4kFzeR5fK_37KerpDi0-39" vertex="1" connectable="0">
          <mxGeometry x="-0.437" relative="1" as="geometry">
            <mxPoint x="32" as="offset" />
          </mxGeometry>
        </mxCell>
        <mxCell id="s4kFzeR5fK_37KerpDi0-41" value="&lt;span style=&quot;font-size: 11px ; background-color: rgb(255 , 255 , 255)&quot;&gt;zip下载&lt;/span&gt;" style="whiteSpace=wrap;html=1;rounded=1;strokeWidth=2;" parent="LsmdyYilQ7khlSyOfKwx-1" vertex="1">
          <mxGeometry x="360" y="1160" width="120" height="60" as="geometry" />
        </mxCell>
        <mxCell id="s4kFzeR5fK_37KerpDi0-42" value="" style="edgeStyle=orthogonalEdgeStyle;rounded=0;orthogonalLoop=1;jettySize=auto;html=1;strokeWidth=2;" parent="LsmdyYilQ7khlSyOfKwx-1" source="s4kFzeR5fK_37KerpDi0-43" target="s4kFzeR5fK_37KerpDi0-50" edge="1">
          <mxGeometry relative="1" as="geometry" />
        </mxCell>
        <mxCell id="s4kFzeR5fK_37KerpDi0-43" value="downloadZip" style="whiteSpace=wrap;html=1;rounded=1;strokeWidth=2;" parent="LsmdyYilQ7khlSyOfKwx-1" vertex="1">
          <mxGeometry x="615" y="1160" width="120" height="60" as="geometry" />
        </mxCell>
        <mxCell id="s4kFzeR5fK_37KerpDi0-44" style="edgeStyle=orthogonalEdgeStyle;rounded=0;orthogonalLoop=1;jettySize=auto;html=1;exitX=0;exitY=0.5;exitDx=0;exitDy=0;entryX=0;entryY=0.5;entryDx=0;entryDy=0;strokeWidth=2;" parent="LsmdyYilQ7khlSyOfKwx-1" source="s4kFzeR5fK_37KerpDi0-45" target="s4kFzeR5fK_37KerpDi0-37" edge="1">
          <mxGeometry relative="1" as="geometry">
            <Array as="points">
              <mxPoint x="110" y="1350" />
              <mxPoint x="110" y="1190" />
            </Array>
          </mxGeometry>
        </mxCell>
        <mxCell id="s4kFzeR5fK_37KerpDi0-45" value="注册WIFI监听" style="whiteSpace=wrap;html=1;rounded=1;strokeWidth=2;" parent="LsmdyYilQ7khlSyOfKwx-1" vertex="1">
          <mxGeometry x="151.25" y="1320" width="120" height="60" as="geometry" />
        </mxCell>
        <mxCell id="s4kFzeR5fK_37KerpDi0-46" value="" style="edgeStyle=orthogonalEdgeStyle;rounded=0;orthogonalLoop=1;jettySize=auto;html=1;strokeWidth=2;" parent="LsmdyYilQ7khlSyOfKwx-1" source="s4kFzeR5fK_37KerpDi0-50" target="s4kFzeR5fK_37KerpDi0-53" edge="1">
          <mxGeometry relative="1" as="geometry" />
        </mxCell>
        <mxCell id="s4kFzeR5fK_37KerpDi0-47" value="no" style="edgeLabel;html=1;align=center;verticalAlign=middle;resizable=0;points=[];" parent="s4kFzeR5fK_37KerpDi0-46" vertex="1" connectable="0">
          <mxGeometry x="-0.2" y="2" relative="1" as="geometry">
            <mxPoint x="-15" y="2" as="offset" />
          </mxGeometry>
        </mxCell>
        <mxCell id="s4kFzeR5fK_37KerpDi0-48" value="" style="edgeStyle=orthogonalEdgeStyle;rounded=0;orthogonalLoop=1;jettySize=auto;html=1;strokeWidth=2;" parent="LsmdyYilQ7khlSyOfKwx-1" source="s4kFzeR5fK_37KerpDi0-50" target="s4kFzeR5fK_37KerpDi0-60" edge="1">
          <mxGeometry relative="1" as="geometry" />
        </mxCell>
        <mxCell id="s4kFzeR5fK_37KerpDi0-49" value="yes" style="edgeLabel;html=1;align=center;verticalAlign=middle;resizable=0;points=[];" parent="s4kFzeR5fK_37KerpDi0-48" vertex="1" connectable="0">
          <mxGeometry x="-0.4" y="-1" relative="1" as="geometry">
            <mxPoint as="offset" />
          </mxGeometry>
        </mxCell>
        <mxCell id="s4kFzeR5fK_37KerpDi0-50" value="本地是否存在文件" style="rhombus;whiteSpace=wrap;html=1;rounded=1;strokeWidth=2;" parent="LsmdyYilQ7khlSyOfKwx-1" vertex="1">
          <mxGeometry x="600" y="1280" width="150" height="70" as="geometry" />
        </mxCell>
        <mxCell id="s4kFzeR5fK_37KerpDi0-51" style="edgeStyle=orthogonalEdgeStyle;rounded=0;orthogonalLoop=1;jettySize=auto;html=1;exitX=0.5;exitY=1;exitDx=0;exitDy=0;entryX=1;entryY=0.5;entryDx=0;entryDy=0;strokeWidth=2;" parent="LsmdyYilQ7khlSyOfKwx-1" source="s4kFzeR5fK_37KerpDi0-53" target="s4kFzeR5fK_37KerpDi0-55" edge="1">
          <mxGeometry relative="1" as="geometry" />
        </mxCell>
        <mxCell id="s4kFzeR5fK_37KerpDi0-52" value="下载成功" style="edgeLabel;html=1;align=center;verticalAlign=middle;resizable=0;points=[];" parent="s4kFzeR5fK_37KerpDi0-51" vertex="1" connectable="0">
          <mxGeometry x="-0.5121" relative="1" as="geometry">
            <mxPoint as="offset" />
          </mxGeometry>
        </mxCell>
        <mxCell id="s4kFzeR5fK_37KerpDi0-53" value="excuteDownload" style="whiteSpace=wrap;html=1;rounded=1;strokeWidth=2;" parent="LsmdyYilQ7khlSyOfKwx-1" vertex="1">
          <mxGeometry x="905" y="1285" width="120" height="60" as="geometry" />
        </mxCell>
        <mxCell id="s4kFzeR5fK_37KerpDi0-54" style="edgeStyle=orthogonalEdgeStyle;rounded=0;orthogonalLoop=1;jettySize=auto;html=1;exitX=0;exitY=0.5;exitDx=0;exitDy=0;entryX=1;entryY=0.5;entryDx=0;entryDy=0;entryPerimeter=0;strokeWidth=2;" parent="LsmdyYilQ7khlSyOfKwx-1" source="s4kFzeR5fK_37KerpDi0-55" target="s4kFzeR5fK_37KerpDi0-38" edge="1">
          <mxGeometry relative="1" as="geometry" />
        </mxCell>
        <mxCell id="s4kFzeR5fK_37KerpDi0-55" value="解压文件并删除zip" style="whiteSpace=wrap;html=1;rounded=1;strokeWidth=2;" parent="LsmdyYilQ7khlSyOfKwx-1" vertex="1">
          <mxGeometry x="615" y="1540" width="120" height="60" as="geometry" />
        </mxCell>
        <mxCell id="s4kFzeR5fK_37KerpDi0-56" style="edgeStyle=orthogonalEdgeStyle;rounded=0;orthogonalLoop=1;jettySize=auto;html=1;exitX=0.5;exitY=1;exitDx=0;exitDy=0;strokeWidth=2;" parent="LsmdyYilQ7khlSyOfKwx-1" source="s4kFzeR5fK_37KerpDi0-60" target="s4kFzeR5fK_37KerpDi0-55" edge="1">
          <mxGeometry relative="1" as="geometry" />
        </mxCell>
        <mxCell id="s4kFzeR5fK_37KerpDi0-57" value="yes" style="edgeLabel;html=1;align=center;verticalAlign=middle;resizable=0;points=[];" parent="s4kFzeR5fK_37KerpDi0-56" vertex="1" connectable="0">
          <mxGeometry x="-0.05" y="2" relative="1" as="geometry">
            <mxPoint as="offset" />
          </mxGeometry>
        </mxCell>
        <mxCell id="s4kFzeR5fK_37KerpDi0-58" value="" style="edgeStyle=orthogonalEdgeStyle;rounded=0;orthogonalLoop=1;jettySize=auto;html=1;strokeWidth=2;" parent="LsmdyYilQ7khlSyOfKwx-1" source="s4kFzeR5fK_37KerpDi0-60" target="s4kFzeR5fK_37KerpDi0-62" edge="1">
          <mxGeometry relative="1" as="geometry" />
        </mxCell>
        <mxCell id="s4kFzeR5fK_37KerpDi0-59" value="no" style="edgeLabel;html=1;align=center;verticalAlign=middle;resizable=0;points=[];" parent="s4kFzeR5fK_37KerpDi0-58" vertex="1" connectable="0">
          <mxGeometry x="-0.3333" y="-1" relative="1" as="geometry">
            <mxPoint as="offset" />
          </mxGeometry>
        </mxCell>
        <mxCell id="s4kFzeR5fK_37KerpDi0-60" value="检测本地文件MD5是否相同" style="rhombus;whiteSpace=wrap;html=1;rounded=1;strokeWidth=2;" parent="LsmdyYilQ7khlSyOfKwx-1" vertex="1">
          <mxGeometry x="600" y="1390" width="150" height="70" as="geometry" />
        </mxCell>
        <mxCell id="s4kFzeR5fK_37KerpDi0-61" style="edgeStyle=orthogonalEdgeStyle;rounded=0;orthogonalLoop=1;jettySize=auto;html=1;exitX=0.5;exitY=0;exitDx=0;exitDy=0;entryX=0;entryY=0.5;entryDx=0;entryDy=0;strokeWidth=2;" parent="LsmdyYilQ7khlSyOfKwx-1" source="s4kFzeR5fK_37KerpDi0-62" target="s4kFzeR5fK_37KerpDi0-53" edge="1">
          <mxGeometry relative="1" as="geometry" />
        </mxCell>
        <mxCell id="s4kFzeR5fK_37KerpDi0-62" value="删除本地文件" style="whiteSpace=wrap;html=1;rounded=1;strokeWidth=2;" parent="LsmdyYilQ7khlSyOfKwx-1" vertex="1">
          <mxGeometry x="795" y="1395" width="120" height="60" as="geometry" />
        </mxCell>
        <mxCell id="s4kFzeR5fK_37KerpDi0-63" value="" style="edgeStyle=orthogonalEdgeStyle;rounded=0;orthogonalLoop=1;jettySize=auto;html=1;strokeWidth=2;" parent="LsmdyYilQ7khlSyOfKwx-1" source="s4kFzeR5fK_37KerpDi0-67" target="s4kFzeR5fK_37KerpDi0-70" edge="1">
          <mxGeometry relative="1" as="geometry" />
        </mxCell>
        <mxCell id="s4kFzeR5fK_37KerpDi0-64" value="yes" style="edgeLabel;html=1;align=center;verticalAlign=middle;resizable=0;points=[];" parent="s4kFzeR5fK_37KerpDi0-63" vertex="1" connectable="0">
          <mxGeometry x="-0.35" y="1" relative="1" as="geometry">
            <mxPoint as="offset" />
          </mxGeometry>
        </mxCell>
        <mxCell id="s4kFzeR5fK_37KerpDi0-65" value="" style="edgeStyle=orthogonalEdgeStyle;rounded=0;orthogonalLoop=1;jettySize=auto;html=1;strokeWidth=2;" parent="LsmdyYilQ7khlSyOfKwx-1" source="s4kFzeR5fK_37KerpDi0-67" target="s4kFzeR5fK_37KerpDi0-72" edge="1">
          <mxGeometry relative="1" as="geometry" />
        </mxCell>
        <mxCell id="s4kFzeR5fK_37KerpDi0-66" value="no" style="edgeLabel;html=1;align=center;verticalAlign=middle;resizable=0;points=[];" parent="s4kFzeR5fK_37KerpDi0-65" vertex="1" connectable="0">
          <mxGeometry x="-0.2889" y="1" relative="1" as="geometry">
            <mxPoint as="offset" />
          </mxGeometry>
        </mxCell>
        <mxCell id="s4kFzeR5fK_37KerpDi0-67" value="是否增量更新is_increment" style="rhombus;whiteSpace=wrap;html=1;rounded=1;strokeWidth=2;" parent="LsmdyYilQ7khlSyOfKwx-1" vertex="1">
          <mxGeometry x="1284.5" y="560" width="169" height="70" as="geometry" />
        </mxCell>
        <mxCell id="s4kFzeR5fK_37KerpDi0-68" style="edgeStyle=orthogonalEdgeStyle;rounded=0;orthogonalLoop=1;jettySize=auto;html=1;exitX=0;exitY=0.5;exitDx=0;exitDy=0;entryX=1;entryY=0.5;entryDx=0;entryDy=0;strokeWidth=2;" parent="LsmdyYilQ7khlSyOfKwx-1" source="s4kFzeR5fK_37KerpDi0-70" target="s4kFzeR5fK_37KerpDi0-21" edge="1">
          <mxGeometry relative="1" as="geometry" />
        </mxCell>
        <mxCell id="s4kFzeR5fK_37KerpDi0-69" value="download_url&lt;br&gt;增量下载地址" style="edgeLabel;html=1;align=center;verticalAlign=middle;resizable=0;points=[];" parent="s4kFzeR5fK_37KerpDi0-68" vertex="1" connectable="0">
          <mxGeometry x="-0.4243" y="-2" relative="1" as="geometry">
            <mxPoint x="-4" as="offset" />
          </mxGeometry>
        </mxCell>
        <mxCell id="s4kFzeR5fK_37KerpDi0-70" value="merge info.json配置" style="whiteSpace=wrap;html=1;rounded=1;strokeWidth=2;" parent="LsmdyYilQ7khlSyOfKwx-1" vertex="1">
          <mxGeometry x="1309" y="700" width="120" height="60" as="geometry" />
        </mxCell>
        <mxCell id="s4kFzeR5fK_37KerpDi0-71" style="edgeStyle=orthogonalEdgeStyle;rounded=0;orthogonalLoop=1;jettySize=auto;html=1;exitX=0.5;exitY=1;exitDx=0;exitDy=0;entryX=1;entryY=0.5;entryDx=0;entryDy=0;strokeWidth=2;" parent="LsmdyYilQ7khlSyOfKwx-1" source="s4kFzeR5fK_37KerpDi0-72" target="s4kFzeR5fK_37KerpDi0-21" edge="1">
          <mxGeometry relative="1" as="geometry" />
        </mxCell>
        <mxCell id="s4kFzeR5fK_37KerpDi0-72" value="删除本地对应module离线包" style="whiteSpace=wrap;html=1;rounded=1;strokeWidth=2;" parent="LsmdyYilQ7khlSyOfKwx-1" vertex="1">
          <mxGeometry x="1082.5" y="565" width="120" height="60" as="geometry" />
        </mxCell>
        <mxCell id="s4kFzeR5fK_37KerpDi0-73" value="&lt;br&gt;&lt;br&gt;&lt;br&gt;merge规则：&lt;br&gt;&lt;br&gt;1.取出本地保存info.json配置文件的manifest、sub_pkgs&lt;br&gt;数组，根据resource作为key和远程拉取info.json比对，相同则使用远程数据覆盖；不同则新老都保存。&lt;br&gt;2.其他数据数据使用远程配置数据保存" style="shape=note;whiteSpace=wrap;html=1;backgroundOutline=1;darkOpacity=0.05;fillColor=#fff2cc;strokeColor=#d6b656;align=left;" parent="LsmdyYilQ7khlSyOfKwx-1" vertex="1">
          <mxGeometry x="1510" y="590" width="180" height="190" as="geometry" />
        </mxCell>
        <mxCell id="s4kFzeR5fK_37KerpDi0-74" value="" style="shape=singleArrow;direction=west;whiteSpace=wrap;html=1;strokeWidth=2;" parent="LsmdyYilQ7khlSyOfKwx-1" vertex="1">
          <mxGeometry x="1440" y="720" width="60" height="20" as="geometry" />
        </mxCell>
        <mxCell id="s4kFzeR5fK_37KerpDi0-75" style="edgeStyle=orthogonalEdgeStyle;rounded=0;orthogonalLoop=1;jettySize=auto;html=1;exitX=0.5;exitY=1;exitDx=0;exitDy=0;exitPerimeter=0;entryX=0.5;entryY=0;entryDx=0;entryDy=0;strokeWidth=2;" parent="LsmdyYilQ7khlSyOfKwx-1" source="s4kFzeR5fK_37KerpDi0-76" target="s4kFzeR5fK_37KerpDi0-2" edge="1">
          <mxGeometry relative="1" as="geometry" />
        </mxCell>
        <mxCell id="s4kFzeR5fK_37KerpDi0-76" value="&lt;div&gt;{&lt;/div&gt;&lt;div&gt;&amp;nbsp; &quot;errno&quot;: 0, // 整型&lt;/div&gt;&lt;div&gt;&amp;nbsp; &quot;errmsg&quot;： &quot;&quot;，&lt;/div&gt;&lt;div&gt;&amp;nbsp; &quot;data&quot;: {&lt;/div&gt;&lt;div&gt;&amp;nbsp; &amp;nbsp; &quot;pkgs&quot;: [&lt;/div&gt;&lt;div&gt;&amp;nbsp; &amp;nbsp; &amp;nbsp; {&lt;/div&gt;&lt;div&gt;&amp;nbsp; &amp;nbsp; &amp;nbsp; &amp;nbsp; &quot;key&quot;: &quot;module1-key&quot;， // 必有，&lt;/div&gt;&lt;div&gt;&amp;nbsp; &amp;nbsp; &amp;nbsp; &amp;nbsp; &quot;operate&quot;: &quot;del&quot;, // 必有，[&#39;add&#39;, &#39;del&#39;, &#39;revert&#39;] 下线需要删除包&lt;/div&gt;&lt;div&gt;&amp;nbsp; &amp;nbsp; &amp;nbsp; &amp;nbsp; &quot;version&quot;: &quot;0.0.5&quot;,&lt;/div&gt;&lt;div&gt;&amp;nbsp; &amp;nbsp; &amp;nbsp; &amp;nbsp; &quot;url&quot;: &quot;https://xxx&quot;, // 发布包地址, 只有非del才有该字段&lt;/div&gt;&lt;div&gt;&amp;nbsp; &amp;nbsp; &amp;nbsp; &amp;nbsp; &quot;hash&quot;: &quot;123&quot;, // 发布包的md5&lt;/div&gt;&lt;div&gt;&amp;nbsp; &amp;nbsp; &amp;nbsp; &amp;nbsp; &quot;type&quot;:&quot;h5&quot;, // [&#39;thanos&#39;, &#39;game&#39;] 枚举&lt;/div&gt;&lt;div&gt;&amp;nbsp; &amp;nbsp; &amp;nbsp; }&lt;/div&gt;&lt;div&gt;&amp;nbsp; &amp;nbsp; &amp;nbsp;]&lt;/div&gt;&lt;div&gt;&amp;nbsp; &amp;nbsp;}&lt;/div&gt;&lt;div&gt;&amp;nbsp;}&amp;nbsp;&lt;/div&gt;" style="shape=note;whiteSpace=wrap;html=1;backgroundOutline=1;darkOpacity=0.05;strokeWidth=2;fillColor=#fff2cc;strokeColor=#d6b656;align=left;" parent="LsmdyYilQ7khlSyOfKwx-1" vertex="1">
          <mxGeometry x="375" y="-110" width="310" height="260" as="geometry" />
        </mxCell>
        <mxCell id="s4kFzeR5fK_37KerpDi0-77" value="" style="edgeStyle=orthogonalEdgeStyle;rounded=0;orthogonalLoop=1;jettySize=auto;html=1;strokeWidth=2;" parent="LsmdyYilQ7khlSyOfKwx-1" source="s4kFzeR5fK_37KerpDi0-78" target="s4kFzeR5fK_37KerpDi0-80" edge="1">
          <mxGeometry relative="1" as="geometry" />
        </mxCell>
        <mxCell id="s4kFzeR5fK_37KerpDi0-78" value="解析配置" style="whiteSpace=wrap;html=1;rounded=1;strokeWidth=2;" parent="LsmdyYilQ7khlSyOfKwx-1" vertex="1">
          <mxGeometry x="730" y="200" width="120" height="60" as="geometry" />
        </mxCell>
        <mxCell id="s4kFzeR5fK_37KerpDi0-79" style="edgeStyle=orthogonalEdgeStyle;rounded=0;orthogonalLoop=1;jettySize=auto;html=1;exitX=1;exitY=0.5;exitDx=0;exitDy=0;entryX=0;entryY=0.5;entryDx=0;entryDy=0;strokeWidth=2;" parent="LsmdyYilQ7khlSyOfKwx-1" source="s4kFzeR5fK_37KerpDi0-80" target="s4kFzeR5fK_37KerpDi0-11" edge="1">
          <mxGeometry relative="1" as="geometry" />
        </mxCell>
        <mxCell id="s4kFzeR5fK_37KerpDi0-80" value="根据&lt;span style=&quot;text-align: left&quot;&gt;url&lt;br&gt;下载moudle配置文件&lt;b&gt;info.json&lt;/b&gt;&lt;br&gt;&lt;/span&gt;" style="whiteSpace=wrap;html=1;rounded=1;strokeWidth=2;" parent="LsmdyYilQ7khlSyOfKwx-1" vertex="1">
          <mxGeometry x="940" y="200" width="120" height="60" as="geometry" />
        </mxCell>
      </root>
    </mxGraphModel>
  </diagram>
  <diagram id="5FANiETweMuPPkYI_vMq" name="四期">
    <mxGraphModel dx="1426" dy="675" grid="1" gridSize="10" guides="1" tooltips="1" connect="1" arrows="1" fold="1" page="1" pageScale="1" pageWidth="1654" pageHeight="1169" math="0" shadow="0">
      <root>
        <mxCell id="dEsy5eIckWQGi50N6uV0-0" />
        <mxCell id="dEsy5eIckWQGi50N6uV0-1" parent="dEsy5eIckWQGi50N6uV0-0" />
        <mxCell id="dEsy5eIckWQGi50N6uV0-2" value="App启动" style="rounded=1;whiteSpace=wrap;html=1;strokeWidth=2;" parent="dEsy5eIckWQGi50N6uV0-1" vertex="1">
          <mxGeometry x="20" y="200" width="120" height="60" as="geometry" />
        </mxCell>
        <mxCell id="dEsy5eIckWQGi50N6uV0-3" value="" style="edgeStyle=orthogonalEdgeStyle;rounded=0;orthogonalLoop=1;jettySize=auto;html=1;strokeWidth=2;" parent="dEsy5eIckWQGi50N6uV0-1" source="dEsy5eIckWQGi50N6uV0-4" target="dEsy5eIckWQGi50N6uV0-80" edge="1">
          <mxGeometry relative="1" as="geometry" />
        </mxCell>
        <mxCell id="dEsy5eIckWQGi50N6uV0-4" value="&lt;p&gt;请求getUpdates接口&lt;/p&gt;" style="whiteSpace=wrap;html=1;rounded=1;strokeWidth=2;" parent="dEsy5eIckWQGi50N6uV0-1" vertex="1">
          <mxGeometry x="440" y="200" width="180" height="60" as="geometry" />
        </mxCell>
        <mxCell id="dEsy5eIckWQGi50N6uV0-5" style="edgeStyle=orthogonalEdgeStyle;rounded=0;orthogonalLoop=1;jettySize=auto;html=1;exitX=0;exitY=0;exitDx=110;exitDy=90;exitPerimeter=0;strokeWidth=2;shape=arrow;" parent="dEsy5eIckWQGi50N6uV0-1" source="dEsy5eIckWQGi50N6uV0-7" target="dEsy5eIckWQGi50N6uV0-4" edge="1">
          <mxGeometry relative="1" as="geometry" />
        </mxCell>
        <mxCell id="dEsy5eIckWQGi50N6uV0-6" value="拉取最新离线配置文件和离线包" style="edgeLabel;html=1;align=center;verticalAlign=middle;resizable=0;points=[];" parent="dEsy5eIckWQGi50N6uV0-5" vertex="1" connectable="0">
          <mxGeometry x="-0.1538" relative="1" as="geometry">
            <mxPoint x="100" y="60" as="offset" />
          </mxGeometry>
        </mxCell>
        <mxCell id="dEsy5eIckWQGi50N6uV0-7" value="server服务" style="verticalAlign=top;align=left;spacingTop=8;spacingLeft=2;spacingRight=12;shape=cube;size=10;direction=south;fontStyle=4;html=1;strokeWidth=2;fillColor=#d5e8d4;strokeColor=#82b366;" parent="dEsy5eIckWQGi50N6uV0-1" vertex="1">
          <mxGeometry x="450" y="360" width="170" height="110" as="geometry" />
        </mxCell>
        <mxCell id="dEsy5eIckWQGi50N6uV0-8" style="edgeStyle=orthogonalEdgeStyle;rounded=0;orthogonalLoop=1;jettySize=auto;html=1;exitX=1;exitY=0.5;exitDx=0;exitDy=0;strokeWidth=2;" parent="dEsy5eIckWQGi50N6uV0-1" source="dEsy5eIckWQGi50N6uV0-9" target="dEsy5eIckWQGi50N6uV0-4" edge="1">
          <mxGeometry relative="1" as="geometry" />
        </mxCell>
        <mxCell id="dEsy5eIckWQGi50N6uV0-9" value="load本地加载配置信息" style="whiteSpace=wrap;html=1;rounded=1;strokeWidth=2;" parent="dEsy5eIckWQGi50N6uV0-1" vertex="1">
          <mxGeometry x="220" y="200" width="120" height="60" as="geometry" />
        </mxCell>
        <mxCell id="dEsy5eIckWQGi50N6uV0-10" value="取出缓存的所有pro_key和version作为参数上传，在线服务算出diff" style="edgeStyle=orthogonalEdgeStyle;rounded=0;orthogonalLoop=1;jettySize=auto;html=1;exitX=0.5;exitY=0;exitDx=0;exitDy=0;entryX=0.45;entryY=1.033;entryDx=0;entryDy=0;entryPerimeter=0;strokeWidth=2;" parent="dEsy5eIckWQGi50N6uV0-1" source="dEsy5eIckWQGi50N6uV0-11" target="dEsy5eIckWQGi50N6uV0-9" edge="1">
          <mxGeometry relative="1" as="geometry" />
        </mxCell>
        <mxCell id="dEsy5eIckWQGi50N6uV0-11" value="Local&lt;br&gt;Cache" style="shape=datastore;whiteSpace=wrap;html=1;strokeWidth=2;fillColor=#f5f5f5;strokeColor=#666666;fontColor=#333333;" parent="dEsy5eIckWQGi50N6uV0-1" vertex="1">
          <mxGeometry x="220" y="410" width="110" height="120" as="geometry" />
        </mxCell>
        <mxCell id="dEsy5eIckWQGi50N6uV0-16" value="" style="rounded=0;orthogonalLoop=1;jettySize=auto;html=1;strokeWidth=2;entryX=0.5;entryY=0;entryDx=0;entryDy=0;" parent="dEsy5eIckWQGi50N6uV0-1" source="dEsy5eIckWQGi50N6uV0-19" target="dEsy5eIckWQGi50N6uV0-92" edge="1">
          <mxGeometry relative="1" as="geometry">
            <mxPoint x="912.5" y="350" as="targetPoint" />
          </mxGeometry>
        </mxCell>
        <mxCell id="dEsy5eIckWQGi50N6uV0-17" value="revert" style="edgeLabel;html=1;align=center;verticalAlign=middle;resizable=0;points=[];" parent="dEsy5eIckWQGi50N6uV0-16" vertex="1" connectable="0">
          <mxGeometry x="-0.0218" y="1" relative="1" as="geometry">
            <mxPoint as="offset" />
          </mxGeometry>
        </mxCell>
        <mxCell id="dEsy5eIckWQGi50N6uV0-83" style="edgeStyle=orthogonalEdgeStyle;rounded=0;orthogonalLoop=1;jettySize=auto;html=1;exitX=1;exitY=0.5;exitDx=0;exitDy=0;entryX=0.5;entryY=0;entryDx=0;entryDy=0;strokeWidth=2;" parent="dEsy5eIckWQGi50N6uV0-1" source="dEsy5eIckWQGi50N6uV0-19" target="dEsy5eIckWQGi50N6uV0-26" edge="1">
          <mxGeometry relative="1" as="geometry">
            <mxPoint x="1640" y="790" as="targetPoint" />
          </mxGeometry>
        </mxCell>
        <mxCell id="dEsy5eIckWQGi50N6uV0-84" value="del" style="edgeLabel;html=1;align=center;verticalAlign=middle;resizable=0;points=[];" parent="dEsy5eIckWQGi50N6uV0-83" vertex="1" connectable="0">
          <mxGeometry x="-0.3872" y="1" relative="1" as="geometry">
            <mxPoint x="181" y="81" as="offset" />
          </mxGeometry>
        </mxCell>
        <mxCell id="dEsy5eIckWQGi50N6uV0-19" value="pkg.operate" style="rhombus;whiteSpace=wrap;html=1;rounded=1;strokeWidth=2;" parent="dEsy5eIckWQGi50N6uV0-1" vertex="1">
          <mxGeometry x="852.5" y="190" width="117.5" height="80" as="geometry" />
        </mxCell>
        <mxCell id="dEsy5eIckWQGi50N6uV0-24" style="edgeStyle=orthogonalEdgeStyle;rounded=0;orthogonalLoop=1;jettySize=auto;html=1;exitX=0;exitY=0.5;exitDx=0;exitDy=0;entryX=0.5;entryY=1;entryDx=0;entryDy=0;strokeWidth=2;" parent="dEsy5eIckWQGi50N6uV0-1" source="dEsy5eIckWQGi50N6uV0-26" target="dEsy5eIckWQGi50N6uV0-11" edge="1">
          <mxGeometry relative="1" as="geometry" />
        </mxCell>
        <mxCell id="dEsy5eIckWQGi50N6uV0-25" value="更新本地和内存信息" style="edgeLabel;html=1;align=center;verticalAlign=middle;resizable=0;points=[];" parent="dEsy5eIckWQGi50N6uV0-24" vertex="1" connectable="0">
          <mxGeometry x="0.7376" y="3" relative="1" as="geometry">
            <mxPoint x="8" y="-82" as="offset" />
          </mxGeometry>
        </mxCell>
        <mxCell id="dEsy5eIckWQGi50N6uV0-26" value="查找本地并删除" style="whiteSpace=wrap;html=1;rounded=1;strokeWidth=2;" parent="dEsy5eIckWQGi50N6uV0-1" vertex="1">
          <mxGeometry x="1340" y="750" width="120" height="60" as="geometry" />
        </mxCell>
        <mxCell id="dEsy5eIckWQGi50N6uV0-32" style="edgeStyle=orthogonalEdgeStyle;rounded=0;orthogonalLoop=1;jettySize=auto;html=1;strokeWidth=2;" parent="dEsy5eIckWQGi50N6uV0-1" source="dEsy5eIckWQGi50N6uV0-2" target="dEsy5eIckWQGi50N6uV0-9" edge="1">
          <mxGeometry relative="1" as="geometry">
            <mxPoint x="140" y="230" as="sourcePoint" />
          </mxGeometry>
        </mxCell>
        <mxCell id="dEsy5eIckWQGi50N6uV0-110" style="edgeStyle=orthogonalEdgeStyle;rounded=0;orthogonalLoop=1;jettySize=auto;html=1;exitX=0.5;exitY=1;exitDx=0;exitDy=0;entryX=0.5;entryY=0;entryDx=0;entryDy=0;strokeWidth=2;" parent="dEsy5eIckWQGi50N6uV0-1" source="dEsy5eIckWQGi50N6uV0-34" target="vCnx5ugEMjlLWHrVh6Ec-2" edge="1">
          <mxGeometry relative="1" as="geometry">
            <mxPoint x="420" y="1160" as="targetPoint" />
          </mxGeometry>
        </mxCell>
        <mxCell id="dEsy5eIckWQGi50N6uV0-34" value="离线资源加载" style="whiteSpace=wrap;html=1;rounded=1;strokeWidth=2;" parent="dEsy5eIckWQGi50N6uV0-1" vertex="1">
          <mxGeometry x="180" y="1010" width="120" height="60" as="geometry" />
        </mxCell>
        <mxCell id="dEsy5eIckWQGi50N6uV0-40" value="结束（加载线上资源）" style="strokeWidth=2;html=1;shape=mxgraph.flowchart.terminator;whiteSpace=wrap;" parent="dEsy5eIckWQGi50N6uV0-1" vertex="1">
          <mxGeometry x="190" y="1325" width="100" height="60" as="geometry" />
        </mxCell>
        <mxCell id="dEsy5eIckWQGi50N6uV0-67" value="" style="edgeStyle=orthogonalEdgeStyle;rounded=0;orthogonalLoop=1;jettySize=auto;html=1;strokeWidth=2;" parent="dEsy5eIckWQGi50N6uV0-1" source="dEsy5eIckWQGi50N6uV0-69" target="dEsy5eIckWQGi50N6uV0-74" edge="1">
          <mxGeometry relative="1" as="geometry" />
        </mxCell>
        <mxCell id="dEsy5eIckWQGi50N6uV0-68" value="no" style="edgeLabel;html=1;align=center;verticalAlign=middle;resizable=0;points=[];" parent="dEsy5eIckWQGi50N6uV0-67" vertex="1" connectable="0">
          <mxGeometry x="-0.2889" y="1" relative="1" as="geometry">
            <mxPoint as="offset" />
          </mxGeometry>
        </mxCell>
        <mxCell id="6hes3PzcBylIFIP93ywQ-7" style="edgeStyle=orthogonalEdgeStyle;rounded=0;orthogonalLoop=1;jettySize=auto;html=1;exitX=0.5;exitY=1;exitDx=0;exitDy=0;entryX=1;entryY=0.5;entryDx=0;entryDy=0;strokeWidth=2;" parent="dEsy5eIckWQGi50N6uV0-1" source="dEsy5eIckWQGi50N6uV0-69" target="6hes3PzcBylIFIP93ywQ-2" edge="1">
          <mxGeometry relative="1" as="geometry" />
        </mxCell>
        <mxCell id="6hes3PzcBylIFIP93ywQ-11" value="yes" style="edgeLabel;html=1;align=center;verticalAlign=middle;resizable=0;points=[];" parent="6hes3PzcBylIFIP93ywQ-7" vertex="1" connectable="0">
          <mxGeometry x="-0.8119" y="2" relative="1" as="geometry">
            <mxPoint as="offset" />
          </mxGeometry>
        </mxCell>
        <mxCell id="dEsy5eIckWQGi50N6uV0-69" value="是否增量更新is_increment" style="rhombus;whiteSpace=wrap;html=1;rounded=1;strokeWidth=2;" parent="dEsy5eIckWQGi50N6uV0-1" vertex="1">
          <mxGeometry x="1160" y="410" width="169" height="70" as="geometry" />
        </mxCell>
        <mxCell id="6hes3PzcBylIFIP93ywQ-8" style="edgeStyle=elbowEdgeStyle;rounded=0;orthogonalLoop=1;jettySize=auto;html=1;exitX=0.5;exitY=1;exitDx=0;exitDy=0;strokeWidth=2;" parent="dEsy5eIckWQGi50N6uV0-1" source="dEsy5eIckWQGi50N6uV0-74" edge="1">
          <mxGeometry relative="1" as="geometry">
            <mxPoint x="860" y="700" as="targetPoint" />
            <Array as="points">
              <mxPoint x="1050" y="580" />
              <mxPoint x="1100" y="550" />
              <mxPoint x="1063" y="530" />
            </Array>
          </mxGeometry>
        </mxCell>
        <mxCell id="dEsy5eIckWQGi50N6uV0-74" value="删除本地对应老离线包" style="whiteSpace=wrap;html=1;rounded=1;strokeWidth=2;" parent="dEsy5eIckWQGi50N6uV0-1" vertex="1">
          <mxGeometry x="990" y="415" width="120" height="60" as="geometry" />
        </mxCell>
        <mxCell id="dEsy5eIckWQGi50N6uV0-79" value="" style="edgeStyle=orthogonalEdgeStyle;rounded=0;orthogonalLoop=1;jettySize=auto;html=1;strokeWidth=2;" parent="dEsy5eIckWQGi50N6uV0-1" source="dEsy5eIckWQGi50N6uV0-80" target="dEsy5eIckWQGi50N6uV0-19" edge="1">
          <mxGeometry relative="1" as="geometry">
            <mxPoint x="880" y="230" as="targetPoint" />
          </mxGeometry>
        </mxCell>
        <mxCell id="dEsy5eIckWQGi50N6uV0-80" value="解析配置" style="whiteSpace=wrap;html=1;rounded=1;strokeWidth=2;" parent="dEsy5eIckWQGi50N6uV0-1" vertex="1">
          <mxGeometry x="650" y="200" width="120" height="60" as="geometry" />
        </mxCell>
        <mxCell id="6hes3PzcBylIFIP93ywQ-4" style="edgeStyle=orthogonalEdgeStyle;rounded=0;orthogonalLoop=1;jettySize=auto;html=1;exitX=0.5;exitY=1;exitDx=0;exitDy=0;entryX=1;entryY=0.5;entryDx=0;entryDy=0;strokeWidth=2;" parent="dEsy5eIckWQGi50N6uV0-1" source="dEsy5eIckWQGi50N6uV0-92" target="6hes3PzcBylIFIP93ywQ-2" edge="1">
          <mxGeometry relative="1" as="geometry" />
        </mxCell>
        <mxCell id="dEsy5eIckWQGi50N6uV0-92" value="删除本地对应离线包" style="whiteSpace=wrap;html=1;rounded=1;strokeWidth=2;" parent="dEsy5eIckWQGi50N6uV0-1" vertex="1">
          <mxGeometry x="851.25" y="415" width="120" height="60" as="geometry" />
        </mxCell>
        <mxCell id="dEsy5eIckWQGi50N6uV0-98" value="" style="edgeStyle=orthogonalEdgeStyle;rounded=0;orthogonalLoop=1;jettySize=auto;html=1;exitX=1;exitY=0.5;exitDx=0;exitDy=0;strokeWidth=2;entryX=0.5;entryY=0;entryDx=0;entryDy=0;endArrow=none;" parent="dEsy5eIckWQGi50N6uV0-1" source="dEsy5eIckWQGi50N6uV0-19" target="dEsy5eIckWQGi50N6uV0-69" edge="1">
          <mxGeometry relative="1" as="geometry">
            <mxPoint x="970" y="230" as="sourcePoint" />
            <mxPoint x="1315.5" y="350" as="targetPoint" />
          </mxGeometry>
        </mxCell>
        <mxCell id="dEsy5eIckWQGi50N6uV0-100" value="add" style="edgeLabel;html=1;align=center;verticalAlign=middle;resizable=0;points=[];" parent="dEsy5eIckWQGi50N6uV0-98" vertex="1" connectable="0">
          <mxGeometry x="0.6646" y="-2" relative="1" as="geometry">
            <mxPoint x="2" y="42" as="offset" />
          </mxGeometry>
        </mxCell>
        <mxCell id="6hes3PzcBylIFIP93ywQ-10" style="edgeStyle=elbowEdgeStyle;rounded=0;orthogonalLoop=1;jettySize=auto;elbow=vertical;html=1;exitX=0;exitY=0.5;exitDx=0;exitDy=0;entryX=0.5;entryY=1;entryDx=0;entryDy=0;strokeWidth=2;" parent="dEsy5eIckWQGi50N6uV0-1" source="6hes3PzcBylIFIP93ywQ-2" target="dEsy5eIckWQGi50N6uV0-11" edge="1">
          <mxGeometry relative="1" as="geometry">
            <Array as="points">
              <mxPoint x="540" y="700" />
            </Array>
          </mxGeometry>
        </mxCell>
        <mxCell id="6hes3PzcBylIFIP93ywQ-2" value="下载离线包zip" style="whiteSpace=wrap;html=1;rounded=1;strokeWidth=2;" parent="dEsy5eIckWQGi50N6uV0-1" vertex="1">
          <mxGeometry x="740" y="670" width="120" height="60" as="geometry" />
        </mxCell>
        <mxCell id="vCnx5ugEMjlLWHrVh6Ec-1" value="按需下载逻辑" style="text;html=1;align=center;verticalAlign=middle;resizable=0;points=[];autosize=1;strokeColor=none;fillColor=none;fontSize=21;" parent="dEsy5eIckWQGi50N6uV0-1" vertex="1">
          <mxGeometry x="475" y="900" width="150" height="40" as="geometry" />
        </mxCell>
        <mxCell id="vCnx5ugEMjlLWHrVh6Ec-5" value="" style="edgeStyle=orthogonalEdgeStyle;rounded=0;orthogonalLoop=1;jettySize=auto;html=1;fontSize=12;strokeWidth=2;entryX=0.5;entryY=0;entryDx=0;entryDy=0;entryPerimeter=0;" parent="dEsy5eIckWQGi50N6uV0-1" source="vCnx5ugEMjlLWHrVh6Ec-2" target="dEsy5eIckWQGi50N6uV0-40" edge="1">
          <mxGeometry relative="1" as="geometry">
            <mxPoint x="420" y="1285" as="targetPoint" />
          </mxGeometry>
        </mxCell>
        <mxCell id="vCnx5ugEMjlLWHrVh6Ec-28" value="否" style="edgeLabel;html=1;align=center;verticalAlign=middle;resizable=0;points=[];fontSize=12;" parent="vCnx5ugEMjlLWHrVh6Ec-5" vertex="1" connectable="0">
          <mxGeometry x="-0.0649" y="2" relative="1" as="geometry">
            <mxPoint as="offset" />
          </mxGeometry>
        </mxCell>
        <mxCell id="vCnx5ugEMjlLWHrVh6Ec-2" value="资源是否在manifest中" style="rhombus;whiteSpace=wrap;html=1;fontSize=12;strokeWidth=2;" parent="dEsy5eIckWQGi50N6uV0-1" vertex="1">
          <mxGeometry x="177.5" y="1160" width="125" height="70" as="geometry" />
        </mxCell>
        <mxCell id="vCnx5ugEMjlLWHrVh6Ec-7" style="edgeStyle=orthogonalEdgeStyle;rounded=0;orthogonalLoop=1;jettySize=auto;html=1;strokeWidth=2;startArrow=none;exitX=1;exitY=0.5;exitDx=0;exitDy=0;entryX=0;entryY=0.5;entryDx=0;entryDy=0;" parent="dEsy5eIckWQGi50N6uV0-1" source="E-oHEvlBnHaX6IDMRPkD-1" edge="1">
          <mxGeometry relative="1" as="geometry">
            <mxPoint x="500" y="1310" as="sourcePoint" />
            <mxPoint x="622.5" y="1194" as="targetPoint" />
          </mxGeometry>
        </mxCell>
        <mxCell id="E-oHEvlBnHaX6IDMRPkD-7" value="否" style="edgeLabel;html=1;align=center;verticalAlign=middle;resizable=0;points=[];" vertex="1" connectable="0" parent="vCnx5ugEMjlLWHrVh6Ec-7">
          <mxGeometry x="-0.2" y="3" relative="1" as="geometry">
            <mxPoint as="offset" />
          </mxGeometry>
        </mxCell>
        <mxCell id="vCnx5ugEMjlLWHrVh6Ec-11" value="开始下载离线包" style="whiteSpace=wrap;html=1;rounded=1;strokeWidth=2;" parent="dEsy5eIckWQGi50N6uV0-1" vertex="1">
          <mxGeometry x="625" y="1160" width="120" height="60" as="geometry" />
        </mxCell>
        <mxCell id="vCnx5ugEMjlLWHrVh6Ec-16" value="是否有本版本增量包" style="rhombus;whiteSpace=wrap;html=1;fontSize=12;strokeWidth=2;" parent="dEsy5eIckWQGi50N6uV0-1" vertex="1">
          <mxGeometry x="622.5" y="1270" width="125" height="70" as="geometry" />
        </mxCell>
        <mxCell id="vCnx5ugEMjlLWHrVh6Ec-17" value="" style="edgeStyle=orthogonalEdgeStyle;rounded=0;orthogonalLoop=1;jettySize=auto;html=1;strokeWidth=2;entryX=0.5;entryY=0;entryDx=0;entryDy=0;exitX=0.5;exitY=1;exitDx=0;exitDy=0;" parent="dEsy5eIckWQGi50N6uV0-1" source="vCnx5ugEMjlLWHrVh6Ec-11" target="vCnx5ugEMjlLWHrVh6Ec-16" edge="1">
          <mxGeometry relative="1" as="geometry">
            <mxPoint x="495" y="1105" as="sourcePoint" />
            <mxPoint x="495" y="1165" as="targetPoint" />
          </mxGeometry>
        </mxCell>
        <mxCell id="vCnx5ugEMjlLWHrVh6Ec-18" value="下载全量包" style="whiteSpace=wrap;html=1;rounded=1;strokeWidth=2;" parent="dEsy5eIckWQGi50N6uV0-1" vertex="1">
          <mxGeometry x="815" y="1275" width="120" height="60" as="geometry" />
        </mxCell>
        <mxCell id="vCnx5ugEMjlLWHrVh6Ec-19" value="" style="edgeStyle=orthogonalEdgeStyle;rounded=0;orthogonalLoop=1;jettySize=auto;html=1;strokeWidth=2;entryX=0;entryY=0.5;entryDx=0;entryDy=0;exitX=1;exitY=0.5;exitDx=0;exitDy=0;" parent="dEsy5eIckWQGi50N6uV0-1" source="vCnx5ugEMjlLWHrVh6Ec-16" target="vCnx5ugEMjlLWHrVh6Ec-18" edge="1">
          <mxGeometry relative="1" as="geometry">
            <mxPoint x="695" y="1230" as="sourcePoint" />
            <mxPoint x="695" y="1280" as="targetPoint" />
          </mxGeometry>
        </mxCell>
        <mxCell id="vCnx5ugEMjlLWHrVh6Ec-20" value="没有" style="edgeLabel;html=1;align=center;verticalAlign=middle;resizable=0;points=[];fontSize=12;" parent="vCnx5ugEMjlLWHrVh6Ec-19" vertex="1" connectable="0">
          <mxGeometry x="-0.0667" y="3" relative="1" as="geometry">
            <mxPoint x="1" as="offset" />
          </mxGeometry>
        </mxCell>
        <mxCell id="vCnx5ugEMjlLWHrVh6Ec-21" value="下载增量包" style="whiteSpace=wrap;html=1;rounded=1;strokeWidth=2;" parent="dEsy5eIckWQGi50N6uV0-1" vertex="1">
          <mxGeometry x="625" y="1395" width="120" height="60" as="geometry" />
        </mxCell>
        <mxCell id="vCnx5ugEMjlLWHrVh6Ec-22" value="" style="edgeStyle=orthogonalEdgeStyle;rounded=0;orthogonalLoop=1;jettySize=auto;html=1;strokeWidth=2;entryX=0.5;entryY=0;entryDx=0;entryDy=0;exitX=0.5;exitY=1;exitDx=0;exitDy=0;" parent="dEsy5eIckWQGi50N6uV0-1" source="vCnx5ugEMjlLWHrVh6Ec-16" target="vCnx5ugEMjlLWHrVh6Ec-21" edge="1">
          <mxGeometry relative="1" as="geometry">
            <mxPoint x="695" y="1230" as="sourcePoint" />
            <mxPoint x="695" y="1280" as="targetPoint" />
          </mxGeometry>
        </mxCell>
        <mxCell id="vCnx5ugEMjlLWHrVh6Ec-23" value="有" style="edgeLabel;html=1;align=center;verticalAlign=middle;resizable=0;points=[];fontSize=12;" parent="vCnx5ugEMjlLWHrVh6Ec-22" vertex="1" connectable="0">
          <mxGeometry x="-0.1636" y="-2" relative="1" as="geometry">
            <mxPoint as="offset" />
          </mxGeometry>
        </mxCell>
        <mxCell id="vCnx5ugEMjlLWHrVh6Ec-24" value="结束" style="strokeWidth=2;html=1;shape=mxgraph.flowchart.terminator;whiteSpace=wrap;" parent="dEsy5eIckWQGi50N6uV0-1" vertex="1">
          <mxGeometry x="825" y="1395" width="100" height="60" as="geometry" />
        </mxCell>
        <mxCell id="vCnx5ugEMjlLWHrVh6Ec-25" value="&lt;span style=&quot;color: rgba(0, 0, 0, 0); font-family: monospace; font-size: 0px; text-align: start; background-color: rgb(248, 249, 250);&quot;&gt;%3CmxGraphModel%3E%3Croot%3E%3CmxCell%20id%3D%220%22%2F%3E%3CmxCell%20id%3D%221%22%20parent%3D%220%22%2F%3E%3CmxCell%20id%3D%222%22%20value%3D%22%22%20style%3D%22edgeStyle%3DorthogonalEdgeStyle%3Brounded%3D0%3BorthogonalLoop%3D1%3BjettySize%3Dauto%3Bhtml%3D1%3BstrokeWidth%3D2%3BentryX%3D0.5%3BentryY%3D0%3BentryDx%3D0%3BentryDy%3D0%3BexitX%3D0.5%3BexitY%3D1%3BexitDx%3D0%3BexitDy%3D0%3B%22%20edge%3D%221%22%20parent%3D%221%22%3E%3CmxGeometry%20relative%3D%221%22%20as%3D%22geometry%22%3E%3CmxPoint%20x%3D%22880%22%20y%3D%221355%22%20as%3D%22sourcePoint%22%2F%3E%3CmxPoint%20x%3D%22880%22%20y%3D%221405%22%20as%3D%22targetPoint%22%2F%3E%3C%2FmxGeometry%3E%3C%2FmxCell%3E%3C%2Froot%3E%3C%2FmxGraphModel%3E&lt;/span&gt;" style="edgeStyle=orthogonalEdgeStyle;rounded=0;orthogonalLoop=1;jettySize=auto;html=1;strokeWidth=2;entryX=0.5;entryY=0;entryDx=0;entryDy=0;exitX=0.5;exitY=1;exitDx=0;exitDy=0;entryPerimeter=0;" parent="dEsy5eIckWQGi50N6uV0-1" source="vCnx5ugEMjlLWHrVh6Ec-18" target="vCnx5ugEMjlLWHrVh6Ec-24" edge="1">
          <mxGeometry relative="1" as="geometry">
            <mxPoint x="695" y="1230" as="sourcePoint" />
            <mxPoint x="695" y="1280" as="targetPoint" />
          </mxGeometry>
        </mxCell>
        <mxCell id="vCnx5ugEMjlLWHrVh6Ec-26" value="&lt;span style=&quot;color: rgba(0, 0, 0, 0); font-family: monospace; font-size: 0px; text-align: start; background-color: rgb(248, 249, 250);&quot;&gt;%3CmxGraphModel%3E%3Croot%3E%3CmxCell%20id%3D%220%22%2F%3E%3CmxCell%20id%3D%221%22%20parent%3D%220%22%2F%3E%3CmxCell%20id%3D%222%22%20value%3D%22%22%20style%3D%22edgeStyle%3DorthogonalEdgeStyle%3Brounded%3D0%3BorthogonalLoop%3D1%3BjettySize%3Dauto%3Bhtml%3D1%3BstrokeWidth%3D2%3BentryX%3D0.5%3BentryY%3D0%3BentryDx%3D0%3BentryDy%3D0%3BexitX%3D0.5%3BexitY%3D1%3BexitDx%3D0%3BexitDy%3D0%3B%22%20edge%3D%221%22%20parent%3D%221%22%3E%3CmxGeometry%20relative%3D%221%22%20as%3D%22geometry%22%3E%3CmxPoint%20x%3D%22880%22%20y%3D%221355%22%20as%3D%22sourcePoint%22%2F%3E%3CmxPoint%20x%3D%22880%22%20y%3D%221405%22%20as%3D%22targetPoint%22%2F%3E%3C%2FmxGeometry%3E%3C%2FmxCell%3E%3C%2Froot%3E%3C%2FmxGraphModel%3E&lt;/span&gt;" style="edgeStyle=orthogonalEdgeStyle;rounded=0;orthogonalLoop=1;jettySize=auto;html=1;strokeWidth=2;entryX=0;entryY=0.5;entryDx=0;entryDy=0;exitX=1;exitY=0.5;exitDx=0;exitDy=0;entryPerimeter=0;" parent="dEsy5eIckWQGi50N6uV0-1" source="vCnx5ugEMjlLWHrVh6Ec-21" target="vCnx5ugEMjlLWHrVh6Ec-24" edge="1">
          <mxGeometry relative="1" as="geometry">
            <mxPoint x="885" y="1345" as="sourcePoint" />
            <mxPoint x="885" y="1405" as="targetPoint" />
          </mxGeometry>
        </mxCell>
        <mxCell id="E-oHEvlBnHaX6IDMRPkD-1" value="本地资源是否存在" style="rhombus;whiteSpace=wrap;html=1;fontSize=12;strokeWidth=2;" vertex="1" parent="dEsy5eIckWQGi50N6uV0-1">
          <mxGeometry x="390" y="1159" width="125" height="70" as="geometry" />
        </mxCell>
        <mxCell id="E-oHEvlBnHaX6IDMRPkD-2" value="" style="edgeStyle=orthogonalEdgeStyle;rounded=0;orthogonalLoop=1;jettySize=auto;html=1;entryX=0;entryY=0.5;entryDx=0;entryDy=0;strokeWidth=2;endArrow=none;" edge="1" parent="dEsy5eIckWQGi50N6uV0-1" source="vCnx5ugEMjlLWHrVh6Ec-2" target="E-oHEvlBnHaX6IDMRPkD-1">
          <mxGeometry relative="1" as="geometry">
            <mxPoint x="302.5" y="1195" as="sourcePoint" />
            <mxPoint x="620" y="1200" as="targetPoint" />
          </mxGeometry>
        </mxCell>
        <mxCell id="E-oHEvlBnHaX6IDMRPkD-3" value="是" style="edgeLabel;html=1;align=center;verticalAlign=middle;resizable=0;points=[];fontSize=12;" vertex="1" connectable="0" parent="E-oHEvlBnHaX6IDMRPkD-2">
          <mxGeometry x="-0.0556" y="-1" relative="1" as="geometry">
            <mxPoint x="1" as="offset" />
          </mxGeometry>
        </mxCell>
        <mxCell id="E-oHEvlBnHaX6IDMRPkD-4" value="结束（加载本地资源）" style="strokeWidth=2;html=1;shape=mxgraph.flowchart.terminator;whiteSpace=wrap;" vertex="1" parent="dEsy5eIckWQGi50N6uV0-1">
          <mxGeometry x="402.5" y="1325" width="100" height="60" as="geometry" />
        </mxCell>
        <mxCell id="E-oHEvlBnHaX6IDMRPkD-5" value="" style="edgeStyle=orthogonalEdgeStyle;rounded=0;orthogonalLoop=1;jettySize=auto;html=1;fontSize=12;strokeWidth=2;entryX=0.5;entryY=0;entryDx=0;entryDy=0;entryPerimeter=0;" edge="1" parent="dEsy5eIckWQGi50N6uV0-1" target="E-oHEvlBnHaX6IDMRPkD-4" source="E-oHEvlBnHaX6IDMRPkD-1">
          <mxGeometry relative="1" as="geometry">
            <mxPoint x="622.5" y="1285" as="targetPoint" />
            <mxPoint x="450" y="1230" as="sourcePoint" />
          </mxGeometry>
        </mxCell>
        <mxCell id="E-oHEvlBnHaX6IDMRPkD-6" value="是" style="edgeLabel;html=1;align=center;verticalAlign=middle;resizable=0;points=[];fontSize=12;" vertex="1" connectable="0" parent="E-oHEvlBnHaX6IDMRPkD-5">
          <mxGeometry x="-0.0649" y="2" relative="1" as="geometry">
            <mxPoint as="offset" />
          </mxGeometry>
        </mxCell>
        <mxCell id="E-oHEvlBnHaX6IDMRPkD-8" value="磁盘清理" style="whiteSpace=wrap;html=1;rounded=1;strokeWidth=2;" vertex="1" parent="dEsy5eIckWQGi50N6uV0-1">
          <mxGeometry x="480" y="1520" width="120" height="60" as="geometry" />
        </mxCell>
        <mxCell id="E-oHEvlBnHaX6IDMRPkD-9" value="离线包占用磁盘空间是否&amp;gt;阈值" style="rhombus;whiteSpace=wrap;html=1;fontSize=12;strokeWidth=2;" vertex="1" parent="dEsy5eIckWQGi50N6uV0-1">
          <mxGeometry x="477.5" y="1630" width="125" height="70" as="geometry" />
        </mxCell>
        <mxCell id="E-oHEvlBnHaX6IDMRPkD-10" value="" style="edgeStyle=orthogonalEdgeStyle;rounded=0;orthogonalLoop=1;jettySize=auto;html=1;fontSize=12;strokeWidth=2;entryX=0.5;entryY=0;entryDx=0;entryDy=0;exitX=0.5;exitY=1;exitDx=0;exitDy=0;" edge="1" parent="dEsy5eIckWQGi50N6uV0-1" source="E-oHEvlBnHaX6IDMRPkD-8" target="E-oHEvlBnHaX6IDMRPkD-9">
          <mxGeometry relative="1" as="geometry">
            <mxPoint x="462.5" y="1335" as="targetPoint" />
            <mxPoint x="462.5" y="1239" as="sourcePoint" />
          </mxGeometry>
        </mxCell>
        <mxCell id="E-oHEvlBnHaX6IDMRPkD-12" value="不处理" style="whiteSpace=wrap;html=1;rounded=1;strokeWidth=2;" vertex="1" parent="dEsy5eIckWQGi50N6uV0-1">
          <mxGeometry x="480" y="1760" width="120" height="60" as="geometry" />
        </mxCell>
        <mxCell id="E-oHEvlBnHaX6IDMRPkD-13" value="" style="edgeStyle=orthogonalEdgeStyle;rounded=0;orthogonalLoop=1;jettySize=auto;html=1;fontSize=12;strokeWidth=2;entryX=0.5;entryY=0;entryDx=0;entryDy=0;exitX=0.5;exitY=1;exitDx=0;exitDy=0;" edge="1" parent="dEsy5eIckWQGi50N6uV0-1" source="E-oHEvlBnHaX6IDMRPkD-9" target="E-oHEvlBnHaX6IDMRPkD-12">
          <mxGeometry relative="1" as="geometry">
            <mxPoint x="550" y="1640" as="targetPoint" />
            <mxPoint x="550" y="1590" as="sourcePoint" />
          </mxGeometry>
        </mxCell>
        <mxCell id="E-oHEvlBnHaX6IDMRPkD-14" value="否" style="edgeLabel;html=1;align=center;verticalAlign=middle;resizable=0;points=[];" vertex="1" connectable="0" parent="E-oHEvlBnHaX6IDMRPkD-13">
          <mxGeometry x="-0.2" y="-2" relative="1" as="geometry">
            <mxPoint as="offset" />
          </mxGeometry>
        </mxCell>
        <mxCell id="E-oHEvlBnHaX6IDMRPkD-15" value="清理离线包资源" style="whiteSpace=wrap;html=1;rounded=1;strokeWidth=2;" vertex="1" parent="dEsy5eIckWQGi50N6uV0-1">
          <mxGeometry x="680" y="1635" width="120" height="60" as="geometry" />
        </mxCell>
        <mxCell id="E-oHEvlBnHaX6IDMRPkD-16" value="" style="edgeStyle=orthogonalEdgeStyle;rounded=0;orthogonalLoop=1;jettySize=auto;html=1;fontSize=12;strokeWidth=2;entryX=0;entryY=0.5;entryDx=0;entryDy=0;exitX=1;exitY=0.5;exitDx=0;exitDy=0;" edge="1" parent="dEsy5eIckWQGi50N6uV0-1" source="E-oHEvlBnHaX6IDMRPkD-9" target="E-oHEvlBnHaX6IDMRPkD-15">
          <mxGeometry relative="1" as="geometry">
            <mxPoint x="550" y="1770" as="targetPoint" />
            <mxPoint x="550" y="1710" as="sourcePoint" />
          </mxGeometry>
        </mxCell>
        <mxCell id="E-oHEvlBnHaX6IDMRPkD-17" value="是" style="edgeLabel;html=1;align=center;verticalAlign=middle;resizable=0;points=[];" vertex="1" connectable="0" parent="E-oHEvlBnHaX6IDMRPkD-16">
          <mxGeometry x="-0.2" y="-2" relative="1" as="geometry">
            <mxPoint as="offset" />
          </mxGeometry>
        </mxCell>
        <mxCell id="E-oHEvlBnHaX6IDMRPkD-18" value="按照创建时间顺序开始删除离线包（从最旧的开始），删除到占用磁盘空间小于阈值*0.8之下后结束。" style="shape=note;whiteSpace=wrap;html=1;backgroundOutline=1;fontColor=#000000;darkOpacity=0.05;fillColor=#FFF9B2;strokeColor=none;fillStyle=solid;direction=west;gradientDirection=north;gradientColor=#FFF2A1;shadow=1;size=20;pointerEvents=1;align=left;" vertex="1" parent="dEsy5eIckWQGi50N6uV0-1">
          <mxGeometry x="805" y="1620" width="140" height="100" as="geometry" />
        </mxCell>
      </root>
    </mxGraphModel>
  </diagram>
</mxfile>
